<?xml version="1.0" encoding="UTF-8" standalone="no"?>
<!DOCTYPE svg PUBLIC "-//W3C//DTD SVG 1.1//EN"
 "http://www.w3.org/Graphics/SVG/1.1/DTD/svg11.dtd">
<!-- Generated by graphviz version 2.50.0 (20211204.2007)
 -->
<!-- Title: Gameplay.Levels.Level.OnRestart Pages: 1 -->
<svg width="765pt" height="176pt"
 viewBox="0.00 0.00 765.00 176.00" xmlns="http://www.w3.org/2000/svg" xmlns:xlink="http://www.w3.org/1999/xlink">
<g id="graph0" class="graph" transform="scale(1 1) rotate(0) translate(4 172)">
<title>Gameplay.Levels.Level.OnRestart</title>
<polygon fill="white" stroke="transparent" points="-4,4 -4,-172 761,-172 761,4 -4,4"/>
<!-- Node1 -->
<g id="node1" class="node">
<title>Node1</title>
<g id="a_node1"><a xlink:title="Action triggered when restarting the level.">
<polygon fill="#bfbfbf" stroke="black" points="0,-66.5 0,-96.5 131,-96.5 131,-66.5 0,-66.5"/>
<text text-anchor="start" x="8" y="-84.5" font-family="Helvetica,sans-Serif" font-size="10.00">Gameplay.Levels.Level.On</text>
<text text-anchor="middle" x="65.5" y="-73.5" font-family="Helvetica,sans-Serif" font-size="10.00">Restart</text>
</a>
</g>
</g>
<!-- Node2 -->
<g id="node2" class="node">
<title>Node2</title>
<g id="a_node2"><a xlink:href="class_gameplay_1_1_levels_1_1_level.html#a1edabea1d6571656727ced8c7ada4571" target="_top" xlink:title="Action triggered after the die animation ended.">
<polygon fill="white" stroke="black" points="185,-88.5 185,-118.5 316,-118.5 316,-88.5 185,-88.5"/>
<text text-anchor="start" x="193" y="-106.5" font-family="Helvetica,sans-Serif" font-size="10.00">Gameplay.Levels.Level.On</text>
<text text-anchor="middle" x="250.5" y="-95.5" font-family="Helvetica,sans-Serif" font-size="10.00">AfterDie</text>
</a>
</g>
</g>
<!-- Node1&#45;&gt;Node2 -->
<g id="edge1" class="edge">
<title>Node1&#45;&gt;Node2</title>
<path fill="none" stroke="midnightblue" d="M131.02,-89.26C145.23,-90.97 160.4,-92.79 174.97,-94.54"/>
<polygon fill="midnightblue" stroke="midnightblue" points="174.6,-98.02 184.95,-95.74 175.44,-91.07 174.6,-98.02"/>
</g>
<!-- Node5 -->
<g id="node5" class="node">
<title>Node5</title>
<g id="a_node5"><a xlink:href="class_gameplay_1_1_levels_1_1_level.html#a6c33c44ecf4f79f1e7c83375109314d6" target="_top" xlink:title="Update the attempt HUD content.">
<polygon fill="white" stroke="black" points="372,-137.5 372,-167.5 521,-167.5 521,-137.5 372,-137.5"/>
<text text-anchor="start" x="380" y="-155.5" font-family="Helvetica,sans-Serif" font-size="10.00">Gameplay.Levels.Level.Update</text>
<text text-anchor="middle" x="446.5" y="-144.5" font-family="Helvetica,sans-Serif" font-size="10.00">HudAttempt</text>
</a>
</g>
</g>
<!-- Node1&#45;&gt;Node5 -->
<g id="edge7" class="edge">
<title>Node1&#45;&gt;Node5</title>
<path fill="none" stroke="midnightblue" d="M92.87,-96.58C112.62,-107.12 140.66,-120.51 167,-127.5 230.94,-144.47 305.72,-150.45 361.68,-152.34"/>
<polygon fill="midnightblue" stroke="midnightblue" points="361.81,-155.85 371.91,-152.65 362.02,-148.85 361.81,-155.85"/>
</g>
<!-- Node6 -->
<g id="node6" class="node">
<title>Node6</title>
<g id="a_node6"><a xlink:href="class_gameplay_1_1_levels_1_1_level.html#a24d473e1589e1ea464c59f7502a90919" target="_top" xlink:title="Update the coins HUD content.">
<polygon fill="white" stroke="black" points="372,-39.5 372,-69.5 521,-69.5 521,-39.5 372,-39.5"/>
<text text-anchor="start" x="380" y="-57.5" font-family="Helvetica,sans-Serif" font-size="10.00">Gameplay.Levels.Level.Update</text>
<text text-anchor="middle" x="446.5" y="-46.5" font-family="Helvetica,sans-Serif" font-size="10.00">HudCoins</text>
</a>
</g>
</g>
<!-- Node1&#45;&gt;Node6 -->
<g id="edge8" class="edge">
<title>Node1&#45;&gt;Node6</title>
<path fill="none" stroke="midnightblue" d="M131.22,-76.89C194.9,-72.35 292.41,-65.41 361.92,-60.45"/>
<polygon fill="midnightblue" stroke="midnightblue" points="362.24,-63.94 371.97,-59.74 361.74,-56.96 362.24,-63.94"/>
</g>
<!-- Node7 -->
<g id="node7" class="node">
<title>Node7</title>
<g id="a_node7"><a xlink:href="class_gameplay_1_1_actors_1_1_player_controller.html#a746a8a7dcd6b76e69d911fd720a3bc54" target="_top" xlink:title="Resets the player animation">
<polygon fill="white" stroke="black" points="167,-0.5 167,-30.5 334,-30.5 334,-0.5 167,-0.5"/>
<text text-anchor="start" x="175" y="-18.5" font-family="Helvetica,sans-Serif" font-size="10.00">Gameplay.Actors.PlayerController.</text>
<text text-anchor="middle" x="250.5" y="-7.5" font-family="Helvetica,sans-Serif" font-size="10.00">RestartAnimation</text>
</a>
</g>
</g>
<!-- Node1&#45;&gt;Node7 -->
<g id="edge6" class="edge">
<title>Node1&#45;&gt;Node7</title>
<path fill="none" stroke="midnightblue" d="M108.48,-66.36C135.1,-56.76 169.72,-44.27 198,-34.07"/>
<polygon fill="midnightblue" stroke="midnightblue" points="199.49,-37.26 207.71,-30.57 197.12,-30.67 199.49,-37.26"/>
</g>
<!-- Node3 -->
<g id="node3" class="node">
<title>Node3</title>
<g id="a_node3"><a xlink:href="class_gameplay_1_1_levels_1_1_level.html#aa1a1ee14dac00df7cbd411f2e078e092" target="_top" xlink:title="Remove the active modifier and its effects.">
<polygon fill="white" stroke="black" points="370,-88.5 370,-118.5 523,-118.5 523,-88.5 370,-88.5"/>
<text text-anchor="start" x="378" y="-106.5" font-family="Helvetica,sans-Serif" font-size="10.00">Gameplay.Levels.Level.Remove</text>
<text text-anchor="middle" x="446.5" y="-95.5" font-family="Helvetica,sans-Serif" font-size="10.00">ModifierEffect</text>
</a>
</g>
</g>
<!-- Node2&#45;&gt;Node3 -->
<g id="edge2" class="edge">
<title>Node2&#45;&gt;Node3</title>
<path fill="none" stroke="midnightblue" d="M316.1,-103.5C330.07,-103.5 345.05,-103.5 359.69,-103.5"/>
<polygon fill="midnightblue" stroke="midnightblue" points="359.76,-107 369.76,-103.5 359.76,-100 359.76,-107"/>
</g>
<!-- Node2&#45;&gt;Node5 -->
<g id="edge4" class="edge">
<title>Node2&#45;&gt;Node5</title>
<path fill="none" stroke="midnightblue" d="M311.02,-118.53C331.6,-123.73 354.84,-129.6 376.13,-134.98"/>
<polygon fill="midnightblue" stroke="midnightblue" points="375.54,-138.44 386.09,-137.49 377.25,-131.65 375.54,-138.44"/>
</g>
<!-- Node2&#45;&gt;Node6 -->
<g id="edge5" class="edge">
<title>Node2&#45;&gt;Node6</title>
<path fill="none" stroke="midnightblue" d="M311.02,-88.47C331.6,-83.27 354.84,-77.4 376.13,-72.02"/>
<polygon fill="midnightblue" stroke="midnightblue" points="377.25,-75.35 386.09,-69.51 375.54,-68.56 377.25,-75.35"/>
</g>
<!-- Node4 -->
<g id="node4" class="node">
<title>Node4</title>
<g id="a_node4"><a xlink:href="class_gameplay_1_1_actors_1_1_player_controller.html#ac9c55df7e99ebcfef9b303ef9eb78453" target="_top" xlink:title="Removes the current modifier effect (does nothing if the player doesn&#39;t have any modifiers)">
<polygon fill="white" stroke="black" points="559,-88.5 559,-118.5 757,-118.5 757,-88.5 559,-88.5"/>
<text text-anchor="start" x="567" y="-106.5" font-family="Helvetica,sans-Serif" font-size="10.00">Gameplay.Actors.PlayerController.remove</text>
<text text-anchor="middle" x="658" y="-95.5" font-family="Helvetica,sans-Serif" font-size="10.00">ModifierEffect</text>
</a>
</g>
</g>
<!-- Node3&#45;&gt;Node4 -->
<g id="edge3" class="edge">
<title>Node3&#45;&gt;Node4</title>
<path fill="none" stroke="midnightblue" d="M523.13,-103.5C531.47,-103.5 540.08,-103.5 548.72,-103.5"/>
<polygon fill="midnightblue" stroke="midnightblue" points="548.86,-107 558.86,-103.5 548.86,-100 548.86,-107"/>
</g>
</g>
</svg>
