<?xml version="1.0" encoding="UTF-8" standalone="no"?>
<!DOCTYPE svg PUBLIC "-//W3C//DTD SVG 1.1//EN"
 "http://www.w3.org/Graphics/SVG/1.1/DTD/svg11.dtd">
<!-- Generated by graphviz version 2.50.0 (20211204.2007)
 -->
<!-- Title: Gameplay.Levels.Level.UpdateHudAttempt Pages: 1 -->
<svg width="834pt" height="95pt"
 viewBox="0.00 0.00 834.00 95.11" xmlns="http://www.w3.org/2000/svg" xmlns:xlink="http://www.w3.org/1999/xlink">
<g id="graph0" class="graph" transform="scale(1 1) rotate(0) translate(4 91.11)">
<title>Gameplay.Levels.Level.UpdateHudAttempt</title>
<polygon fill="white" stroke="transparent" points="-4,4 -4,-91.11 830,-91.11 830,4 -4,4"/>
<!-- Node1 -->
<g id="node1" class="node">
<title>Node1</title>
<g id="a_node1"><a xlink:title="Update the attempt HUD content.">
<polygon fill="#bfbfbf" stroke="black" points="677,-41.5 677,-71.5 826,-71.5 826,-41.5 677,-41.5"/>
<text text-anchor="start" x="685" y="-59.5" font-family="Helvetica,sans-Serif" font-size="10.00">Gameplay.Levels.Level.Update</text>
<text text-anchor="middle" x="751.5" y="-48.5" font-family="Helvetica,sans-Serif" font-size="10.00">HudAttempt</text>
</a>
</g>
</g>
<!-- Node2 -->
<g id="node2" class="node">
<title>Node2</title>
<g id="a_node2"><a xlink:href="class_gameplay_1_1_levels_1_1_level.html#aa20e112e1769f3b7e67d69b519aa276e" target="_top" xlink:title="Initialize the objects of the level + update HUD.">
<polygon fill="white" stroke="black" points="176,-50 176,-69 307,-69 307,-50 176,-50"/>
<text text-anchor="middle" x="241.5" y="-57" font-family="Helvetica,sans-Serif" font-size="10.00">Gameplay.Levels.Level.Init</text>
</a>
</g>
</g>
<!-- Node1&#45;&gt;Node2 -->
<g id="edge1" class="edge">
<title>Node1&#45;&gt;Node2</title>
<path fill="none" stroke="midnightblue" d="M685.81,-73.79C671.18,-77 655.64,-79.85 641,-81.5 521.37,-94.98 380.56,-80.03 302.43,-69.03"/>
<polygon fill="midnightblue" stroke="midnightblue" points="686.79,-77.16 695.77,-71.53 685.24,-70.33 686.79,-77.16"/>
</g>
<!-- Node4 -->
<g id="node4" class="node">
<title>Node4</title>
<g id="a_node4"><a xlink:href="class_gameplay_1_1_levels_1_1_level.html#a1edabea1d6571656727ced8c7ada4571" target="_top" xlink:title="Action triggered after the die animation ended.">
<polygon fill="white" stroke="black" points="510,-41.5 510,-71.5 641,-71.5 641,-41.5 510,-41.5"/>
<text text-anchor="start" x="518" y="-59.5" font-family="Helvetica,sans-Serif" font-size="10.00">Gameplay.Levels.Level.On</text>
<text text-anchor="middle" x="575.5" y="-48.5" font-family="Helvetica,sans-Serif" font-size="10.00">AfterDie</text>
</a>
</g>
</g>
<!-- Node1&#45;&gt;Node4 -->
<g id="edge3" class="edge">
<title>Node1&#45;&gt;Node4</title>
<path fill="none" stroke="midnightblue" d="M666.88,-56.5C658.26,-56.5 649.6,-56.5 641.23,-56.5"/>
<polygon fill="midnightblue" stroke="midnightblue" points="666.96,-60 676.96,-56.5 666.96,-53 666.96,-60"/>
</g>
<!-- Node5 -->
<g id="node5" class="node">
<title>Node5</title>
<g id="a_node5"><a xlink:href="class_gameplay_1_1_levels_1_1_level.html#a7dfa35e881994e49851251ba993e9e01" target="_top" xlink:title="Action triggered when restarting the level.">
<polygon fill="white" stroke="black" points="343,-0.5 343,-30.5 474,-30.5 474,-0.5 343,-0.5"/>
<text text-anchor="start" x="351" y="-18.5" font-family="Helvetica,sans-Serif" font-size="10.00">Gameplay.Levels.Level.On</text>
<text text-anchor="middle" x="408.5" y="-7.5" font-family="Helvetica,sans-Serif" font-size="10.00">Restart</text>
</a>
</g>
</g>
<!-- Node1&#45;&gt;Node5 -->
<g id="edge7" class="edge">
<title>Node1&#45;&gt;Node5</title>
<path fill="none" stroke="midnightblue" d="M682.47,-39.25C668.81,-36.27 654.5,-33.5 641,-31.5 585.01,-23.22 520.74,-19.21 474.15,-17.28"/>
<polygon fill="midnightblue" stroke="midnightblue" points="681.76,-42.67 692.29,-41.44 683.29,-35.84 681.76,-42.67"/>
</g>
<!-- Node3 -->
<g id="node3" class="node">
<title>Node3</title>
<g id="a_node3"><a xlink:href="class_gameplay_1_1_levels_1_1_level.html#a1beeeb3389e74a65f987b8fbe920adaa" target="_top" xlink:title=" ">
<polygon fill="white" stroke="black" points="0,-50 0,-69 140,-69 140,-50 0,-50"/>
<text text-anchor="middle" x="70" y="-57" font-family="Helvetica,sans-Serif" font-size="10.00">Gameplay.Levels.Level.Start</text>
</a>
</g>
</g>
<!-- Node2&#45;&gt;Node3 -->
<g id="edge2" class="edge">
<title>Node2&#45;&gt;Node3</title>
<path fill="none" stroke="midnightblue" d="M165.68,-59.5C157.2,-59.5 148.59,-59.5 140.18,-59.5"/>
<polygon fill="midnightblue" stroke="midnightblue" points="165.94,-63 175.94,-59.5 165.94,-56 165.94,-63"/>
</g>
<!-- Node4&#45;&gt;Node2 -->
<g id="edge4" class="edge">
<title>Node4&#45;&gt;Node2</title>
<path fill="none" stroke="midnightblue" d="M499.51,-57.18C441.59,-57.7 362.28,-58.42 307.14,-58.92"/>
<polygon fill="midnightblue" stroke="midnightblue" points="499.73,-60.68 509.7,-57.09 499.67,-53.68 499.73,-60.68"/>
</g>
<!-- Node4&#45;&gt;Node5 -->
<g id="edge5" class="edge">
<title>Node4&#45;&gt;Node5</title>
<path fill="none" stroke="midnightblue" d="M504.12,-39.01C492.76,-36.19 481.09,-33.29 470,-30.53"/>
<polygon fill="midnightblue" stroke="midnightblue" points="503.45,-42.45 514,-41.47 505.14,-35.66 503.45,-42.45"/>
</g>
<!-- Node5&#45;&gt;Node2 -->
<g id="edge6" class="edge">
<title>Node5&#45;&gt;Node2</title>
<path fill="none" stroke="midnightblue" d="M341.43,-33.12C319.92,-38.85 296.86,-45 278.42,-49.92"/>
<polygon fill="midnightblue" stroke="midnightblue" points="342.42,-36.48 351.18,-30.52 340.61,-29.71 342.42,-36.48"/>
</g>
</g>
</svg>
