<?xml version="1.0" encoding="UTF-8" standalone="no"?>
<!DOCTYPE svg PUBLIC "-//W3C//DTD SVG 1.1//EN"
 "http://www.w3.org/Graphics/SVG/1.1/DTD/svg11.dtd">
<!-- Generated by graphviz version 2.50.0 (20211204.2007)
 -->
<!-- Title: Framework.Managers.SkinManager.GetSpriteProgression Pages: 1 -->
<svg width="524pt" height="39pt"
 viewBox="0.00 0.00 524.00 39.00" xmlns="http://www.w3.org/2000/svg" xmlns:xlink="http://www.w3.org/1999/xlink">
<g id="graph0" class="graph" transform="scale(1 1) rotate(0) translate(4 35)">
<title>Framework.Managers.SkinManager.GetSpriteProgression</title>
<polygon fill="white" stroke="transparent" points="-4,4 -4,-35 520,-35 520,4 -4,4"/>
<!-- Node1 -->
<g id="node1" class="node">
<title>Node1</title>
<g id="a_node1"><a xlink:title="Get the sprite of the &quot;level progression bar&quot; of the skin">
<polygon fill="#bfbfbf" stroke="black" points="343,-0.5 343,-30.5 516,-30.5 516,-0.5 343,-0.5"/>
<text text-anchor="start" x="351" y="-18.5" font-family="Helvetica,sans-Serif" font-size="10.00">Framework.Managers.SkinManager.</text>
<text text-anchor="middle" x="429.5" y="-7.5" font-family="Helvetica,sans-Serif" font-size="10.00">GetSpriteProgression</text>
</a>
</g>
</g>
<!-- Node2 -->
<g id="node2" class="node">
<title>Node2</title>
<g id="a_node2"><a xlink:href="class_gameplay_1_1_levels_1_1_level.html#aa20e112e1769f3b7e67d69b519aa276e" target="_top" xlink:title="Initialize the objects of the level + update HUD.">
<polygon fill="white" stroke="black" points="176,-6 176,-25 307,-25 307,-6 176,-6"/>
<text text-anchor="middle" x="241.5" y="-13" font-family="Helvetica,sans-Serif" font-size="10.00">Gameplay.Levels.Level.Init</text>
</a>
</g>
</g>
<!-- Node1&#45;&gt;Node2 -->
<g id="edge1" class="edge">
<title>Node1&#45;&gt;Node2</title>
<path fill="none" stroke="midnightblue" d="M332.69,-15.5C324.04,-15.5 315.41,-15.5 307.12,-15.5"/>
<polygon fill="midnightblue" stroke="midnightblue" points="332.85,-19 342.85,-15.5 332.85,-12 332.85,-19"/>
</g>
<!-- Node3 -->
<g id="node3" class="node">
<title>Node3</title>
<g id="a_node3"><a xlink:href="class_gameplay_1_1_levels_1_1_level.html#a1beeeb3389e74a65f987b8fbe920adaa" target="_top" xlink:title=" ">
<polygon fill="white" stroke="black" points="0,-6 0,-25 140,-25 140,-6 0,-6"/>
<text text-anchor="middle" x="70" y="-13" font-family="Helvetica,sans-Serif" font-size="10.00">Gameplay.Levels.Level.Start</text>
</a>
</g>
</g>
<!-- Node2&#45;&gt;Node3 -->
<g id="edge2" class="edge">
<title>Node2&#45;&gt;Node3</title>
<path fill="none" stroke="midnightblue" d="M165.68,-15.5C157.2,-15.5 148.59,-15.5 140.18,-15.5"/>
<polygon fill="midnightblue" stroke="midnightblue" points="165.94,-19 175.94,-15.5 165.94,-12 165.94,-19"/>
</g>
</g>
</svg>
