<?xml version="1.0" encoding="UTF-8" standalone="no"?>
<!DOCTYPE svg PUBLIC "-//W3C//DTD SVG 1.1//EN"
 "http://www.w3.org/Graphics/SVG/1.1/DTD/svg11.dtd">
<!-- Generated by graphviz version 2.50.0 (20211204.2007)
 -->
<!-- Title: Framework.UI.SkinInShop.OnButtonPressed Pages: 1 -->
<svg width="351pt" height="137pt"
 viewBox="0.00 0.00 351.00 137.00" xmlns="http://www.w3.org/2000/svg" xmlns:xlink="http://www.w3.org/1999/xlink">
<g id="graph0" class="graph" transform="scale(1 1) rotate(0) translate(4 133)">
<title>Framework.UI.SkinInShop.OnButtonPressed</title>
<polygon fill="white" stroke="transparent" points="-4,4 -4,-133 347,-133 347,4 -4,4"/>
<!-- Node1 -->
<g id="node1" class="node">
<title>Node1</title>
<g id="a_node1"><a xlink:title="Is called when we pressed on a skin&#39;s button. Equip the skin or buy it, regarding the money we have a...">
<polygon fill="#bfbfbf" stroke="black" points="0,-49.5 0,-79.5 132,-79.5 132,-49.5 0,-49.5"/>
<text text-anchor="start" x="8" y="-67.5" font-family="Helvetica,sans-Serif" font-size="10.00">Framework.UI.SkinInShop.</text>
<text text-anchor="middle" x="66" y="-56.5" font-family="Helvetica,sans-Serif" font-size="10.00">OnButtonPressed</text>
</a>
</g>
</g>
<!-- Node2 -->
<g id="node2" class="node">
<title>Node2</title>
<g id="a_node2"><a xlink:href="class_framework_1_1_u_i_1_1_skin_in_shop.html#a10feb3946113596cc19c943a5282a4ce" target="_top" xlink:title="Equip a skin.">
<polygon fill="white" stroke="black" points="189.5,-98.5 189.5,-128.5 321.5,-128.5 321.5,-98.5 189.5,-98.5"/>
<text text-anchor="start" x="197.5" y="-116.5" font-family="Helvetica,sans-Serif" font-size="10.00">Framework.UI.SkinInShop.</text>
<text text-anchor="middle" x="255.5" y="-105.5" font-family="Helvetica,sans-Serif" font-size="10.00">Equip</text>
</a>
</g>
</g>
<!-- Node1&#45;&gt;Node2 -->
<g id="edge1" class="edge">
<title>Node1&#45;&gt;Node2</title>
<path fill="none" stroke="midnightblue" d="M124.53,-79.53C144.33,-84.71 166.67,-90.55 187.18,-95.91"/>
<polygon fill="midnightblue" stroke="midnightblue" points="186.52,-99.35 197.08,-98.49 188.29,-92.58 186.52,-99.35"/>
</g>
<!-- Node3 -->
<g id="node3" class="node">
<title>Node3</title>
<g id="a_node3"><a xlink:href="class_framework_1_1_u_i_1_1_skin_in_shop.html#ac8044b7d051c400cd20c6235feb75170" target="_top" xlink:title="Get the total of coins we can spend on the shop. The value is all the collected coins minus le coins ...">
<polygon fill="white" stroke="black" points="189.5,-49.5 189.5,-79.5 321.5,-79.5 321.5,-49.5 189.5,-49.5"/>
<text text-anchor="start" x="197.5" y="-67.5" font-family="Helvetica,sans-Serif" font-size="10.00">Framework.UI.SkinInShop.</text>
<text text-anchor="middle" x="255.5" y="-56.5" font-family="Helvetica,sans-Serif" font-size="10.00">GetTotalCoinsToSpend</text>
</a>
</g>
</g>
<!-- Node1&#45;&gt;Node3 -->
<g id="edge2" class="edge">
<title>Node1&#45;&gt;Node3</title>
<path fill="none" stroke="midnightblue" d="M132.05,-64.5C147.24,-64.5 163.53,-64.5 179.12,-64.5"/>
<polygon fill="midnightblue" stroke="midnightblue" points="179.25,-68 189.25,-64.5 179.25,-61 179.25,-68"/>
</g>
<!-- Node4 -->
<g id="node4" class="node">
<title>Node4</title>
<g id="a_node4"><a xlink:href="class_framework_1_1_managers_1_1_save_manager.html#aa6a2ce7caf04e2f52410bd37e0b764ee" target="_top" xlink:title="Save game datas to file system.">
<polygon fill="white" stroke="black" points="168,-0.5 168,-30.5 343,-30.5 343,-0.5 168,-0.5"/>
<text text-anchor="start" x="176" y="-18.5" font-family="Helvetica,sans-Serif" font-size="10.00">Framework.Managers.SaveManager.</text>
<text text-anchor="middle" x="255.5" y="-7.5" font-family="Helvetica,sans-Serif" font-size="10.00">SaveGameDatas</text>
</a>
</g>
</g>
<!-- Node1&#45;&gt;Node4 -->
<g id="edge3" class="edge">
<title>Node1&#45;&gt;Node4</title>
<path fill="none" stroke="midnightblue" d="M124.53,-49.47C144.33,-44.29 166.67,-38.45 187.18,-33.09"/>
<polygon fill="midnightblue" stroke="midnightblue" points="188.29,-36.42 197.08,-30.51 186.52,-29.65 188.29,-36.42"/>
</g>
</g>
</svg>
