<?xml version="1.0" encoding="UTF-8" standalone="no"?>
<!DOCTYPE svg PUBLIC "-//W3C//DTD SVG 1.1//EN"
 "http://www.w3.org/Graphics/SVG/1.1/DTD/svg11.dtd">
<!-- Generated by graphviz version 2.50.0 (20211204.2007)
 -->
<!-- Title: UI.MainMenu.SelectNextLevel Pages: 1 -->
<svg width="549pt" height="28pt"
 viewBox="0.00 0.00 549.00 28.00" xmlns="http://www.w3.org/2000/svg" xmlns:xlink="http://www.w3.org/1999/xlink">
<g id="graph0" class="graph" transform="scale(1 1) rotate(0) translate(4 24)">
<title>UI.MainMenu.SelectNextLevel</title>
<polygon fill="white" stroke="transparent" points="-4,4 -4,-24 545,-24 545,4 -4,4"/>
<!-- Node1 -->
<g id="node1" class="node">
<title>Node1</title>
<g id="a_node1"><a xlink:title="Select next available level.">
<polygon fill="#bfbfbf" stroke="black" points="0,-0.5 0,-19.5 146,-19.5 146,-0.5 0,-0.5"/>
<text text-anchor="middle" x="73" y="-7.5" font-family="Helvetica,sans-Serif" font-size="10.00">UI.MainMenu.SelectNextLevel</text>
</a>
</g>
</g>
<!-- Node2 -->
<g id="node2" class="node">
<title>Node2</title>
<g id="a_node2"><a xlink:href="class_u_i_1_1_main_menu.html#a50f7b825e00d9deb58342c47dbe45bcc" target="_top" xlink:title="Update the level preview according to the selected Level.">
<polygon fill="white" stroke="black" points="182,-0.5 182,-19.5 344,-19.5 344,-0.5 182,-0.5"/>
<text text-anchor="middle" x="263" y="-7.5" font-family="Helvetica,sans-Serif" font-size="10.00">UI.MainMenu.UpdateLevelPreview</text>
</a>
</g>
</g>
<!-- Node1&#45;&gt;Node2 -->
<g id="edge1" class="edge">
<title>Node1&#45;&gt;Node2</title>
<path fill="none" stroke="midnightblue" d="M146.15,-10C154.56,-10 163.22,-10 171.83,-10"/>
<polygon fill="midnightblue" stroke="midnightblue" points="171.9,-13.5 181.9,-10 171.9,-6.5 171.9,-13.5"/>
</g>
<!-- Node3 -->
<g id="node3" class="node">
<title>Node3</title>
<g id="a_node3"><a xlink:href="class_u_i_1_1_main_menu.html#aa3edc69981c19a68572c0c8323f02c7c" target="_top" xlink:title="Update the selected bar according to the selected Level.">
<polygon fill="white" stroke="black" points="380,-0.5 380,-19.5 541,-19.5 541,-0.5 380,-0.5"/>
<text text-anchor="middle" x="460.5" y="-7.5" font-family="Helvetica,sans-Serif" font-size="10.00">UI.MainMenu.UpdateProgressBar</text>
</a>
</g>
</g>
<!-- Node2&#45;&gt;Node3 -->
<g id="edge2" class="edge">
<title>Node2&#45;&gt;Node3</title>
<path fill="none" stroke="midnightblue" d="M344.08,-10C352.57,-10 361.24,-10 369.83,-10"/>
<polygon fill="midnightblue" stroke="midnightblue" points="369.86,-13.5 379.86,-10 369.86,-6.5 369.86,-13.5"/>
</g>
</g>
</svg>
