<?xml version="1.0" encoding="UTF-8" standalone="no"?>
<!DOCTYPE svg PUBLIC "-//W3C//DTD SVG 1.1//EN"
 "http://www.w3.org/Graphics/SVG/1.1/DTD/svg11.dtd">
<!-- Generated by graphviz version 2.50.0 (20211204.2007)
 -->
<!-- Title: Gameplay.Levels.Level.Start Pages: 1 -->
<svg width="1156pt" height="448pt"
 viewBox="0.00 0.00 1156.00 448.32" xmlns="http://www.w3.org/2000/svg" xmlns:xlink="http://www.w3.org/1999/xlink">
<g id="graph0" class="graph" transform="scale(1 1) rotate(0) translate(4 444.32)">
<title>Gameplay.Levels.Level.Start</title>
<polygon fill="white" stroke="transparent" points="-4,4 -4,-444.32 1152,-444.32 1152,4 -4,4"/>
<!-- Node1 -->
<g id="node1" class="node">
<title>Node1</title>
<g id="a_node1"><a xlink:title=" ">
<polygon fill="#bfbfbf" stroke="black" points="0,-118 0,-137 140,-137 140,-118 0,-118"/>
<text text-anchor="middle" x="70" y="-125" font-family="Helvetica,sans-Serif" font-size="10.00">Gameplay.Levels.Level.Start</text>
</a>
</g>
</g>
<!-- Node2 -->
<g id="node2" class="node">
<title>Node2</title>
<g id="a_node2"><a xlink:href="class_gameplay_1_1_levels_1_1_level.html#aa20e112e1769f3b7e67d69b519aa276e" target="_top" xlink:title="Initialize the objects of the level + update HUD.">
<polygon fill="white" stroke="black" points="178,-205 178,-224 309,-224 309,-205 178,-205"/>
<text text-anchor="middle" x="243.5" y="-212" font-family="Helvetica,sans-Serif" font-size="10.00">Gameplay.Levels.Level.Init</text>
</a>
</g>
</g>
<!-- Node1&#45;&gt;Node2 -->
<g id="edge1" class="edge">
<title>Node1&#45;&gt;Node2</title>
<path fill="none" stroke="midnightblue" d="M90.01,-137.14C120.22,-152.47 179.36,-182.47 214.45,-200.27"/>
<polygon fill="midnightblue" stroke="midnightblue" points="213.17,-203.54 223.67,-204.95 216.33,-197.3 213.17,-203.54"/>
</g>
<!-- Node15 -->
<g id="node15" class="node">
<title>Node15</title>
<g id="a_node15"><a xlink:href="class_framework_1_1_managers_1_1_level_manager.html#a5f4b6de0cbfad1592b3612c75bd23179" target="_top" xlink:title="Update and save the data to the persistant data file.">
<polygon fill="white" stroke="black" points="176,-90.5 176,-120.5 311,-120.5 311,-90.5 176,-90.5"/>
<text text-anchor="start" x="184" y="-108.5" font-family="Helvetica,sans-Serif" font-size="10.00">Framework.Managers.Level</text>
<text text-anchor="middle" x="243.5" y="-97.5" font-family="Helvetica,sans-Serif" font-size="10.00">Manager.UpdateDatas</text>
</a>
</g>
</g>
<!-- Node1&#45;&gt;Node15 -->
<g id="edge19" class="edge">
<title>Node1&#45;&gt;Node15</title>
<path fill="none" stroke="midnightblue" d="M140.26,-118.62C148.68,-117.54 157.32,-116.43 165.84,-115.33"/>
<polygon fill="midnightblue" stroke="midnightblue" points="166.29,-118.81 175.76,-114.06 165.4,-111.86 166.29,-118.81"/>
</g>
<!-- Node3 -->
<g id="node3" class="node">
<title>Node3</title>
<g id="a_node3"><a xlink:href="class_framework_1_1_managers_1_1_skin_manager.html#a6819b95b9c68604c6fad307950a4a916" target="_top" xlink:title="Get the animation of the skin.">
<polygon fill="white" stroke="black" points="348,-273.5 348,-303.5 521,-303.5 521,-273.5 348,-273.5"/>
<text text-anchor="start" x="356" y="-291.5" font-family="Helvetica,sans-Serif" font-size="10.00">Framework.Managers.SkinManager.</text>
<text text-anchor="middle" x="434.5" y="-280.5" font-family="Helvetica,sans-Serif" font-size="10.00">GetAnimatorCharacter</text>
</a>
</g>
</g>
<!-- Node2&#45;&gt;Node3 -->
<g id="edge2" class="edge">
<title>Node2&#45;&gt;Node3</title>
<path fill="none" stroke="midnightblue" d="M262.25,-224.09C282.39,-234.71 316.4,-251.85 347,-263.5 353.28,-265.89 359.89,-268.18 366.55,-270.34"/>
<polygon fill="midnightblue" stroke="midnightblue" points="365.7,-273.75 376.29,-273.41 367.81,-267.07 365.7,-273.75"/>
</g>
<!-- Node4 -->
<g id="node4" class="node">
<title>Node4</title>
<g id="a_node4"><a xlink:href="class_framework_1_1_managers_1_1_skin_manager.html#aff79dbc75d78decfee3676b036988823" target="_top" xlink:title="Get the sprite of the &quot;level progression bar&quot; of the skin">
<polygon fill="white" stroke="black" points="348,-224.5 348,-254.5 521,-254.5 521,-224.5 348,-224.5"/>
<text text-anchor="start" x="356" y="-242.5" font-family="Helvetica,sans-Serif" font-size="10.00">Framework.Managers.SkinManager.</text>
<text text-anchor="middle" x="434.5" y="-231.5" font-family="Helvetica,sans-Serif" font-size="10.00">GetSpriteProgression</text>
</a>
</g>
</g>
<!-- Node2&#45;&gt;Node4 -->
<g id="edge3" class="edge">
<title>Node2&#45;&gt;Node4</title>
<path fill="none" stroke="midnightblue" d="M309.01,-223.03C318.3,-224.26 328.02,-225.55 337.75,-226.83"/>
<polygon fill="midnightblue" stroke="midnightblue" points="337.51,-230.33 347.89,-228.18 338.43,-223.39 337.51,-230.33"/>
</g>
<!-- Node5 -->
<g id="node5" class="node">
<title>Node5</title>
<g id="a_node5"><a xlink:href="class_gameplay_1_1_levels_1_1_level.html#ad33d985fb8c073990980602d1d52914c" target="_top" xlink:title="Load the scene &quot;Main Menu&quot;.">
<polygon fill="white" stroke="black" points="369,-175.5 369,-205.5 500,-205.5 500,-175.5 369,-175.5"/>
<text text-anchor="start" x="377" y="-193.5" font-family="Helvetica,sans-Serif" font-size="10.00">Gameplay.Levels.Level.Go</text>
<text text-anchor="middle" x="434.5" y="-182.5" font-family="Helvetica,sans-Serif" font-size="10.00">ToMainMenu</text>
</a>
</g>
</g>
<!-- Node2&#45;&gt;Node5 -->
<g id="edge4" class="edge">
<title>Node2&#45;&gt;Node5</title>
<path fill="none" stroke="midnightblue" d="M309.01,-206.31C325.04,-204.27 342.36,-202.07 358.83,-199.98"/>
<polygon fill="midnightblue" stroke="midnightblue" points="359.48,-203.43 368.96,-198.7 358.59,-196.48 359.48,-203.43"/>
</g>
<!-- Node6 -->
<g id="node6" class="node">
<title>Node6</title>
<g id="a_node6"><a xlink:href="class_gameplay_1_1_levels_1_1_level.html#a1edabea1d6571656727ced8c7ada4571" target="_top" xlink:title="Action triggered after the die animation ended.">
<polygon fill="white" stroke="black" points="576,-126.5 576,-156.5 707,-156.5 707,-126.5 576,-126.5"/>
<text text-anchor="start" x="584" y="-144.5" font-family="Helvetica,sans-Serif" font-size="10.00">Gameplay.Levels.Level.On</text>
<text text-anchor="middle" x="641.5" y="-133.5" font-family="Helvetica,sans-Serif" font-size="10.00">AfterDie</text>
</a>
</g>
</g>
<!-- Node2&#45;&gt;Node6 -->
<g id="edge5" class="edge">
<title>Node2&#45;&gt;Node6</title>
<path fill="none" stroke="midnightblue" d="M250.72,-204.8C264.81,-183.84 301.53,-134.74 347,-116.5 426.8,-84.49 528.39,-105.31 588.72,-123.38"/>
<polygon fill="midnightblue" stroke="midnightblue" points="587.81,-126.76 598.4,-126.36 589.87,-120.07 587.81,-126.76"/>
</g>
<!-- Node9 -->
<g id="node9" class="node">
<title>Node9</title>
<g id="a_node9"><a xlink:href="class_gameplay_1_1_levels_1_1_level.html#a6c33c44ecf4f79f1e7c83375109314d6" target="_top" xlink:title="Update the attempt HUD content.">
<polygon fill="white" stroke="black" points="763,-79.5 763,-109.5 912,-109.5 912,-79.5 763,-79.5"/>
<text text-anchor="start" x="771" y="-97.5" font-family="Helvetica,sans-Serif" font-size="10.00">Gameplay.Levels.Level.Update</text>
<text text-anchor="middle" x="837.5" y="-86.5" font-family="Helvetica,sans-Serif" font-size="10.00">HudAttempt</text>
</a>
</g>
</g>
<!-- Node2&#45;&gt;Node9 -->
<g id="edge16" class="edge">
<title>Node2&#45;&gt;Node9</title>
<path fill="none" stroke="midnightblue" d="M252.29,-204.63C273.95,-177.32 334.11,-102.41 347,-96.5 484.43,-33.5 667.22,-57.09 765.98,-77.35"/>
<polygon fill="midnightblue" stroke="midnightblue" points="765.35,-80.79 775.85,-79.42 766.78,-73.94 765.35,-80.79"/>
</g>
<!-- Node10 -->
<g id="node10" class="node">
<title>Node10</title>
<g id="a_node10"><a xlink:href="class_gameplay_1_1_levels_1_1_level.html#a24d473e1589e1ea464c59f7502a90919" target="_top" xlink:title="Update the coins HUD content.">
<polygon fill="white" stroke="black" points="763,-219.5 763,-249.5 912,-249.5 912,-219.5 763,-219.5"/>
<text text-anchor="start" x="771" y="-237.5" font-family="Helvetica,sans-Serif" font-size="10.00">Gameplay.Levels.Level.Update</text>
<text text-anchor="middle" x="837.5" y="-226.5" font-family="Helvetica,sans-Serif" font-size="10.00">HudCoins</text>
</a>
</g>
</g>
<!-- Node2&#45;&gt;Node10 -->
<g id="edge17" class="edge">
<title>Node2&#45;&gt;Node10</title>
<path fill="none" stroke="midnightblue" d="M246.01,-224.26C251.78,-257.75 275.81,-368.29 347,-411.5 511.02,-511.05 739.68,-323.73 812.93,-256.9"/>
<polygon fill="midnightblue" stroke="midnightblue" points="815.72,-259.09 820.7,-249.73 810.98,-253.94 815.72,-259.09"/>
</g>
<!-- Node11 -->
<g id="node11" class="node">
<title>Node11</title>
<g id="a_node11"><a xlink:href="class_gameplay_1_1_levels_1_1_level.html#afe3c32025f38a8662c604500a30d2c78" target="_top" xlink:title="Action triggered when the pause menu is opened or closed.">
<polygon fill="white" stroke="black" points="369,-371.5 369,-401.5 500,-401.5 500,-371.5 369,-371.5"/>
<text text-anchor="start" x="377" y="-389.5" font-family="Helvetica,sans-Serif" font-size="10.00">Gameplay.Levels.Level.On</text>
<text text-anchor="middle" x="434.5" y="-378.5" font-family="Helvetica,sans-Serif" font-size="10.00">PauseStateChange</text>
</a>
</g>
</g>
<!-- Node2&#45;&gt;Node11 -->
<g id="edge10" class="edge">
<title>Node2&#45;&gt;Node11</title>
<path fill="none" stroke="midnightblue" d="M248.37,-224.19C259.46,-250.67 294.01,-324.84 347,-362.5 350.92,-365.29 355.16,-367.75 359.57,-369.93"/>
<polygon fill="midnightblue" stroke="midnightblue" points="358.28,-373.19 368.84,-374.01 361.1,-366.78 358.28,-373.19"/>
</g>
<!-- Node12 -->
<g id="node12" class="node">
<title>Node12</title>
<g id="a_node12"><a xlink:href="class_gameplay_1_1_levels_1_1_level.html#a7dfa35e881994e49851251ba993e9e01" target="_top" xlink:title="Action triggered when restarting the level.">
<polygon fill="white" stroke="black" points="369,-126.5 369,-156.5 500,-156.5 500,-126.5 369,-126.5"/>
<text text-anchor="start" x="377" y="-144.5" font-family="Helvetica,sans-Serif" font-size="10.00">Gameplay.Levels.Level.On</text>
<text text-anchor="middle" x="434.5" y="-133.5" font-family="Helvetica,sans-Serif" font-size="10.00">Restart</text>
</a>
</g>
</g>
<!-- Node2&#45;&gt;Node12 -->
<g id="edge11" class="edge">
<title>Node2&#45;&gt;Node12</title>
<path fill="none" stroke="midnightblue" d="M262.23,-204.85C282.34,-194.18 316.34,-176.98 347,-165.5 352.52,-163.43 358.29,-161.46 364.12,-159.58"/>
<polygon fill="midnightblue" stroke="midnightblue" points="365.45,-162.84 373.96,-156.53 363.38,-156.15 365.45,-162.84"/>
</g>
<!-- Node14 -->
<g id="node14" class="node">
<title>Node14</title>
<g id="a_node14"><a xlink:href="class_gameplay_1_1_levels_1_1_level.html#a19cf4514d8ce49ad612beb226c7b27e4" target="_top" xlink:title="Update the progression HUD content.">
<polygon fill="white" stroke="black" points="360,-322.5 360,-352.5 509,-352.5 509,-322.5 360,-322.5"/>
<text text-anchor="start" x="368" y="-340.5" font-family="Helvetica,sans-Serif" font-size="10.00">Gameplay.Levels.Level.Update</text>
<text text-anchor="middle" x="434.5" y="-329.5" font-family="Helvetica,sans-Serif" font-size="10.00">HudProgression</text>
</a>
</g>
</g>
<!-- Node2&#45;&gt;Node14 -->
<g id="edge18" class="edge">
<title>Node2&#45;&gt;Node14</title>
<path fill="none" stroke="midnightblue" d="M251.81,-224.3C267.18,-244.19 304.9,-289.43 347,-313.5 350.07,-315.25 353.27,-316.89 356.57,-318.4"/>
<polygon fill="midnightblue" stroke="midnightblue" points="355.46,-321.74 366.04,-322.39 358.17,-315.28 355.46,-321.74"/>
</g>
<!-- Node7 -->
<g id="node7" class="node">
<title>Node7</title>
<g id="a_node7"><a xlink:href="class_gameplay_1_1_levels_1_1_level.html#aa1a1ee14dac00df7cbd411f2e078e092" target="_top" xlink:title="Remove the active modifier and its effects.">
<polygon fill="white" stroke="black" points="761,-128.5 761,-158.5 914,-158.5 914,-128.5 761,-128.5"/>
<text text-anchor="start" x="769" y="-146.5" font-family="Helvetica,sans-Serif" font-size="10.00">Gameplay.Levels.Level.Remove</text>
<text text-anchor="middle" x="837.5" y="-135.5" font-family="Helvetica,sans-Serif" font-size="10.00">ModifierEffect</text>
</a>
</g>
</g>
<!-- Node6&#45;&gt;Node7 -->
<g id="edge6" class="edge">
<title>Node6&#45;&gt;Node7</title>
<path fill="none" stroke="midnightblue" d="M707.1,-142.17C721.07,-142.31 736.05,-142.46 750.69,-142.62"/>
<polygon fill="midnightblue" stroke="midnightblue" points="750.72,-146.12 760.76,-142.72 750.79,-139.12 750.72,-146.12"/>
</g>
<!-- Node6&#45;&gt;Node9 -->
<g id="edge8" class="edge">
<title>Node6&#45;&gt;Node9</title>
<path fill="none" stroke="midnightblue" d="M704.42,-126.5C723.58,-121.86 744.85,-116.7 764.63,-111.91"/>
<polygon fill="midnightblue" stroke="midnightblue" points="765.61,-115.28 774.51,-109.52 763.96,-108.47 765.61,-115.28"/>
</g>
<!-- Node6&#45;&gt;Node10 -->
<g id="edge9" class="edge">
<title>Node6&#45;&gt;Node10</title>
<path fill="none" stroke="midnightblue" d="M701.79,-156.63C709.72,-159.26 717.64,-162.23 725,-165.5 754.61,-178.68 785.78,-198.54 807.61,-213.58"/>
<polygon fill="midnightblue" stroke="midnightblue" points="805.87,-216.63 816.07,-219.49 809.87,-210.89 805.87,-216.63"/>
</g>
<!-- Node8 -->
<g id="node8" class="node">
<title>Node8</title>
<g id="a_node8"><a xlink:href="class_gameplay_1_1_actors_1_1_player_controller.html#ac9c55df7e99ebcfef9b303ef9eb78453" target="_top" xlink:title="Removes the current modifier effect (does nothing if the player doesn&#39;t have any modifiers)">
<polygon fill="white" stroke="black" points="950,-128.5 950,-158.5 1148,-158.5 1148,-128.5 950,-128.5"/>
<text text-anchor="start" x="958" y="-146.5" font-family="Helvetica,sans-Serif" font-size="10.00">Gameplay.Actors.PlayerController.remove</text>
<text text-anchor="middle" x="1049" y="-135.5" font-family="Helvetica,sans-Serif" font-size="10.00">ModifierEffect</text>
</a>
</g>
</g>
<!-- Node7&#45;&gt;Node8 -->
<g id="edge7" class="edge">
<title>Node7&#45;&gt;Node8</title>
<path fill="none" stroke="midnightblue" d="M914.13,-143.5C922.47,-143.5 931.08,-143.5 939.72,-143.5"/>
<polygon fill="midnightblue" stroke="midnightblue" points="939.86,-147 949.86,-143.5 939.86,-140 939.86,-147"/>
</g>
<!-- Node12&#45;&gt;Node6 -->
<g id="edge12" class="edge">
<title>Node12&#45;&gt;Node6</title>
<path fill="none" stroke="midnightblue" d="M500.08,-141.5C520.95,-141.5 544.27,-141.5 565.81,-141.5"/>
<polygon fill="midnightblue" stroke="midnightblue" points="565.89,-145 575.89,-141.5 565.89,-138 565.89,-145"/>
</g>
<!-- Node12&#45;&gt;Node9 -->
<g id="edge14" class="edge">
<title>Node12&#45;&gt;Node9</title>
<path fill="none" stroke="midnightblue" d="M500.09,-126.78C518.7,-122.95 539.09,-119.17 558,-116.5 623.11,-107.32 697.35,-101.69 752.81,-98.43"/>
<polygon fill="midnightblue" stroke="midnightblue" points="753.15,-101.92 762.94,-97.85 752.75,-94.93 753.15,-101.92"/>
</g>
<!-- Node12&#45;&gt;Node10 -->
<g id="edge15" class="edge">
<title>Node12&#45;&gt;Node10</title>
<path fill="none" stroke="midnightblue" d="M500.04,-154.16C507.8,-157.18 515.33,-160.9 522,-165.5 544.24,-180.85 534.34,-201.44 558,-214.5 617.15,-247.15 694.45,-250.18 752.6,-246.16"/>
<polygon fill="midnightblue" stroke="midnightblue" points="753.16,-249.63 762.86,-245.36 752.62,-242.65 753.16,-249.63"/>
</g>
<!-- Node13 -->
<g id="node13" class="node">
<title>Node13</title>
<g id="a_node13"><a xlink:href="class_gameplay_1_1_actors_1_1_player_controller.html#a746a8a7dcd6b76e69d911fd720a3bc54" target="_top" xlink:title="Resets the player animation">
<polygon fill="white" stroke="black" points="558,-175.5 558,-205.5 725,-205.5 725,-175.5 558,-175.5"/>
<text text-anchor="start" x="566" y="-193.5" font-family="Helvetica,sans-Serif" font-size="10.00">Gameplay.Actors.PlayerController.</text>
<text text-anchor="middle" x="641.5" y="-182.5" font-family="Helvetica,sans-Serif" font-size="10.00">RestartAnimation</text>
</a>
</g>
</g>
<!-- Node12&#45;&gt;Node13 -->
<g id="edge13" class="edge">
<title>Node12&#45;&gt;Node13</title>
<path fill="none" stroke="midnightblue" d="M498.4,-156.53C520.34,-161.78 545.14,-167.71 567.81,-173.13"/>
<polygon fill="midnightblue" stroke="midnightblue" points="567.18,-176.57 577.72,-175.49 568.81,-169.76 567.18,-176.57"/>
</g>
<!-- Node16 -->
<g id="node16" class="node">
<title>Node16</title>
<g id="a_node16"><a xlink:href="class_framework_1_1_managers_1_1_save_manager.html#aa6a2ce7caf04e2f52410bd37e0b764ee" target="_top" xlink:title="Save game datas to file system.">
<polygon fill="white" stroke="black" points="347,-0.5 347,-30.5 522,-30.5 522,-0.5 347,-0.5"/>
<text text-anchor="start" x="355" y="-18.5" font-family="Helvetica,sans-Serif" font-size="10.00">Framework.Managers.SaveManager.</text>
<text text-anchor="middle" x="434.5" y="-7.5" font-family="Helvetica,sans-Serif" font-size="10.00">SaveGameDatas</text>
</a>
</g>
</g>
<!-- Node15&#45;&gt;Node16 -->
<g id="edge20" class="edge">
<title>Node15&#45;&gt;Node16</title>
<path fill="none" stroke="midnightblue" d="M267.41,-90.33C287.74,-77.31 318.53,-58.61 347,-45.5 355.99,-41.36 365.72,-37.46 375.3,-33.93"/>
<polygon fill="midnightblue" stroke="midnightblue" points="376.57,-37.19 384.8,-30.52 374.2,-30.6 376.57,-37.19"/>
</g>
</g>
</svg>
