<?xml version="1.0" encoding="UTF-8" standalone="no"?>
<!DOCTYPE svg PUBLIC "-//W3C//DTD SVG 1.1//EN"
 "http://www.w3.org/Graphics/SVG/1.1/DTD/svg11.dtd">
<!-- Generated by graphviz version 2.50.0 (20211204.2007)
 -->
<!-- Title: Gameplay.Actors.PlayerController.FixedUpdate Pages: 1 -->
<svg width="792pt" height="137pt"
 viewBox="0.00 0.00 792.00 137.00" xmlns="http://www.w3.org/2000/svg" xmlns:xlink="http://www.w3.org/1999/xlink">
<g id="graph0" class="graph" transform="scale(1 1) rotate(0) translate(4 133)">
<title>Gameplay.Actors.PlayerController.FixedUpdate</title>
<polygon fill="white" stroke="transparent" points="-4,4 -4,-133 788,-133 788,4 -4,4"/>
<!-- Node1 -->
<g id="node1" class="node">
<title>Node1</title>
<g id="a_node1"><a xlink:title=" ">
<polygon fill="#bfbfbf" stroke="black" points="0,-73.5 0,-103.5 167,-103.5 167,-73.5 0,-73.5"/>
<text text-anchor="start" x="8" y="-91.5" font-family="Helvetica,sans-Serif" font-size="10.00">Gameplay.Actors.PlayerController.</text>
<text text-anchor="middle" x="83.5" y="-80.5" font-family="Helvetica,sans-Serif" font-size="10.00">FixedUpdate</text>
</a>
</g>
</g>
<!-- Node2 -->
<g id="node2" class="node">
<title>Node2</title>
<g id="a_node2"><a xlink:href="class_gameplay_1_1_actors_1_1_player_controller.html#a52d3180de23e5b05c18aebf6246e54cd" target="_top" xlink:title="Called when the player finishes the level">
<polygon fill="white" stroke="black" points="203,-98.5 203,-128.5 370,-128.5 370,-98.5 203,-98.5"/>
<text text-anchor="start" x="211" y="-116.5" font-family="Helvetica,sans-Serif" font-size="10.00">Gameplay.Actors.PlayerController.</text>
<text text-anchor="middle" x="286.5" y="-105.5" font-family="Helvetica,sans-Serif" font-size="10.00">EndLevelUpdate</text>
</a>
</g>
</g>
<!-- Node1&#45;&gt;Node2 -->
<g id="edge1" class="edge">
<title>Node1&#45;&gt;Node2</title>
<path fill="none" stroke="midnightblue" d="M167.12,-98.78C175.61,-99.83 184.27,-100.91 192.85,-101.98"/>
<polygon fill="midnightblue" stroke="midnightblue" points="192.52,-105.46 202.87,-103.22 193.38,-98.52 192.52,-105.46"/>
</g>
<!-- Node5 -->
<g id="node5" class="node">
<title>Node5</title>
<g id="a_node5"><a xlink:href="class_gameplay_1_1_actors_1_1_player_controller.html#a67f38427074c6f67d460487798c8c914" target="_top" xlink:title="Function called every frame as long as the player should move">
<polygon fill="white" stroke="black" points="203,-49.5 203,-79.5 370,-79.5 370,-49.5 203,-49.5"/>
<text text-anchor="start" x="211" y="-67.5" font-family="Helvetica,sans-Serif" font-size="10.00">Gameplay.Actors.PlayerController.</text>
<text text-anchor="middle" x="286.5" y="-56.5" font-family="Helvetica,sans-Serif" font-size="10.00">RunUpdate</text>
</a>
</g>
</g>
<!-- Node1&#45;&gt;Node5 -->
<g id="edge4" class="edge">
<title>Node1&#45;&gt;Node5</title>
<path fill="none" stroke="midnightblue" d="M167.12,-78.63C175.61,-77.62 184.27,-76.59 192.85,-75.56"/>
<polygon fill="midnightblue" stroke="midnightblue" points="193.36,-79.03 202.87,-74.37 192.53,-72.08 193.36,-79.03"/>
</g>
<!-- Node3 -->
<g id="node3" class="node">
<title>Node3</title>
<g id="a_node3"><a xlink:href="class_gameplay_1_1_actors_1_1_player_controller.html#a50d1ab7694d73b9da08045fe23365346" target="_top" xlink:title="Returns true if the player is on the ground">
<polygon fill="white" stroke="black" points="406,-98.5 406,-128.5 581,-128.5 581,-98.5 406,-98.5"/>
<text text-anchor="start" x="414" y="-116.5" font-family="Helvetica,sans-Serif" font-size="10.00">Gameplay.Actors.PlayerController.is</text>
<text text-anchor="middle" x="493.5" y="-105.5" font-family="Helvetica,sans-Serif" font-size="10.00">OnGround</text>
</a>
</g>
</g>
<!-- Node2&#45;&gt;Node3 -->
<g id="edge2" class="edge">
<title>Node2&#45;&gt;Node3</title>
<path fill="none" stroke="midnightblue" d="M370.29,-113.5C378.59,-113.5 387.06,-113.5 395.48,-113.5"/>
<polygon fill="midnightblue" stroke="midnightblue" points="395.72,-117 405.72,-113.5 395.72,-110 395.72,-117"/>
</g>
<!-- Node4 -->
<g id="node4" class="node">
<title>Node4</title>
<g id="a_node4"><a xlink:href="class_gameplay_1_1_actors_1_1_player_controller.html#a260e5621b6544ef69a9c2830941d28a0" target="_top" xlink:title="Return true if the player currently has a shield">
<polygon fill="white" stroke="black" points="617,-98.5 617,-128.5 784,-128.5 784,-98.5 617,-98.5"/>
<text text-anchor="start" x="625" y="-116.5" font-family="Helvetica,sans-Serif" font-size="10.00">Gameplay.Actors.PlayerController.</text>
<text text-anchor="middle" x="700.5" y="-105.5" font-family="Helvetica,sans-Serif" font-size="10.00">HasShield</text>
</a>
</g>
</g>
<!-- Node3&#45;&gt;Node4 -->
<g id="edge3" class="edge">
<title>Node3&#45;&gt;Node4</title>
<path fill="none" stroke="midnightblue" d="M581.14,-113.5C589.53,-113.5 598.07,-113.5 606.52,-113.5"/>
<polygon fill="midnightblue" stroke="midnightblue" points="606.76,-117 616.76,-113.5 606.76,-110 606.76,-117"/>
</g>
<!-- Node5&#45;&gt;Node3 -->
<g id="edge6" class="edge">
<title>Node5&#45;&gt;Node3</title>
<path fill="none" stroke="midnightblue" d="M350.4,-79.53C372.34,-84.78 397.14,-90.71 419.81,-96.13"/>
<polygon fill="midnightblue" stroke="midnightblue" points="419.18,-99.57 429.72,-98.49 420.81,-92.76 419.18,-99.57"/>
</g>
<!-- Node6 -->
<g id="node6" class="node">
<title>Node6</title>
<g id="a_node6"><a xlink:href="class_gameplay_1_1_actors_1_1_player_controller.html#a5ac8f6cfda1a9064b6bf87c47a84423d" target="_top" xlink:title="Gets a value that is multiplied to the speed, ex: 2.0 means that the player sould go two times as fas...">
<polygon fill="white" stroke="black" points="410,-49.5 410,-79.5 577,-79.5 577,-49.5 410,-49.5"/>
<text text-anchor="start" x="418" y="-67.5" font-family="Helvetica,sans-Serif" font-size="10.00">Gameplay.Actors.PlayerController.</text>
<text text-anchor="middle" x="493.5" y="-56.5" font-family="Helvetica,sans-Serif" font-size="10.00">GetSpeedMultiplier</text>
</a>
</g>
</g>
<!-- Node5&#45;&gt;Node6 -->
<g id="edge5" class="edge">
<title>Node5&#45;&gt;Node6</title>
<path fill="none" stroke="midnightblue" d="M370.29,-64.5C379.94,-64.5 389.83,-64.5 399.61,-64.5"/>
<polygon fill="midnightblue" stroke="midnightblue" points="399.73,-68 409.73,-64.5 399.73,-61 399.73,-68"/>
</g>
<!-- Node7 -->
<g id="node7" class="node">
<title>Node7</title>
<g id="a_node7"><a xlink:href="class_gameplay_1_1_actors_1_1_player_controller.html#a59c054f72769ee094735f99215c8a50b" target="_top" xlink:title="Toggle the value of nextWalkClip between ClipOnWalk1 and ClipOnWalk2">
<polygon fill="white" stroke="black" points="410,-0.5 410,-30.5 577,-30.5 577,-0.5 410,-0.5"/>
<text text-anchor="start" x="418" y="-18.5" font-family="Helvetica,sans-Serif" font-size="10.00">Gameplay.Actors.PlayerController.</text>
<text text-anchor="middle" x="493.5" y="-7.5" font-family="Helvetica,sans-Serif" font-size="10.00">ToggleNextWalkClip</text>
</a>
</g>
</g>
<!-- Node5&#45;&gt;Node7 -->
<g id="edge7" class="edge">
<title>Node5&#45;&gt;Node7</title>
<path fill="none" stroke="midnightblue" d="M350.4,-49.47C372.34,-44.22 397.14,-38.29 419.81,-32.87"/>
<polygon fill="midnightblue" stroke="midnightblue" points="420.81,-36.24 429.72,-30.51 419.18,-29.43 420.81,-36.24"/>
</g>
</g>
</svg>
