<?xml version="1.0" encoding="UTF-8" standalone="no"?>
<!DOCTYPE svg PUBLIC "-//W3C//DTD SVG 1.1//EN"
 "http://www.w3.org/Graphics/SVG/1.1/DTD/svg11.dtd">
<!-- Generated by graphviz version 2.50.0 (20211204.2007)
 -->
<!-- Title: Framework.UI.SkinInShop Pages: 1 -->
<svg width="255pt" height="152pt"
 viewBox="0.00 0.00 254.50 152.00" xmlns="http://www.w3.org/2000/svg" xmlns:xlink="http://www.w3.org/1999/xlink">
<g id="graph0" class="graph" transform="scale(1 1) rotate(0) translate(4 148)">
<title>Framework.UI.SkinInShop</title>
<polygon fill="white" stroke="transparent" points="-4,4 -4,-148 250.5,-148 250.5,4 -4,4"/>
<!-- Node1 -->
<g id="node1" class="node">
<title>Node1</title>
<g id="a_node1"><a xlink:title=" ">
<polygon fill="#bfbfbf" stroke="black" points="0,-0.5 0,-19.5 129,-19.5 129,-0.5 0,-0.5"/>
<text text-anchor="middle" x="64.5" y="-7.5" font-family="Helvetica,sans-Serif" font-size="10.00">Framework.UI.SkinInShop</text>
</a>
</g>
</g>
<!-- Node2 -->
<g id="node2" class="node">
<title>Node2</title>
<g id="a_node2"><a xlink:title=" ">
<polygon fill="white" stroke="black" points="19,-124.5 19,-143.5 102,-143.5 102,-124.5 19,-124.5"/>
<text text-anchor="middle" x="60.5" y="-131.5" font-family="Helvetica,sans-Serif" font-size="10.00">MonoBehaviour</text>
</a>
</g>
</g>
<!-- Node2&#45;&gt;Node1 -->
<g id="edge1" class="edge">
<title>Node2&#45;&gt;Node1</title>
<path fill="none" stroke="midnightblue" d="M61.12,-114.19C62,-87.4 63.57,-39.31 64.21,-19.69"/>
<polygon fill="midnightblue" stroke="midnightblue" points="57.62,-114.12 60.79,-124.23 64.61,-114.35 57.62,-114.12"/>
</g>
<!-- Node3 -->
<g id="node3" class="node">
<title>Node3</title>
<g id="a_node3"><a xlink:href="class_framework_1_1_managers_1_1_skin_manager.html" target="_top" xlink:title="This class is a manager for the skin, it regroups each sprites, animations, etc. per skin....">
<polygon fill="white" stroke="black" points="76.5,-67.5 76.5,-86.5 246.5,-86.5 246.5,-67.5 76.5,-67.5"/>
<text text-anchor="middle" x="161.5" y="-74.5" font-family="Helvetica,sans-Serif" font-size="10.00">Framework.Managers.SkinManager</text>
</a>
</g>
</g>
<!-- Node2&#45;&gt;Node3 -->
<g id="edge3" class="edge">
<title>Node2&#45;&gt;Node3</title>
<path fill="none" stroke="midnightblue" d="M85.23,-119.54C104.14,-109.24 129.64,-95.35 145.83,-86.53"/>
<polygon fill="midnightblue" stroke="midnightblue" points="83.39,-116.55 76.28,-124.41 86.74,-122.7 83.39,-116.55"/>
</g>
<!-- Node3&#45;&gt;Node1 -->
<g id="edge2" class="edge">
<title>Node3&#45;&gt;Node1</title>
<path fill="none" stroke="#9a32cd" stroke-dasharray="5,2" d="M140,-61.59C120.81,-48.74 93.35,-30.33 77.37,-19.63"/>
<polygon fill="#9a32cd" stroke="#9a32cd" points="138.16,-64.57 148.42,-67.23 142.06,-58.76 138.16,-64.57"/>
<text text-anchor="middle" x="140" y="-41" font-family="Helvetica,sans-Serif" font-size="10.00"> skinType</text>
</g>
</g>
</svg>
