<?xml version="1.0" encoding="UTF-8" standalone="no"?>
<!DOCTYPE svg PUBLIC "-//W3C//DTD SVG 1.1//EN"
 "http://www.w3.org/Graphics/SVG/1.1/DTD/svg11.dtd">
<!-- Generated by graphviz version 2.50.0 (20211204.2007)
 -->
<!-- Title: Gameplay.Collisions.NocivePlateformColliderController Pages: 1 -->
<svg width="347pt" height="297pt"
 viewBox="0.00 0.00 347.00 297.00" xmlns="http://www.w3.org/2000/svg" xmlns:xlink="http://www.w3.org/1999/xlink">
<g id="graph0" class="graph" transform="scale(1 1) rotate(0) translate(4 293)">
<title>Gameplay.Collisions.NocivePlateformColliderController</title>
<polygon fill="white" stroke="transparent" points="-4,4 -4,-293 343,-293 343,4 -4,4"/>
<!-- Node1 -->
<g id="node1" class="node">
<title>Node1</title>
<g id="a_node1"><a xlink:title="Class for controlling the comportement of a nocive plateform element object and the player during the...">
<polygon fill="#bfbfbf" stroke="black" points="129.5,-0.5 129.5,-30.5 266.5,-30.5 266.5,-0.5 129.5,-0.5"/>
<text text-anchor="start" x="137.5" y="-18.5" font-family="Helvetica,sans-Serif" font-size="10.00">Gameplay.Collisions.Nocive</text>
<text text-anchor="middle" x="198" y="-7.5" font-family="Helvetica,sans-Serif" font-size="10.00">PlateformColliderController</text>
</a>
</g>
</g>
<!-- Node2 -->
<g id="node2" class="node">
<title>Node2</title>
<g id="a_node2"><a xlink:href="class_gameplay_1_1_collisions_1_1_base_collider_controller.html" target="_top" xlink:title="Base class for controlling the comportement a collision occurs between two objects.">
<polygon fill="white" stroke="black" points="87.5,-68.5 87.5,-87.5 200.5,-87.5 200.5,-68.5 87.5,-68.5"/>
<text text-anchor="middle" x="144" y="-75.5" font-family="Helvetica,sans-Serif" font-size="10.00">BaseColliderController</text>
</a>
</g>
</g>
<!-- Node2&#45;&gt;Node1 -->
<g id="edge1" class="edge">
<title>Node2&#45;&gt;Node1</title>
<path fill="none" stroke="midnightblue" d="M158.44,-60.82C166.8,-51.46 177.22,-39.78 185.27,-30.76"/>
<polygon fill="midnightblue" stroke="midnightblue" points="155.78,-58.54 151.74,-68.33 161.01,-63.2 155.78,-58.54"/>
</g>
<!-- Node3 -->
<g id="node3" class="node">
<title>Node3</title>
<g id="a_node3"><a xlink:title=" ">
<polygon fill="white" stroke="black" points="51.5,-269.5 51.5,-288.5 134.5,-288.5 134.5,-269.5 51.5,-269.5"/>
<text text-anchor="middle" x="93" y="-276.5" font-family="Helvetica,sans-Serif" font-size="10.00">MonoBehaviour</text>
</a>
</g>
</g>
<!-- Node3&#45;&gt;Node2 -->
<g id="edge2" class="edge">
<title>Node3&#45;&gt;Node2</title>
<path fill="none" stroke="midnightblue" d="M105,-261.04C111.98,-250.34 120.29,-235.95 125,-222 141.5,-173.12 143.75,-110.31 144,-87.64"/>
<polygon fill="midnightblue" stroke="midnightblue" points="102.06,-259.15 99.35,-269.39 107.85,-263.08 102.06,-259.15"/>
</g>
<!-- Node4 -->
<g id="node4" class="node">
<title>Node4</title>
<g id="a_node4"><a xlink:href="class_gameplay_1_1_levels_1_1_level.html" target="_top" xlink:title="This class is the core of the played level, it retransmit the data to the player and perform action w...">
<polygon fill="white" stroke="black" points="0,-135.5 0,-154.5 116,-154.5 116,-135.5 0,-135.5"/>
<text text-anchor="middle" x="58" y="-142.5" font-family="Helvetica,sans-Serif" font-size="10.00">Gameplay.Levels.Level</text>
</a>
</g>
</g>
<!-- Node3&#45;&gt;Node4 -->
<g id="edge4" class="edge">
<title>Node3&#45;&gt;Node4</title>
<path fill="none" stroke="midnightblue" d="M67.58,-264.09C52.75,-254.43 35.37,-240.07 27,-222 15.86,-197.95 37.27,-168.73 49.82,-154.54"/>
<polygon fill="midnightblue" stroke="midnightblue" points="66.02,-267.24 76.38,-269.49 69.68,-261.28 66.02,-267.24"/>
</g>
<!-- Node5 -->
<g id="node5" class="node">
<title>Node5</title>
<g id="a_node5"><a xlink:href="class_gameplay_1_1_actors_1_1_player_controller.html" target="_top" xlink:title="This class is used by the player game object to control it (like physics)">
<polygon fill="white" stroke="black" points="172,-202.5 172,-221.5 336,-221.5 336,-202.5 172,-202.5"/>
<text text-anchor="middle" x="254" y="-209.5" font-family="Helvetica,sans-Serif" font-size="10.00">Gameplay.Actors.PlayerController</text>
</a>
</g>
</g>
<!-- Node3&#45;&gt;Node5 -->
<g id="edge6" class="edge">
<title>Node3&#45;&gt;Node5</title>
<path fill="none" stroke="midnightblue" d="M123.7,-265.6C155.67,-252.7 204.89,-232.83 232.79,-221.56"/>
<polygon fill="midnightblue" stroke="midnightblue" points="122.34,-262.38 114.38,-269.37 124.96,-268.87 122.34,-262.38"/>
</g>
<!-- Node7 -->
<g id="node7" class="node">
<title>Node7</title>
<g id="a_node7"><a xlink:href="class_u_i_1_1_pause_menu.html" target="_top" xlink:title="Class for the In Game pause menu">
<polygon fill="white" stroke="black" points="36,-202.5 36,-221.5 116,-221.5 116,-202.5 36,-202.5"/>
<text text-anchor="middle" x="76" y="-209.5" font-family="Helvetica,sans-Serif" font-size="10.00">UI.PauseMenu</text>
</a>
</g>
</g>
<!-- Node3&#45;&gt;Node7 -->
<g id="edge9" class="edge">
<title>Node3&#45;&gt;Node7</title>
<path fill="none" stroke="midnightblue" d="M88.14,-259.41C84.89,-246.99 80.76,-231.22 78.26,-221.63"/>
<polygon fill="midnightblue" stroke="midnightblue" points="84.79,-260.44 90.71,-269.23 91.56,-258.67 84.79,-260.44"/>
</g>
<!-- Node4&#45;&gt;Node2 -->
<g id="edge3" class="edge">
<title>Node4&#45;&gt;Node2</title>
<path fill="none" stroke="#9a32cd" stroke-dasharray="5,2" d="M77.64,-129.03C86.85,-122.02 97.98,-113.57 108,-106 116.11,-99.88 125.26,-93.01 132.31,-87.74"/>
<polygon fill="#9a32cd" stroke="#9a32cd" points="75.34,-126.38 69.5,-135.23 79.58,-131.95 75.34,-126.38"/>
<text text-anchor="middle" x="119" y="-109" font-family="Helvetica,sans-Serif" font-size="10.00"> level</text>
</g>
<!-- Node5&#45;&gt;Node1 -->
<g id="edge10" class="edge">
<title>Node5&#45;&gt;Node1</title>
<path fill="none" stroke="#9a32cd" stroke-dasharray="5,2" d="M248.68,-192.51C237.55,-153.87 212.05,-65.29 202.09,-30.7"/>
<polygon fill="#9a32cd" stroke="#9a32cd" points="245.39,-193.75 251.52,-202.39 252.12,-191.81 245.39,-193.75"/>
<text text-anchor="middle" x="254" y="-109" font-family="Helvetica,sans-Serif" font-size="10.00"> activePlayer</text>
</g>
<!-- Node5&#45;&gt;Node4 -->
<g id="edge5" class="edge">
<title>Node5&#45;&gt;Node4</title>
<path fill="none" stroke="#9a32cd" stroke-dasharray="5,2" d="M218.12,-199.1C179.26,-186.21 118.23,-165.97 83.82,-154.56"/>
<polygon fill="#9a32cd" stroke="#9a32cd" points="217.38,-202.54 227.97,-202.37 219.58,-195.9 217.38,-202.54"/>
<text text-anchor="middle" x="182" y="-176" font-family="Helvetica,sans-Serif" font-size="10.00"> player</text>
</g>
<!-- Node6 -->
<g id="node6" class="node">
<title>Node6</title>
<g id="a_node6"><a xlink:href="class_framework_1_1_data_1_1_modifier_effect_data.html" target="_top" xlink:title="This class is the data of a modifier (contains only data, no modifier behavior).">
<polygon fill="white" stroke="black" points="169,-269.5 169,-288.5 339,-288.5 339,-269.5 169,-269.5"/>
<text text-anchor="middle" x="254" y="-276.5" font-family="Helvetica,sans-Serif" font-size="10.00">Framework.Data.ModifierEffectData</text>
</a>
</g>
</g>
<!-- Node6&#45;&gt;Node5 -->
<g id="edge7" class="edge">
<title>Node6&#45;&gt;Node5</title>
<path fill="none" stroke="#9a32cd" stroke-dasharray="5,2" d="M254,-259.04C254,-246.67 254,-231.12 254,-221.63"/>
<polygon fill="#9a32cd" stroke="#9a32cd" points="250.5,-259.23 254,-269.23 257.5,-259.23 250.5,-259.23"/>
<text text-anchor="middle" x="280.5" y="-243" font-family="Helvetica,sans-Serif" font-size="10.00"> activeEffect</text>
</g>
<!-- Node7&#45;&gt;Node4 -->
<g id="edge8" class="edge">
<title>Node7&#45;&gt;Node4</title>
<path fill="none" stroke="#9a32cd" stroke-dasharray="5,2" d="M70.85,-192.41C67.41,-179.99 63.04,-164.22 60.39,-154.63"/>
<polygon fill="#9a32cd" stroke="#9a32cd" points="67.53,-193.53 73.57,-202.23 74.28,-191.66 67.53,-193.53"/>
<text text-anchor="middle" x="96" y="-176" font-family="Helvetica,sans-Serif" font-size="10.00"> pauseMenu</text>
</g>
</g>
</svg>
