<?xml version="1.0" encoding="UTF-8" standalone="no"?>
<!DOCTYPE svg PUBLIC "-//W3C//DTD SVG 1.1//EN"
 "http://www.w3.org/Graphics/SVG/1.1/DTD/svg11.dtd">
<!-- Generated by graphviz version 2.50.0 (20211204.2007)
 -->
<!-- Title: Gameplay.Collisions.ModifierColliderController.OnTriggerEnter2D Pages: 1 -->
<svg width="405pt" height="247pt"
 viewBox="0.00 0.00 405.00 246.50" xmlns="http://www.w3.org/2000/svg" xmlns:xlink="http://www.w3.org/1999/xlink">
<g id="graph0" class="graph" transform="scale(1 1) rotate(0) translate(4 242.5)">
<title>Gameplay.Collisions.ModifierColliderController.OnTriggerEnter2D</title>
<polygon fill="white" stroke="transparent" points="-4,4 -4,-242.5 401,-242.5 401,4 -4,4"/>
<!-- Node1 -->
<g id="node1" class="node">
<title>Node1</title>
<g id="a_node1"><a xlink:title=" ">
<polygon fill="#bfbfbf" stroke="black" points="0,-110 0,-140 170,-140 170,-110 0,-110"/>
<text text-anchor="start" x="8" y="-128" font-family="Helvetica,sans-Serif" font-size="10.00">Gameplay.Collisions.Modifier</text>
<text text-anchor="middle" x="85" y="-117" font-family="Helvetica,sans-Serif" font-size="10.00">ColliderController.OnTriggerEnter2D</text>
</a>
</g>
</g>
<!-- Node2 -->
<g id="node2" class="node">
<title>Node2</title>
<g id="a_node2"><a xlink:href="class_gameplay_1_1_collisions_1_1_modifier_collider_controller.html#aec66c6e078e9898972a13e4be2513006" target="_top" xlink:title="Action when the collided modifier is of type ModifierType.Magnet.">
<polygon fill="white" stroke="black" points="212,-208 212,-238 391,-238 391,-208 212,-208"/>
<text text-anchor="start" x="220" y="-226" font-family="Helvetica,sans-Serif" font-size="10.00">Gameplay.Collisions.Modifier</text>
<text text-anchor="middle" x="301.5" y="-215" font-family="Helvetica,sans-Serif" font-size="10.00">ColliderController.OnMagnetCollected</text>
</a>
</g>
</g>
<!-- Node1&#45;&gt;Node2 -->
<g id="edge1" class="edge">
<title>Node1&#45;&gt;Node2</title>
<path fill="none" stroke="midnightblue" d="M106.19,-140.13C129.24,-156.74 168.59,-183.15 206,-199 210.97,-201.1 216.16,-203.06 221.45,-204.86"/>
<polygon fill="midnightblue" stroke="midnightblue" points="220.46,-208.22 231.05,-207.96 222.61,-201.56 220.46,-208.22"/>
</g>
<!-- Node3 -->
<g id="node3" class="node">
<title>Node3</title>
<g id="a_node3"><a xlink:href="class_gameplay_1_1_collisions_1_1_modifier_collider_controller.html#ac12f18d0cedc1f16ac34ea8903c7ade3" target="_top" xlink:title="Action when the collided modifier is of type ModifierType.Mirror.">
<polygon fill="white" stroke="black" points="216,-159 216,-189 387,-189 387,-159 216,-159"/>
<text text-anchor="start" x="224" y="-177" font-family="Helvetica,sans-Serif" font-size="10.00">Gameplay.Collisions.Modifier</text>
<text text-anchor="middle" x="301.5" y="-166" font-family="Helvetica,sans-Serif" font-size="10.00">ColliderController.OnMirrorCollected</text>
</a>
</g>
</g>
<!-- Node1&#45;&gt;Node3 -->
<g id="edge2" class="edge">
<title>Node1&#45;&gt;Node3</title>
<path fill="none" stroke="midnightblue" d="M151.81,-140.03C174.87,-145.3 200.95,-151.26 224.76,-156.7"/>
<polygon fill="midnightblue" stroke="midnightblue" points="224.28,-160.18 234.81,-158.99 225.84,-153.35 224.28,-160.18"/>
</g>
<!-- Node4 -->
<g id="node4" class="node">
<title>Node4</title>
<g id="a_node4"><a xlink:href="class_gameplay_1_1_collisions_1_1_modifier_collider_controller.html#a596f6a2a1f4e07c04a568a8ae1a6bb05" target="_top" xlink:title="Action when the collided modifier is of type ModifierType.Shield.">
<polygon fill="white" stroke="black" points="215,-110 215,-140 388,-140 388,-110 215,-110"/>
<text text-anchor="start" x="223" y="-128" font-family="Helvetica,sans-Serif" font-size="10.00">Gameplay.Collisions.Modifier</text>
<text text-anchor="middle" x="301.5" y="-117" font-family="Helvetica,sans-Serif" font-size="10.00">ColliderController.OnShieldCollected</text>
</a>
</g>
</g>
<!-- Node1&#45;&gt;Node4 -->
<g id="edge3" class="edge">
<title>Node1&#45;&gt;Node4</title>
<path fill="none" stroke="midnightblue" d="M170.16,-125C181.51,-125 193.22,-125 204.75,-125"/>
<polygon fill="midnightblue" stroke="midnightblue" points="204.82,-128.5 214.82,-125 204.82,-121.5 204.82,-128.5"/>
</g>
<!-- Node5 -->
<g id="node5" class="node">
<title>Node5</title>
<g id="a_node5"><a xlink:href="class_gameplay_1_1_collisions_1_1_modifier_collider_controller.html#ab8d49f43e50e82a56f827f3d971dfe8b" target="_top" xlink:title="Action when the collided modifier is of type ModifierType.SpeedBuff.">
<polygon fill="white" stroke="black" points="206,-61 206,-91 397,-91 397,-61 206,-61"/>
<text text-anchor="start" x="214" y="-79" font-family="Helvetica,sans-Serif" font-size="10.00">Gameplay.Collisions.Modifier</text>
<text text-anchor="middle" x="301.5" y="-68" font-family="Helvetica,sans-Serif" font-size="10.00">ColliderController.OnSpeedBuffCollected</text>
</a>
</g>
</g>
<!-- Node1&#45;&gt;Node5 -->
<g id="edge4" class="edge">
<title>Node1&#45;&gt;Node5</title>
<path fill="none" stroke="midnightblue" d="M151.81,-109.97C174.87,-104.7 200.95,-98.74 224.76,-93.3"/>
<polygon fill="midnightblue" stroke="midnightblue" points="225.84,-96.65 234.81,-91.01 224.28,-89.82 225.84,-96.65"/>
</g>
<!-- Node6 -->
<g id="node6" class="node">
<title>Node6</title>
<g id="a_node6"><a xlink:href="class_gameplay_1_1_collisions_1_1_modifier_collider_controller.html#abbb12452ea2a8a1b32c3683870e1eb7d" target="_top" xlink:title="Action when the collided modifier is of type ModifierType.SpeedDebuff.">
<polygon fill="white" stroke="black" points="221,-0.5 221,-41.5 382,-41.5 382,-0.5 221,-0.5"/>
<text text-anchor="start" x="229" y="-29.5" font-family="Helvetica,sans-Serif" font-size="10.00">Gameplay.Collisions.Modifier</text>
<text text-anchor="start" x="229" y="-18.5" font-family="Helvetica,sans-Serif" font-size="10.00">ColliderController.OnSpeedDebuff</text>
<text text-anchor="middle" x="301.5" y="-7.5" font-family="Helvetica,sans-Serif" font-size="10.00">Collected</text>
</a>
</g>
</g>
<!-- Node1&#45;&gt;Node6 -->
<g id="edge5" class="edge">
<title>Node1&#45;&gt;Node6</title>
<path fill="none" stroke="midnightblue" d="M107.28,-109.98C130.65,-93.99 169.68,-68.74 206,-52 211.22,-49.59 216.69,-47.29 222.24,-45.1"/>
<polygon fill="midnightblue" stroke="midnightblue" points="223.54,-48.35 231.65,-41.52 221.06,-41.8 223.54,-48.35"/>
</g>
</g>
</svg>
