<?xml version="1.0" encoding="UTF-8" standalone="no"?>
<!DOCTYPE svg PUBLIC "-//W3C//DTD SVG 1.1//EN"
 "http://www.w3.org/Graphics/SVG/1.1/DTD/svg11.dtd">
<!-- Generated by graphviz version 2.50.0 (20211204.2007)
 -->
<!-- Title: UI.PauseMenu.OnEnable Pages: 1 -->
<svg width="462pt" height="104pt"
 viewBox="0.00 0.00 462.00 104.00" xmlns="http://www.w3.org/2000/svg" xmlns:xlink="http://www.w3.org/1999/xlink">
<g id="graph0" class="graph" transform="scale(1 1) rotate(0) translate(4 100)">
<title>UI.PauseMenu.OnEnable</title>
<polygon fill="white" stroke="transparent" points="-4,4 -4,-100 458,-100 458,4 -4,4"/>
<!-- Node1 -->
<g id="node1" class="node">
<title>Node1</title>
<g id="a_node1"><a xlink:title=" ">
<polygon fill="#bfbfbf" stroke="black" points="0,-38.5 0,-57.5 126,-57.5 126,-38.5 0,-38.5"/>
<text text-anchor="middle" x="63" y="-45.5" font-family="Helvetica,sans-Serif" font-size="10.00">UI.PauseMenu.OnEnable</text>
</a>
</g>
</g>
<!-- Node2 -->
<g id="node2" class="node">
<title>Node2</title>
<g id="a_node2"><a xlink:href="class_u_i_1_1_pause_menu.html#a026d0f9212c844d7b907728cbd4db5b5" target="_top" xlink:title="Action when the user wants to quit the level">
<polygon fill="white" stroke="black" points="171,-76.5 171,-95.5 285,-95.5 285,-76.5 171,-76.5"/>
<text text-anchor="middle" x="228" y="-83.5" font-family="Helvetica,sans-Serif" font-size="10.00">UI.PauseMenu.OnQuit</text>
</a>
</g>
</g>
<!-- Node1&#45;&gt;Node2 -->
<g id="edge1" class="edge">
<title>Node1&#45;&gt;Node2</title>
<path fill="none" stroke="midnightblue" d="M105.13,-57.59C126.74,-62.63 153.41,-68.84 176.29,-74.18"/>
<polygon fill="midnightblue" stroke="midnightblue" points="175.63,-77.62 186.16,-76.48 177.22,-70.8 175.63,-77.62"/>
</g>
<!-- Node4 -->
<g id="node4" class="node">
<title>Node4</title>
<g id="a_node4"><a xlink:href="class_u_i_1_1_pause_menu.html#ab3c1aa7535d4269bdbc869d5744b8d8f" target="_top" xlink:title="Action when the user wants to restart the level">
<polygon fill="white" stroke="black" points="164,-38.5 164,-57.5 292,-57.5 292,-38.5 164,-38.5"/>
<text text-anchor="middle" x="228" y="-45.5" font-family="Helvetica,sans-Serif" font-size="10.00">UI.PauseMenu.OnRestart</text>
</a>
</g>
</g>
<!-- Node1&#45;&gt;Node4 -->
<g id="edge3" class="edge">
<title>Node1&#45;&gt;Node4</title>
<path fill="none" stroke="midnightblue" d="M126.09,-48C135.04,-48 144.33,-48 153.48,-48"/>
<polygon fill="midnightblue" stroke="midnightblue" points="153.73,-51.5 163.73,-48 153.73,-44.5 153.73,-51.5"/>
</g>
<!-- Node5 -->
<g id="node5" class="node">
<title>Node5</title>
<g id="a_node5"><a xlink:href="class_u_i_1_1_pause_menu.html#a84dd1578b640d6dbde4112f3d63e1276" target="_top" xlink:title="Action when the user wants to resume the level">
<polygon fill="white" stroke="black" points="162,-0.5 162,-19.5 294,-19.5 294,-0.5 162,-0.5"/>
<text text-anchor="middle" x="228" y="-7.5" font-family="Helvetica,sans-Serif" font-size="10.00">UI.PauseMenu.OnResume</text>
</a>
</g>
</g>
<!-- Node1&#45;&gt;Node5 -->
<g id="edge5" class="edge">
<title>Node1&#45;&gt;Node5</title>
<path fill="none" stroke="midnightblue" d="M105.13,-38.41C126.74,-33.37 153.41,-27.16 176.29,-21.82"/>
<polygon fill="midnightblue" stroke="midnightblue" points="177.22,-25.2 186.16,-19.52 175.63,-18.38 177.22,-25.2"/>
</g>
<!-- Node3 -->
<g id="node3" class="node">
<title>Node3</title>
<g id="a_node3"><a xlink:href="class_u_i_1_1_pause_menu.html#a53a58f81d9c66999d0a8741f94fb84b8" target="_top" xlink:title="Action when the game is paused">
<polygon fill="white" stroke="black" points="330,-38.5 330,-57.5 454,-57.5 454,-38.5 330,-38.5"/>
<text text-anchor="middle" x="392" y="-45.5" font-family="Helvetica,sans-Serif" font-size="10.00">UI.PauseMenu.OnPause</text>
</a>
</g>
</g>
<!-- Node2&#45;&gt;Node3 -->
<g id="edge2" class="edge">
<title>Node2&#45;&gt;Node3</title>
<path fill="none" stroke="midnightblue" d="M269.88,-76.41C291.35,-71.37 317.86,-65.16 340.6,-59.82"/>
<polygon fill="midnightblue" stroke="midnightblue" points="341.48,-63.21 350.41,-57.52 339.88,-56.4 341.48,-63.21"/>
</g>
<!-- Node4&#45;&gt;Node3 -->
<g id="edge4" class="edge">
<title>Node4&#45;&gt;Node3</title>
<path fill="none" stroke="midnightblue" d="M292.1,-48C301.13,-48 310.48,-48 319.67,-48"/>
<polygon fill="midnightblue" stroke="midnightblue" points="319.94,-51.5 329.94,-48 319.94,-44.5 319.94,-51.5"/>
</g>
<!-- Node5&#45;&gt;Node3 -->
<g id="edge6" class="edge">
<title>Node5&#45;&gt;Node3</title>
<path fill="none" stroke="midnightblue" d="M269.88,-19.59C291.35,-24.63 317.86,-30.84 340.6,-36.18"/>
<polygon fill="midnightblue" stroke="midnightblue" points="339.88,-39.6 350.41,-38.48 341.48,-32.79 339.88,-39.6"/>
</g>
</g>
</svg>
