<?xml version="1.0" encoding="UTF-8" standalone="no"?>
<!DOCTYPE svg PUBLIC "-//W3C//DTD SVG 1.1//EN"
 "http://www.w3.org/Graphics/SVG/1.1/DTD/svg11.dtd">
<!-- Generated by graphviz version 2.50.0 (20211204.2007)
 -->
<!-- Title: Gameplay.Levels.Level.RemoveModifierEffect Pages: 1 -->
<svg width="850pt" height="110pt"
 viewBox="0.00 0.00 850.00 110.00" xmlns="http://www.w3.org/2000/svg" xmlns:xlink="http://www.w3.org/1999/xlink">
<g id="graph0" class="graph" transform="scale(1 1) rotate(0) translate(4 106)">
<title>Gameplay.Levels.Level.RemoveModifierEffect</title>
<polygon fill="white" stroke="transparent" points="-4,4 -4,-106 846,-106 846,4 -4,4"/>
<!-- Node1 -->
<g id="node1" class="node">
<title>Node1</title>
<g id="a_node1"><a xlink:title="Remove the active modifier and its effects.">
<polygon fill="#bfbfbf" stroke="black" points="689,-46.5 689,-76.5 842,-76.5 842,-46.5 689,-46.5"/>
<text text-anchor="start" x="697" y="-64.5" font-family="Helvetica,sans-Serif" font-size="10.00">Gameplay.Levels.Level.Remove</text>
<text text-anchor="middle" x="765.5" y="-53.5" font-family="Helvetica,sans-Serif" font-size="10.00">ModifierEffect</text>
</a>
</g>
</g>
<!-- Node2 -->
<g id="node2" class="node">
<title>Node2</title>
<g id="a_node2"><a xlink:href="class_gameplay_1_1_levels_1_1_level.html#aa4750ab2e95dfe67b97bd6701ff1c44e" target="_top" xlink:title=" ">
<polygon fill="white" stroke="black" points="510,-71.5 510,-101.5 653,-101.5 653,-71.5 510,-71.5"/>
<text text-anchor="start" x="518" y="-89.5" font-family="Helvetica,sans-Serif" font-size="10.00">Gameplay.Levels.Level.Fixed</text>
<text text-anchor="middle" x="581.5" y="-78.5" font-family="Helvetica,sans-Serif" font-size="10.00">Update</text>
</a>
</g>
</g>
<!-- Node1&#45;&gt;Node2 -->
<g id="edge1" class="edge">
<title>Node1&#45;&gt;Node2</title>
<path fill="none" stroke="midnightblue" d="M678.86,-73.26C670.27,-74.44 661.61,-75.63 653.2,-76.79"/>
<polygon fill="midnightblue" stroke="midnightblue" points="679.47,-76.71 688.9,-71.89 678.51,-69.78 679.47,-76.71"/>
</g>
<!-- Node3 -->
<g id="node3" class="node">
<title>Node3</title>
<g id="a_node3"><a xlink:href="class_gameplay_1_1_levels_1_1_level.html#a1edabea1d6571656727ced8c7ada4571" target="_top" xlink:title="Action triggered after the die animation ended.">
<polygon fill="white" stroke="black" points="516,-22.5 516,-52.5 647,-52.5 647,-22.5 516,-22.5"/>
<text text-anchor="start" x="524" y="-40.5" font-family="Helvetica,sans-Serif" font-size="10.00">Gameplay.Levels.Level.On</text>
<text text-anchor="middle" x="581.5" y="-29.5" font-family="Helvetica,sans-Serif" font-size="10.00">AfterDie</text>
</a>
</g>
</g>
<!-- Node1&#45;&gt;Node3 -->
<g id="edge2" class="edge">
<title>Node1&#45;&gt;Node3</title>
<path fill="none" stroke="midnightblue" d="M678.75,-50.19C668.12,-48.79 657.4,-47.38 647.16,-46.03"/>
<polygon fill="midnightblue" stroke="midnightblue" points="678.52,-53.69 688.9,-51.53 679.44,-46.75 678.52,-53.69"/>
</g>
<!-- Node4 -->
<g id="node4" class="node">
<title>Node4</title>
<g id="a_node4"><a xlink:href="class_gameplay_1_1_levels_1_1_level.html#aa20e112e1769f3b7e67d69b519aa276e" target="_top" xlink:title="Initialize the objects of the level + update HUD.">
<polygon fill="white" stroke="black" points="176,-28 176,-47 307,-47 307,-28 176,-28"/>
<text text-anchor="middle" x="241.5" y="-35" font-family="Helvetica,sans-Serif" font-size="10.00">Gameplay.Levels.Level.Init</text>
</a>
</g>
</g>
<!-- Node3&#45;&gt;Node4 -->
<g id="edge3" class="edge">
<title>Node3&#45;&gt;Node4</title>
<path fill="none" stroke="midnightblue" d="M505.63,-39.87C495.01,-40.13 484.23,-40.36 474,-40.5 415.78,-41.32 401.22,-41.37 343,-40.5 331.39,-40.33 319.04,-40.04 307.1,-39.71"/>
<polygon fill="midnightblue" stroke="midnightblue" points="505.83,-43.37 515.74,-39.62 505.65,-36.37 505.83,-43.37"/>
</g>
<!-- Node6 -->
<g id="node6" class="node">
<title>Node6</title>
<g id="a_node6"><a xlink:href="class_gameplay_1_1_levels_1_1_level.html#a7dfa35e881994e49851251ba993e9e01" target="_top" xlink:title="Action triggered when restarting the level.">
<polygon fill="white" stroke="black" points="343,-0.5 343,-30.5 474,-30.5 474,-0.5 343,-0.5"/>
<text text-anchor="start" x="351" y="-18.5" font-family="Helvetica,sans-Serif" font-size="10.00">Gameplay.Levels.Level.On</text>
<text text-anchor="middle" x="408.5" y="-7.5" font-family="Helvetica,sans-Serif" font-size="10.00">Restart</text>
</a>
</g>
</g>
<!-- Node3&#45;&gt;Node6 -->
<g id="edge5" class="edge">
<title>Node3&#45;&gt;Node6</title>
<path fill="none" stroke="midnightblue" d="M505.85,-27.9C495.32,-26.54 484.56,-25.16 474.24,-23.83"/>
<polygon fill="midnightblue" stroke="midnightblue" points="505.49,-31.38 515.85,-29.18 506.38,-24.44 505.49,-31.38"/>
</g>
<!-- Node5 -->
<g id="node5" class="node">
<title>Node5</title>
<g id="a_node5"><a xlink:href="class_gameplay_1_1_levels_1_1_level.html#a1beeeb3389e74a65f987b8fbe920adaa" target="_top" xlink:title=" ">
<polygon fill="white" stroke="black" points="0,-28 0,-47 140,-47 140,-28 0,-28"/>
<text text-anchor="middle" x="70" y="-35" font-family="Helvetica,sans-Serif" font-size="10.00">Gameplay.Levels.Level.Start</text>
</a>
</g>
</g>
<!-- Node4&#45;&gt;Node5 -->
<g id="edge4" class="edge">
<title>Node4&#45;&gt;Node5</title>
<path fill="none" stroke="midnightblue" d="M165.68,-37.5C157.2,-37.5 148.59,-37.5 140.18,-37.5"/>
<polygon fill="midnightblue" stroke="midnightblue" points="165.94,-41 175.94,-37.5 165.94,-34 165.94,-41"/>
</g>
<!-- Node6&#45;&gt;Node4 -->
<g id="edge6" class="edge">
<title>Node6&#45;&gt;Node4</title>
<path fill="none" stroke="midnightblue" d="M332.76,-25.47C324.18,-26.61 315.48,-27.77 307.05,-28.89"/>
<polygon fill="midnightblue" stroke="midnightblue" points="333.31,-28.92 342.76,-24.13 332.39,-21.98 333.31,-28.92"/>
</g>
</g>
</svg>
