<?xml version="1.0" encoding="UTF-8" standalone="no"?>
<!DOCTYPE svg PUBLIC "-//W3C//DTD SVG 1.1//EN"
 "http://www.w3.org/Graphics/SVG/1.1/DTD/svg11.dtd">
<!-- Generated by graphviz version 2.50.0 (20211204.2007)
 -->
<!-- Title: Framework.Managers.LevelManager.Start Pages: 1 -->
<svg width="354pt" height="39pt"
 viewBox="0.00 0.00 354.00 39.00" xmlns="http://www.w3.org/2000/svg" xmlns:xlink="http://www.w3.org/1999/xlink">
<g id="graph0" class="graph" transform="scale(1 1) rotate(0) translate(4 35)">
<title>Framework.Managers.LevelManager.Start</title>
<polygon fill="white" stroke="transparent" points="-4,4 -4,-35 350,-35 350,4 -4,4"/>
<!-- Node1 -->
<g id="node1" class="node">
<title>Node1</title>
<g id="a_node1"><a xlink:title=" ">
<polygon fill="#bfbfbf" stroke="black" points="0,-0.5 0,-30.5 135,-30.5 135,-0.5 0,-0.5"/>
<text text-anchor="start" x="8" y="-18.5" font-family="Helvetica,sans-Serif" font-size="10.00">Framework.Managers.Level</text>
<text text-anchor="middle" x="67.5" y="-7.5" font-family="Helvetica,sans-Serif" font-size="10.00">Manager.Start</text>
</a>
</g>
</g>
<!-- Node2 -->
<g id="node2" class="node">
<title>Node2</title>
<g id="a_node2"><a xlink:href="class_framework_1_1_managers_1_1_save_manager.html#aa6a2ce7caf04e2f52410bd37e0b764ee" target="_top" xlink:title="Save game datas to file system.">
<polygon fill="white" stroke="black" points="171,-0.5 171,-30.5 346,-30.5 346,-0.5 171,-0.5"/>
<text text-anchor="start" x="179" y="-18.5" font-family="Helvetica,sans-Serif" font-size="10.00">Framework.Managers.SaveManager.</text>
<text text-anchor="middle" x="258.5" y="-7.5" font-family="Helvetica,sans-Serif" font-size="10.00">SaveGameDatas</text>
</a>
</g>
</g>
<!-- Node1&#45;&gt;Node2 -->
<g id="edge1" class="edge">
<title>Node1&#45;&gt;Node2</title>
<path fill="none" stroke="midnightblue" d="M135.13,-15.5C143.46,-15.5 152.1,-15.5 160.77,-15.5"/>
<polygon fill="midnightblue" stroke="midnightblue" points="160.94,-19 170.94,-15.5 160.94,-12 160.94,-19"/>
</g>
</g>
</svg>
