<?xml version="1.0" encoding="UTF-8" standalone="no"?>
<!DOCTYPE svg PUBLIC "-//W3C//DTD SVG 1.1//EN"
 "http://www.w3.org/Graphics/SVG/1.1/DTD/svg11.dtd">
<!-- Generated by graphviz version 2.50.0 (20211204.2007)
 -->
<!-- Title: Gameplay.Levels.Level.OnDie Pages: 1 -->
<svg width="568pt" height="88pt"
 viewBox="0.00 0.00 568.00 88.00" xmlns="http://www.w3.org/2000/svg" xmlns:xlink="http://www.w3.org/1999/xlink">
<g id="graph0" class="graph" transform="scale(1 1) rotate(0) translate(4 84)">
<title>Gameplay.Levels.Level.OnDie</title>
<polygon fill="white" stroke="transparent" points="-4,4 -4,-84 564,-84 564,4 -4,4"/>
<!-- Node1 -->
<g id="node1" class="node">
<title>Node1</title>
<g id="a_node1"><a xlink:title="Action triggered when the player die.">
<polygon fill="#bfbfbf" stroke="black" points="0,-30 0,-49 146,-49 146,-30 0,-30"/>
<text text-anchor="middle" x="73" y="-37" font-family="Helvetica,sans-Serif" font-size="10.00">Gameplay.Levels.Level.OnDie</text>
</a>
</g>
</g>
<!-- Node2 -->
<g id="node2" class="node">
<title>Node2</title>
<g id="a_node2"><a xlink:href="class_gameplay_1_1_actors_1_1_player_controller.html#afd773a5fe51818eba51838b668ce4ccf" target="_top" xlink:title="Called by the level script when the player dies">
<polygon fill="white" stroke="black" points="182,-49.5 182,-79.5 349,-79.5 349,-49.5 182,-49.5"/>
<text text-anchor="start" x="190" y="-67.5" font-family="Helvetica,sans-Serif" font-size="10.00">Gameplay.Actors.PlayerController.</text>
<text text-anchor="middle" x="265.5" y="-56.5" font-family="Helvetica,sans-Serif" font-size="10.00">OnDie</text>
</a>
</g>
</g>
<!-- Node1&#45;&gt;Node2 -->
<g id="edge1" class="edge">
<title>Node1&#45;&gt;Node2</title>
<path fill="none" stroke="midnightblue" d="M146.02,-48.95C154.43,-50.05 163.09,-51.19 171.73,-52.32"/>
<polygon fill="midnightblue" stroke="midnightblue" points="171.46,-55.82 181.83,-53.65 172.37,-48.88 171.46,-55.82"/>
</g>
<!-- Node4 -->
<g id="node4" class="node">
<title>Node4</title>
<g id="a_node4"><a xlink:href="class_framework_1_1_managers_1_1_level_manager.html#a5f4b6de0cbfad1592b3612c75bd23179" target="_top" xlink:title="Update and save the data to the persistant data file.">
<polygon fill="white" stroke="black" points="198,-0.5 198,-30.5 333,-30.5 333,-0.5 198,-0.5"/>
<text text-anchor="start" x="206" y="-18.5" font-family="Helvetica,sans-Serif" font-size="10.00">Framework.Managers.Level</text>
<text text-anchor="middle" x="265.5" y="-7.5" font-family="Helvetica,sans-Serif" font-size="10.00">Manager.UpdateDatas</text>
</a>
</g>
</g>
<!-- Node1&#45;&gt;Node4 -->
<g id="edge3" class="edge">
<title>Node1&#45;&gt;Node4</title>
<path fill="none" stroke="midnightblue" d="M146.02,-30.43C159.67,-28.71 174,-26.9 187.79,-25.16"/>
<polygon fill="midnightblue" stroke="midnightblue" points="188.23,-28.64 197.72,-23.91 187.36,-21.69 188.23,-28.64"/>
</g>
<!-- Node3 -->
<g id="node3" class="node">
<title>Node3</title>
<g id="a_node3"><a xlink:href="class_gameplay_1_1_actors_1_1_player_controller.html#a8c0382f3bf854ac9704fdb9b8c01e9fc" target="_top" xlink:title="Async wait the end of the animation">
<polygon fill="white" stroke="black" points="389,-49.5 389,-79.5 556,-79.5 556,-49.5 389,-49.5"/>
<text text-anchor="start" x="397" y="-67.5" font-family="Helvetica,sans-Serif" font-size="10.00">Gameplay.Actors.PlayerController.</text>
<text text-anchor="middle" x="472.5" y="-56.5" font-family="Helvetica,sans-Serif" font-size="10.00">DieCoroutine</text>
</a>
</g>
</g>
<!-- Node2&#45;&gt;Node3 -->
<g id="edge2" class="edge">
<title>Node2&#45;&gt;Node3</title>
<path fill="none" stroke="midnightblue" d="M349.29,-64.5C358.94,-64.5 368.83,-64.5 378.61,-64.5"/>
<polygon fill="midnightblue" stroke="midnightblue" points="378.73,-68 388.73,-64.5 378.73,-61 378.73,-68"/>
</g>
<!-- Node5 -->
<g id="node5" class="node">
<title>Node5</title>
<g id="a_node5"><a xlink:href="class_framework_1_1_managers_1_1_save_manager.html#aa6a2ce7caf04e2f52410bd37e0b764ee" target="_top" xlink:title="Save game datas to file system.">
<polygon fill="white" stroke="black" points="385,-0.5 385,-30.5 560,-30.5 560,-0.5 385,-0.5"/>
<text text-anchor="start" x="393" y="-18.5" font-family="Helvetica,sans-Serif" font-size="10.00">Framework.Managers.SaveManager.</text>
<text text-anchor="middle" x="472.5" y="-7.5" font-family="Helvetica,sans-Serif" font-size="10.00">SaveGameDatas</text>
</a>
</g>
</g>
<!-- Node4&#45;&gt;Node5 -->
<g id="edge4" class="edge">
<title>Node4&#45;&gt;Node5</title>
<path fill="none" stroke="midnightblue" d="M333.06,-15.5C346.32,-15.5 360.51,-15.5 374.55,-15.5"/>
<polygon fill="midnightblue" stroke="midnightblue" points="374.74,-19 384.74,-15.5 374.74,-12 374.74,-19"/>
</g>
</g>
</svg>
