<?xml version="1.0" encoding="UTF-8" standalone="no"?>
<!DOCTYPE svg PUBLIC "-//W3C//DTD SVG 1.1//EN"
 "http://www.w3.org/Graphics/SVG/1.1/DTD/svg11.dtd">
<!-- Generated by graphviz version 2.50.0 (20211204.2007)
 -->
<!-- Title: Gameplay.Collisions.VictoryAreaColliderController Pages: 1 -->
<svg width="366pt" height="297pt"
 viewBox="0.00 0.00 366.00 297.00" xmlns="http://www.w3.org/2000/svg" xmlns:xlink="http://www.w3.org/1999/xlink">
<g id="graph0" class="graph" transform="scale(1 1) rotate(0) translate(4 293)">
<title>Gameplay.Collisions.VictoryAreaColliderController</title>
<polygon fill="white" stroke="transparent" points="-4,4 -4,-293 362,-293 362,4 -4,4"/>
<!-- Node1 -->
<g id="node1" class="node">
<title>Node1</title>
<g id="a_node1"><a xlink:title="Class for controlling the comportement of the death area object and the player during their collision...">
<polygon fill="#bfbfbf" stroke="black" points="218,-0.5 218,-30.5 358,-30.5 358,-0.5 218,-0.5"/>
<text text-anchor="start" x="226" y="-18.5" font-family="Helvetica,sans-Serif" font-size="10.00">Gameplay.Collisions.Victory</text>
<text text-anchor="middle" x="288" y="-7.5" font-family="Helvetica,sans-Serif" font-size="10.00">AreaColliderController</text>
</a>
</g>
</g>
<!-- Node2 -->
<g id="node2" class="node">
<title>Node2</title>
<g id="a_node2"><a xlink:href="class_gameplay_1_1_collisions_1_1_base_collider_controller.html" target="_top" xlink:title="Base class for controlling the comportement a collision occurs between two objects.">
<polygon fill="white" stroke="black" points="231.5,-68.5 231.5,-87.5 344.5,-87.5 344.5,-68.5 231.5,-68.5"/>
<text text-anchor="middle" x="288" y="-75.5" font-family="Helvetica,sans-Serif" font-size="10.00">BaseColliderController</text>
</a>
</g>
</g>
<!-- Node2&#45;&gt;Node1 -->
<g id="edge1" class="edge">
<title>Node2&#45;&gt;Node1</title>
<path fill="none" stroke="midnightblue" d="M288,-58.22C288,-49.36 288,-38.96 288,-30.76"/>
<polygon fill="midnightblue" stroke="midnightblue" points="284.5,-58.33 288,-68.33 291.5,-58.33 284.5,-58.33"/>
</g>
<!-- Node3 -->
<g id="node3" class="node">
<title>Node3</title>
<g id="a_node3"><a xlink:title=" ">
<polygon fill="white" stroke="black" points="228.5,-269.5 228.5,-288.5 311.5,-288.5 311.5,-269.5 228.5,-269.5"/>
<text text-anchor="middle" x="270" y="-276.5" font-family="Helvetica,sans-Serif" font-size="10.00">MonoBehaviour</text>
</a>
</g>
</g>
<!-- Node3&#45;&gt;Node2 -->
<g id="edge2" class="edge">
<title>Node3&#45;&gt;Node2</title>
<path fill="none" stroke="midnightblue" d="M287.69,-261.81C290.51,-258.48 293.11,-254.82 295,-251 300.79,-239.27 298.69,-235.01 300,-222 303.87,-183.52 306.73,-173.39 302,-135 299.89,-117.89 294.3,-98.49 290.85,-87.61"/>
<polygon fill="midnightblue" stroke="midnightblue" points="284.92,-259.65 280.54,-269.3 289.98,-264.49 284.92,-259.65"/>
</g>
<!-- Node4 -->
<g id="node4" class="node">
<title>Node4</title>
<g id="a_node4"><a xlink:href="class_gameplay_1_1_levels_1_1_level.html" target="_top" xlink:title="This class is the core of the played level, it retransmit the data to the player and perform action w...">
<polygon fill="white" stroke="black" points="177,-135.5 177,-154.5 293,-154.5 293,-135.5 177,-135.5"/>
<text text-anchor="middle" x="235" y="-142.5" font-family="Helvetica,sans-Serif" font-size="10.00">Gameplay.Levels.Level</text>
</a>
</g>
</g>
<!-- Node3&#45;&gt;Node4 -->
<g id="edge4" class="edge">
<title>Node3&#45;&gt;Node4</title>
<path fill="none" stroke="midnightblue" d="M277.37,-260C285.13,-237.99 294.28,-200.3 279,-173 274.45,-164.87 266.33,-158.88 258.3,-154.65"/>
<polygon fill="midnightblue" stroke="midnightblue" points="274.07,-258.84 273.78,-269.43 280.61,-261.32 274.07,-258.84"/>
</g>
<!-- Node5 -->
<g id="node5" class="node">
<title>Node5</title>
<g id="a_node5"><a xlink:href="class_gameplay_1_1_actors_1_1_player_controller.html" target="_top" xlink:title="This class is used by the player game object to control it (like physics)">
<polygon fill="white" stroke="black" points="3,-202.5 3,-221.5 167,-221.5 167,-202.5 3,-202.5"/>
<text text-anchor="middle" x="85" y="-209.5" font-family="Helvetica,sans-Serif" font-size="10.00">Gameplay.Actors.PlayerController</text>
</a>
</g>
</g>
<!-- Node3&#45;&gt;Node5 -->
<g id="edge6" class="edge">
<title>Node3&#45;&gt;Node5</title>
<path fill="none" stroke="midnightblue" d="M235.66,-265.94C198.96,-253.04 141.71,-232.92 109.37,-221.56"/>
<polygon fill="midnightblue" stroke="midnightblue" points="234.84,-269.36 245.43,-269.37 237.16,-262.75 234.84,-269.36"/>
</g>
<!-- Node7 -->
<g id="node7" class="node">
<title>Node7</title>
<g id="a_node7"><a xlink:href="class_u_i_1_1_pause_menu.html" target="_top" xlink:title="Class for the In Game pause menu">
<polygon fill="white" stroke="black" points="185,-202.5 185,-221.5 265,-221.5 265,-202.5 185,-202.5"/>
<text text-anchor="middle" x="225" y="-209.5" font-family="Helvetica,sans-Serif" font-size="10.00">UI.PauseMenu</text>
</a>
</g>
</g>
<!-- Node3&#45;&gt;Node7 -->
<g id="edge9" class="edge">
<title>Node3&#45;&gt;Node7</title>
<path fill="none" stroke="midnightblue" d="M258.16,-260.9C249.42,-248.27 237.88,-231.6 230.97,-221.63"/>
<polygon fill="midnightblue" stroke="midnightblue" points="255.36,-263 263.93,-269.23 261.12,-259.02 255.36,-263"/>
</g>
<!-- Node4&#45;&gt;Node2 -->
<g id="edge3" class="edge">
<title>Node4&#45;&gt;Node2</title>
<path fill="none" stroke="#9a32cd" stroke-dasharray="5,2" d="M248.64,-127.27C258.97,-114.6 272.75,-97.7 280.97,-87.63"/>
<polygon fill="#9a32cd" stroke="#9a32cd" points="245.75,-125.27 242.15,-135.23 251.18,-129.7 245.75,-125.27"/>
<text text-anchor="middle" x="275" y="-109" font-family="Helvetica,sans-Serif" font-size="10.00"> level</text>
</g>
<!-- Node5&#45;&gt;Node4 -->
<g id="edge5" class="edge">
<title>Node5&#45;&gt;Node4</title>
<path fill="none" stroke="#9a32cd" stroke-dasharray="5,2" d="M114.35,-198.28C144.06,-185.41 189.18,-165.85 215,-154.67"/>
<polygon fill="#9a32cd" stroke="#9a32cd" points="112.7,-195.18 104.92,-202.37 115.49,-201.6 112.7,-195.18"/>
<text text-anchor="middle" x="184" y="-176" font-family="Helvetica,sans-Serif" font-size="10.00"> player</text>
</g>
<!-- Node6 -->
<g id="node6" class="node">
<title>Node6</title>
<g id="a_node6"><a xlink:href="class_framework_1_1_data_1_1_modifier_effect_data.html" target="_top" xlink:title="This class is the data of a modifier (contains only data, no modifier behavior).">
<polygon fill="white" stroke="black" points="0,-269.5 0,-288.5 170,-288.5 170,-269.5 0,-269.5"/>
<text text-anchor="middle" x="85" y="-276.5" font-family="Helvetica,sans-Serif" font-size="10.00">Framework.Data.ModifierEffectData</text>
</a>
</g>
</g>
<!-- Node6&#45;&gt;Node5 -->
<g id="edge7" class="edge">
<title>Node6&#45;&gt;Node5</title>
<path fill="none" stroke="#9a32cd" stroke-dasharray="5,2" d="M85,-259.04C85,-246.67 85,-231.12 85,-221.63"/>
<polygon fill="#9a32cd" stroke="#9a32cd" points="81.5,-259.23 85,-269.23 88.5,-259.23 81.5,-259.23"/>
<text text-anchor="middle" x="111.5" y="-243" font-family="Helvetica,sans-Serif" font-size="10.00"> activeEffect</text>
</g>
<!-- Node7&#45;&gt;Node4 -->
<g id="edge8" class="edge">
<title>Node7&#45;&gt;Node4</title>
<path fill="none" stroke="#9a32cd" stroke-dasharray="5,2" d="M223.69,-192.38C223.6,-186.17 223.88,-179.25 225,-173 226.13,-166.7 228.63,-159.95 230.85,-154.78"/>
<polygon fill="#9a32cd" stroke="#9a32cd" points="220.2,-192.64 224.15,-202.47 227.19,-192.32 220.2,-192.64"/>
<text text-anchor="middle" x="252" y="-176" font-family="Helvetica,sans-Serif" font-size="10.00"> pauseMenu</text>
</g>
</g>
</svg>
