<?xml version="1.0" encoding="UTF-8" standalone="no"?>
<!DOCTYPE svg PUBLIC "-//W3C//DTD SVG 1.1//EN"
 "http://www.w3.org/Graphics/SVG/1.1/DTD/svg11.dtd">
<!-- Generated by graphviz version 2.50.0 (20211204.2007)
 -->
<!-- Title: Gameplay.Actors.PlayerController Pages: 1 -->
<svg width="280pt" height="95pt"
 viewBox="0.00 0.00 279.50 95.00" xmlns="http://www.w3.org/2000/svg" xmlns:xlink="http://www.w3.org/1999/xlink">
<g id="graph0" class="graph" transform="scale(1 1) rotate(0) translate(4 91)">
<title>Gameplay.Actors.PlayerController</title>
<polygon fill="white" stroke="transparent" points="-4,4 -4,-91 275.5,-91 275.5,4 -4,4"/>
<!-- Node1 -->
<g id="node1" class="node">
<title>Node1</title>
<g id="a_node1"><a xlink:title="This class is used by the player game object to control it (like physics)">
<polygon fill="#bfbfbf" stroke="black" points="31.5,-0.5 31.5,-19.5 195.5,-19.5 195.5,-0.5 31.5,-0.5"/>
<text text-anchor="middle" x="113.5" y="-7.5" font-family="Helvetica,sans-Serif" font-size="10.00">Gameplay.Actors.PlayerController</text>
</a>
</g>
</g>
<!-- Node2 -->
<g id="node2" class="node">
<title>Node2</title>
<g id="a_node2"><a xlink:title=" ">
<polygon fill="white" stroke="black" points="0,-67.5 0,-86.5 83,-86.5 83,-67.5 0,-67.5"/>
<text text-anchor="middle" x="41.5" y="-74.5" font-family="Helvetica,sans-Serif" font-size="10.00">MonoBehaviour</text>
</a>
</g>
</g>
<!-- Node2&#45;&gt;Node1 -->
<g id="edge1" class="edge">
<title>Node2&#45;&gt;Node1</title>
<path fill="none" stroke="midnightblue" d="M58.83,-60.36C72.98,-47.58 92.46,-29.99 103.94,-19.63"/>
<polygon fill="midnightblue" stroke="midnightblue" points="56.29,-57.93 51.21,-67.23 60.98,-63.13 56.29,-57.93"/>
</g>
<!-- Node3 -->
<g id="node3" class="node">
<title>Node3</title>
<g id="a_node3"><a xlink:href="class_framework_1_1_data_1_1_modifier_effect_data.html" target="_top" xlink:title="This class is the data of a modifier (contains only data, no modifier behavior).">
<polygon fill="white" stroke="black" points="101.5,-67.5 101.5,-86.5 271.5,-86.5 271.5,-67.5 101.5,-67.5"/>
<text text-anchor="middle" x="186.5" y="-74.5" font-family="Helvetica,sans-Serif" font-size="10.00">Framework.Data.ModifierEffectData</text>
</a>
</g>
</g>
<!-- Node3&#45;&gt;Node1 -->
<g id="edge2" class="edge">
<title>Node3&#45;&gt;Node1</title>
<path fill="none" stroke="#9a32cd" stroke-dasharray="5,2" d="M168.93,-60.36C154.58,-47.58 134.83,-29.99 123.19,-19.63"/>
<polygon fill="#9a32cd" stroke="#9a32cd" points="166.86,-63.2 176.65,-67.23 171.51,-57.97 166.86,-63.2"/>
<text text-anchor="middle" x="180" y="-41" font-family="Helvetica,sans-Serif" font-size="10.00"> activeEffect</text>
</g>
</g>
</svg>
