<?xml version="1.0" encoding="UTF-8" standalone="no"?>
<!DOCTYPE svg PUBLIC "-//W3C//DTD SVG 1.1//EN"
 "http://www.w3.org/Graphics/SVG/1.1/DTD/svg11.dtd">
<!-- Generated by graphviz version 2.50.0 (20211204.2007)
 -->
<!-- Title: Gameplay.Actors.PlayerController.GetSpeedMultiplier Pages: 1 -->
<svg width="581pt" height="39pt"
 viewBox="0.00 0.00 581.00 39.00" xmlns="http://www.w3.org/2000/svg" xmlns:xlink="http://www.w3.org/1999/xlink">
<g id="graph0" class="graph" transform="scale(1 1) rotate(0) translate(4 35)">
<title>Gameplay.Actors.PlayerController.GetSpeedMultiplier</title>
<polygon fill="white" stroke="transparent" points="-4,4 -4,-35 577,-35 577,4 -4,4"/>
<!-- Node1 -->
<g id="node1" class="node">
<title>Node1</title>
<g id="a_node1"><a xlink:title="Gets a value that is multiplied to the speed, ex: 2.0 means that the player sould go two times as fas...">
<polygon fill="#bfbfbf" stroke="black" points="406,-0.5 406,-30.5 573,-30.5 573,-0.5 406,-0.5"/>
<text text-anchor="start" x="414" y="-18.5" font-family="Helvetica,sans-Serif" font-size="10.00">Gameplay.Actors.PlayerController.</text>
<text text-anchor="middle" x="489.5" y="-7.5" font-family="Helvetica,sans-Serif" font-size="10.00">GetSpeedMultiplier</text>
</a>
</g>
</g>
<!-- Node2 -->
<g id="node2" class="node">
<title>Node2</title>
<g id="a_node2"><a xlink:href="class_gameplay_1_1_actors_1_1_player_controller.html#a67f38427074c6f67d460487798c8c914" target="_top" xlink:title="Function called every frame as long as the player should move">
<polygon fill="white" stroke="black" points="203,-0.5 203,-30.5 370,-30.5 370,-0.5 203,-0.5"/>
<text text-anchor="start" x="211" y="-18.5" font-family="Helvetica,sans-Serif" font-size="10.00">Gameplay.Actors.PlayerController.</text>
<text text-anchor="middle" x="286.5" y="-7.5" font-family="Helvetica,sans-Serif" font-size="10.00">RunUpdate</text>
</a>
</g>
</g>
<!-- Node1&#45;&gt;Node2 -->
<g id="edge1" class="edge">
<title>Node1&#45;&gt;Node2</title>
<path fill="none" stroke="midnightblue" d="M395.85,-15.5C387.27,-15.5 378.61,-15.5 370.13,-15.5"/>
<polygon fill="midnightblue" stroke="midnightblue" points="395.88,-19 405.88,-15.5 395.88,-12 395.88,-19"/>
</g>
<!-- Node3 -->
<g id="node3" class="node">
<title>Node3</title>
<g id="a_node3"><a xlink:href="class_gameplay_1_1_actors_1_1_player_controller.html#a044d2d6132001b25ddb0827071820366" target="_top" xlink:title=" ">
<polygon fill="white" stroke="black" points="0,-0.5 0,-30.5 167,-30.5 167,-0.5 0,-0.5"/>
<text text-anchor="start" x="8" y="-18.5" font-family="Helvetica,sans-Serif" font-size="10.00">Gameplay.Actors.PlayerController.</text>
<text text-anchor="middle" x="83.5" y="-7.5" font-family="Helvetica,sans-Serif" font-size="10.00">FixedUpdate</text>
</a>
</g>
</g>
<!-- Node2&#45;&gt;Node3 -->
<g id="edge2" class="edge">
<title>Node2&#45;&gt;Node3</title>
<path fill="none" stroke="midnightblue" d="M192.85,-15.5C184.27,-15.5 175.61,-15.5 167.13,-15.5"/>
<polygon fill="midnightblue" stroke="midnightblue" points="192.88,-19 202.88,-15.5 192.88,-12 192.88,-19"/>
</g>
</g>
</svg>
