<?xml version="1.0" encoding="UTF-8" standalone="no"?>
<!DOCTYPE svg PUBLIC "-//W3C//DTD SVG 1.1//EN"
 "http://www.w3.org/Graphics/SVG/1.1/DTD/svg11.dtd">
<!-- Generated by graphviz version 2.50.0 (20211204.2007)
 -->
<!-- Title: Gameplay.Collisions.BaseColliderController Pages: 1 -->
<svg width="362pt" height="240pt"
 viewBox="0.00 0.00 361.50 240.00" xmlns="http://www.w3.org/2000/svg" xmlns:xlink="http://www.w3.org/1999/xlink">
<g id="graph0" class="graph" transform="scale(1 1) rotate(0) translate(4 236)">
<title>Gameplay.Collisions.BaseColliderController</title>
<polygon fill="white" stroke="transparent" points="-4,4 -4,-236 357.5,-236 357.5,4 -4,4"/>
<!-- Node1 -->
<g id="node1" class="node">
<title>Node1</title>
<g id="a_node1"><a xlink:title="Base class for controlling the comportement a collision occurs between two objects.">
<polygon fill="#bfbfbf" stroke="black" points="222.5,-0.5 222.5,-30.5 353.5,-30.5 353.5,-0.5 222.5,-0.5"/>
<text text-anchor="start" x="230.5" y="-18.5" font-family="Helvetica,sans-Serif" font-size="10.00">Gameplay.Collisions.Base</text>
<text text-anchor="middle" x="288" y="-7.5" font-family="Helvetica,sans-Serif" font-size="10.00">ColliderController</text>
</a>
</g>
</g>
<!-- Node2 -->
<g id="node2" class="node">
<title>Node2</title>
<g id="a_node2"><a xlink:title=" ">
<polygon fill="white" stroke="black" points="228.5,-212.5 228.5,-231.5 311.5,-231.5 311.5,-212.5 228.5,-212.5"/>
<text text-anchor="middle" x="270" y="-219.5" font-family="Helvetica,sans-Serif" font-size="10.00">MonoBehaviour</text>
</a>
</g>
</g>
<!-- Node2&#45;&gt;Node1 -->
<g id="edge1" class="edge">
<title>Node2&#45;&gt;Node1</title>
<path fill="none" stroke="midnightblue" d="M287.69,-204.81C290.51,-201.48 293.11,-197.82 295,-194 300.79,-182.27 298.69,-178.01 300,-165 303.87,-126.52 306.32,-116.43 302,-78 300.14,-61.46 295.55,-42.88 292.13,-30.51"/>
<polygon fill="midnightblue" stroke="midnightblue" points="284.92,-202.65 280.54,-212.3 289.98,-207.49 284.92,-202.65"/>
</g>
<!-- Node3 -->
<g id="node3" class="node">
<title>Node3</title>
<g id="a_node3"><a xlink:href="class_gameplay_1_1_levels_1_1_level.html" target="_top" xlink:title="This class is the core of the played level, it retransmit the data to the player and perform action w...">
<polygon fill="white" stroke="black" points="177,-78.5 177,-97.5 293,-97.5 293,-78.5 177,-78.5"/>
<text text-anchor="middle" x="235" y="-85.5" font-family="Helvetica,sans-Serif" font-size="10.00">Gameplay.Levels.Level</text>
</a>
</g>
</g>
<!-- Node2&#45;&gt;Node3 -->
<g id="edge3" class="edge">
<title>Node2&#45;&gt;Node3</title>
<path fill="none" stroke="midnightblue" d="M277.37,-203C285.13,-180.99 294.28,-143.3 279,-116 274.45,-107.87 266.33,-101.88 258.3,-97.65"/>
<polygon fill="midnightblue" stroke="midnightblue" points="274.07,-201.84 273.78,-212.43 280.61,-204.32 274.07,-201.84"/>
</g>
<!-- Node4 -->
<g id="node4" class="node">
<title>Node4</title>
<g id="a_node4"><a xlink:href="class_gameplay_1_1_actors_1_1_player_controller.html" target="_top" xlink:title="This class is used by the player game object to control it (like physics)">
<polygon fill="white" stroke="black" points="3,-145.5 3,-164.5 167,-164.5 167,-145.5 3,-145.5"/>
<text text-anchor="middle" x="85" y="-152.5" font-family="Helvetica,sans-Serif" font-size="10.00">Gameplay.Actors.PlayerController</text>
</a>
</g>
</g>
<!-- Node2&#45;&gt;Node4 -->
<g id="edge5" class="edge">
<title>Node2&#45;&gt;Node4</title>
<path fill="none" stroke="midnightblue" d="M235.66,-208.94C198.96,-196.04 141.71,-175.92 109.37,-164.56"/>
<polygon fill="midnightblue" stroke="midnightblue" points="234.84,-212.36 245.43,-212.37 237.16,-205.75 234.84,-212.36"/>
</g>
<!-- Node6 -->
<g id="node6" class="node">
<title>Node6</title>
<g id="a_node6"><a xlink:href="class_u_i_1_1_pause_menu.html" target="_top" xlink:title="Class for the In Game pause menu">
<polygon fill="white" stroke="black" points="185,-145.5 185,-164.5 265,-164.5 265,-145.5 185,-145.5"/>
<text text-anchor="middle" x="225" y="-152.5" font-family="Helvetica,sans-Serif" font-size="10.00">UI.PauseMenu</text>
</a>
</g>
</g>
<!-- Node2&#45;&gt;Node6 -->
<g id="edge8" class="edge">
<title>Node2&#45;&gt;Node6</title>
<path fill="none" stroke="midnightblue" d="M258.16,-203.9C249.42,-191.27 237.88,-174.6 230.97,-164.63"/>
<polygon fill="midnightblue" stroke="midnightblue" points="255.36,-206 263.93,-212.23 261.12,-202.02 255.36,-206"/>
</g>
<!-- Node3&#45;&gt;Node1 -->
<g id="edge2" class="edge">
<title>Node3&#45;&gt;Node1</title>
<path fill="none" stroke="#9a32cd" stroke-dasharray="5,2" d="M247.75,-70.04C256.83,-57.97 268.87,-41.94 277.42,-30.58"/>
<polygon fill="#9a32cd" stroke="#9a32cd" points="244.71,-68.26 241.5,-78.36 250.31,-72.47 244.71,-68.26"/>
<text text-anchor="middle" x="274" y="-52" font-family="Helvetica,sans-Serif" font-size="10.00"> level</text>
</g>
<!-- Node4&#45;&gt;Node3 -->
<g id="edge4" class="edge">
<title>Node4&#45;&gt;Node3</title>
<path fill="none" stroke="#9a32cd" stroke-dasharray="5,2" d="M114.35,-141.28C144.06,-128.41 189.18,-108.85 215,-97.67"/>
<polygon fill="#9a32cd" stroke="#9a32cd" points="112.7,-138.18 104.92,-145.37 115.49,-144.6 112.7,-138.18"/>
<text text-anchor="middle" x="184" y="-119" font-family="Helvetica,sans-Serif" font-size="10.00"> player</text>
</g>
<!-- Node5 -->
<g id="node5" class="node">
<title>Node5</title>
<g id="a_node5"><a xlink:href="class_framework_1_1_data_1_1_modifier_effect_data.html" target="_top" xlink:title="This class is the data of a modifier (contains only data, no modifier behavior).">
<polygon fill="white" stroke="black" points="0,-212.5 0,-231.5 170,-231.5 170,-212.5 0,-212.5"/>
<text text-anchor="middle" x="85" y="-219.5" font-family="Helvetica,sans-Serif" font-size="10.00">Framework.Data.ModifierEffectData</text>
</a>
</g>
</g>
<!-- Node5&#45;&gt;Node4 -->
<g id="edge6" class="edge">
<title>Node5&#45;&gt;Node4</title>
<path fill="none" stroke="#9a32cd" stroke-dasharray="5,2" d="M85,-202.04C85,-189.67 85,-174.12 85,-164.63"/>
<polygon fill="#9a32cd" stroke="#9a32cd" points="81.5,-202.23 85,-212.23 88.5,-202.23 81.5,-202.23"/>
<text text-anchor="middle" x="111.5" y="-186" font-family="Helvetica,sans-Serif" font-size="10.00"> activeEffect</text>
</g>
<!-- Node6&#45;&gt;Node3 -->
<g id="edge7" class="edge">
<title>Node6&#45;&gt;Node3</title>
<path fill="none" stroke="#9a32cd" stroke-dasharray="5,2" d="M223.69,-135.38C223.6,-129.17 223.88,-122.25 225,-116 226.13,-109.7 228.63,-102.95 230.85,-97.78"/>
<polygon fill="#9a32cd" stroke="#9a32cd" points="220.2,-135.64 224.15,-145.47 227.19,-135.32 220.2,-135.64"/>
<text text-anchor="middle" x="252" y="-119" font-family="Helvetica,sans-Serif" font-size="10.00"> pauseMenu</text>
</g>
</g>
</svg>
