<?xml version="1.0" encoding="UTF-8" standalone="no"?>
<!DOCTYPE svg PUBLIC "-//W3C//DTD SVG 1.1//EN"
 "http://www.w3.org/Graphics/SVG/1.1/DTD/svg11.dtd">
<!-- Generated by graphviz version 2.50.0 (20211204.2007)
 -->
<!-- Title: Gameplay.Levels.Level.OnAfterDie Pages: 1 -->
<svg width="649pt" height="61pt"
 viewBox="0.00 0.00 649.00 61.00" xmlns="http://www.w3.org/2000/svg" xmlns:xlink="http://www.w3.org/1999/xlink">
<g id="graph0" class="graph" transform="scale(1 1) rotate(0) translate(4 57)">
<title>Gameplay.Levels.Level.OnAfterDie</title>
<polygon fill="white" stroke="transparent" points="-4,4 -4,-57 645,-57 645,4 -4,4"/>
<!-- Node1 -->
<g id="node1" class="node">
<title>Node1</title>
<g id="a_node1"><a xlink:title="Action triggered after the die animation ended.">
<polygon fill="#bfbfbf" stroke="black" points="510,-22.5 510,-52.5 641,-52.5 641,-22.5 510,-22.5"/>
<text text-anchor="start" x="518" y="-40.5" font-family="Helvetica,sans-Serif" font-size="10.00">Gameplay.Levels.Level.On</text>
<text text-anchor="middle" x="575.5" y="-29.5" font-family="Helvetica,sans-Serif" font-size="10.00">AfterDie</text>
</a>
</g>
</g>
<!-- Node2 -->
<g id="node2" class="node">
<title>Node2</title>
<g id="a_node2"><a xlink:href="class_gameplay_1_1_levels_1_1_level.html#aa20e112e1769f3b7e67d69b519aa276e" target="_top" xlink:title="Initialize the objects of the level + update HUD.">
<polygon fill="white" stroke="black" points="176,-28 176,-47 307,-47 307,-28 176,-28"/>
<text text-anchor="middle" x="241.5" y="-35" font-family="Helvetica,sans-Serif" font-size="10.00">Gameplay.Levels.Level.Init</text>
</a>
</g>
</g>
<!-- Node1&#45;&gt;Node2 -->
<g id="edge1" class="edge">
<title>Node1&#45;&gt;Node2</title>
<path fill="none" stroke="midnightblue" d="M499.76,-39.98C491.07,-40.19 482.34,-40.38 474,-40.5 415.78,-41.37 401.22,-41.37 343,-40.5 331.39,-40.33 319.04,-40.04 307.1,-39.71"/>
<polygon fill="midnightblue" stroke="midnightblue" points="500,-43.47 509.9,-39.71 499.81,-36.48 500,-43.47"/>
</g>
<!-- Node4 -->
<g id="node4" class="node">
<title>Node4</title>
<g id="a_node4"><a xlink:href="class_gameplay_1_1_levels_1_1_level.html#a7dfa35e881994e49851251ba993e9e01" target="_top" xlink:title="Action triggered when restarting the level.">
<polygon fill="white" stroke="black" points="343,-0.5 343,-30.5 474,-30.5 474,-0.5 343,-0.5"/>
<text text-anchor="start" x="351" y="-18.5" font-family="Helvetica,sans-Serif" font-size="10.00">Gameplay.Levels.Level.On</text>
<text text-anchor="middle" x="408.5" y="-7.5" font-family="Helvetica,sans-Serif" font-size="10.00">Restart</text>
</a>
</g>
</g>
<!-- Node1&#45;&gt;Node4 -->
<g id="edge3" class="edge">
<title>Node1&#45;&gt;Node4</title>
<path fill="none" stroke="midnightblue" d="M499.76,-27.53C491.18,-26.39 482.48,-25.23 474.05,-24.11"/>
<polygon fill="midnightblue" stroke="midnightblue" points="499.39,-31.02 509.76,-28.87 500.31,-24.08 499.39,-31.02"/>
</g>
<!-- Node3 -->
<g id="node3" class="node">
<title>Node3</title>
<g id="a_node3"><a xlink:href="class_gameplay_1_1_levels_1_1_level.html#a1beeeb3389e74a65f987b8fbe920adaa" target="_top" xlink:title=" ">
<polygon fill="white" stroke="black" points="0,-28 0,-47 140,-47 140,-28 0,-28"/>
<text text-anchor="middle" x="70" y="-35" font-family="Helvetica,sans-Serif" font-size="10.00">Gameplay.Levels.Level.Start</text>
</a>
</g>
</g>
<!-- Node2&#45;&gt;Node3 -->
<g id="edge2" class="edge">
<title>Node2&#45;&gt;Node3</title>
<path fill="none" stroke="midnightblue" d="M165.68,-37.5C157.2,-37.5 148.59,-37.5 140.18,-37.5"/>
<polygon fill="midnightblue" stroke="midnightblue" points="165.94,-41 175.94,-37.5 165.94,-34 165.94,-41"/>
</g>
<!-- Node4&#45;&gt;Node2 -->
<g id="edge4" class="edge">
<title>Node4&#45;&gt;Node2</title>
<path fill="none" stroke="midnightblue" d="M332.76,-25.47C324.18,-26.61 315.48,-27.77 307.05,-28.89"/>
<polygon fill="midnightblue" stroke="midnightblue" points="333.31,-28.92 342.76,-24.13 332.39,-21.98 333.31,-28.92"/>
</g>
</g>
</svg>
