<?xml version="1.0" encoding="UTF-8" standalone="no"?>
<!DOCTYPE svg PUBLIC "-//W3C//DTD SVG 1.1//EN"
 "http://www.w3.org/Graphics/SVG/1.1/DTD/svg11.dtd">
<!-- Generated by graphviz version 2.50.0 (20211204.2007)
 -->
<!-- Title: Framework.Managers.SkinManager.Start Pages: 1 -->
<svg width="599pt" height="112pt"
 viewBox="0.00 0.00 599.00 112.00" xmlns="http://www.w3.org/2000/svg" xmlns:xlink="http://www.w3.org/1999/xlink">
<g id="graph0" class="graph" transform="scale(1 1) rotate(0) translate(4 108)">
<title>Framework.Managers.SkinManager.Start</title>
<polygon fill="white" stroke="transparent" points="-4,4 -4,-108 595,-108 595,4 -4,4"/>
<!-- Node1 -->
<g id="node1" class="node">
<title>Node1</title>
<g id="a_node1"><a xlink:title=" ">
<polygon fill="#bfbfbf" stroke="black" points="0,-48.5 0,-78.5 173,-78.5 173,-48.5 0,-48.5"/>
<text text-anchor="start" x="8" y="-66.5" font-family="Helvetica,sans-Serif" font-size="10.00">Framework.Managers.SkinManager.</text>
<text text-anchor="middle" x="86.5" y="-55.5" font-family="Helvetica,sans-Serif" font-size="10.00">Start</text>
</a>
</g>
</g>
<!-- Node2 -->
<g id="node2" class="node">
<title>Node2</title>
<g id="a_node2"><a xlink:href="class_framework_1_1_managers_1_1_skin_manager.html#a01473b6a4d3bee4b93f84b4e4fad52f0" target="_top" xlink:title="Load the sprites for the specified modifier.">
<polygon fill="white" stroke="black" points="209,-73.5 209,-103.5 382,-103.5 382,-73.5 209,-73.5"/>
<text text-anchor="start" x="217" y="-91.5" font-family="Helvetica,sans-Serif" font-size="10.00">Framework.Managers.SkinManager.</text>
<text text-anchor="middle" x="295.5" y="-80.5" font-family="Helvetica,sans-Serif" font-size="10.00">LoadModifierSprite</text>
</a>
</g>
</g>
<!-- Node1&#45;&gt;Node2 -->
<g id="edge1" class="edge">
<title>Node1&#45;&gt;Node2</title>
<path fill="none" stroke="midnightblue" d="M173.19,-73.85C181.66,-74.87 190.3,-75.92 198.87,-76.95"/>
<polygon fill="midnightblue" stroke="midnightblue" points="198.53,-80.43 208.88,-78.16 199.37,-73.48 198.53,-80.43"/>
</g>
<!-- Node3 -->
<g id="node3" class="node">
<title>Node3</title>
<g id="a_node3"><a xlink:href="class_framework_1_1_managers_1_1_skin_manager.html#a9d26b6d3934867ee10b1d391ab4ef1e5" target="_top" xlink:title="Load the resources (sprites and animations) for the skin.">
<polygon fill="white" stroke="black" points="209,-24.5 209,-54.5 382,-54.5 382,-24.5 209,-24.5"/>
<text text-anchor="start" x="217" y="-42.5" font-family="Helvetica,sans-Serif" font-size="10.00">Framework.Managers.SkinManager.</text>
<text text-anchor="middle" x="295.5" y="-31.5" font-family="Helvetica,sans-Serif" font-size="10.00">LoadSkin</text>
</a>
</g>
</g>
<!-- Node1&#45;&gt;Node3 -->
<g id="edge2" class="edge">
<title>Node1&#45;&gt;Node3</title>
<path fill="none" stroke="midnightblue" d="M173.19,-53.57C181.66,-52.58 190.3,-51.58 198.87,-50.59"/>
<polygon fill="midnightblue" stroke="midnightblue" points="199.34,-54.06 208.88,-49.43 198.54,-47.1 199.34,-54.06"/>
</g>
<!-- Node4 -->
<g id="node4" class="node">
<title>Node4</title>
<g id="a_node4"><a xlink:href="class_framework_1_1_managers_1_1_skin_manager.html#a2eb2d9b47f51c1f46b4c8f1f393169ec" target="_top" xlink:title="Load the animations for the skin.">
<polygon fill="white" stroke="black" points="418,-49.5 418,-79.5 591,-79.5 591,-49.5 418,-49.5"/>
<text text-anchor="start" x="426" y="-67.5" font-family="Helvetica,sans-Serif" font-size="10.00">Framework.Managers.SkinManager.</text>
<text text-anchor="middle" x="504.5" y="-56.5" font-family="Helvetica,sans-Serif" font-size="10.00">LoadAnimation</text>
</a>
</g>
</g>
<!-- Node3&#45;&gt;Node4 -->
<g id="edge3" class="edge">
<title>Node3&#45;&gt;Node4</title>
<path fill="none" stroke="midnightblue" d="M382.19,-49.85C390.66,-50.87 399.3,-51.92 407.87,-52.95"/>
<polygon fill="midnightblue" stroke="midnightblue" points="407.53,-56.43 417.88,-54.16 408.37,-49.48 407.53,-56.43"/>
</g>
<!-- Node5 -->
<g id="node5" class="node">
<title>Node5</title>
<g id="a_node5"><a xlink:href="class_framework_1_1_managers_1_1_skin_manager.html#ae1510330bbfae75e72a7cb9d0303d660" target="_top" xlink:title="Load the sprites for the skin. The sprites should be in a single image, which one is splited into ass...">
<polygon fill="white" stroke="black" points="418,-0.5 418,-30.5 591,-30.5 591,-0.5 418,-0.5"/>
<text text-anchor="start" x="426" y="-18.5" font-family="Helvetica,sans-Serif" font-size="10.00">Framework.Managers.SkinManager.</text>
<text text-anchor="middle" x="504.5" y="-7.5" font-family="Helvetica,sans-Serif" font-size="10.00">LoadSprites</text>
</a>
</g>
</g>
<!-- Node3&#45;&gt;Node5 -->
<g id="edge4" class="edge">
<title>Node3&#45;&gt;Node5</title>
<path fill="none" stroke="midnightblue" d="M382.19,-29.57C390.66,-28.58 399.3,-27.58 407.87,-26.59"/>
<polygon fill="midnightblue" stroke="midnightblue" points="408.34,-30.06 417.88,-25.43 407.54,-23.1 408.34,-30.06"/>
</g>
</g>
</svg>
