<?xml version="1.0" encoding="UTF-8" standalone="no"?>
<!DOCTYPE svg PUBLIC "-//W3C//DTD SVG 1.1//EN"
 "http://www.w3.org/Graphics/SVG/1.1/DTD/svg11.dtd">
<!-- Generated by graphviz version 2.50.0 (20211204.2007)
 -->
<!-- Title: Framework.UI.SkinInShop.GetTotalCoinsToSpend Pages: 1 -->
<svg width="308pt" height="88pt"
 viewBox="0.00 0.00 308.00 88.00" xmlns="http://www.w3.org/2000/svg" xmlns:xlink="http://www.w3.org/1999/xlink">
<g id="graph0" class="graph" transform="scale(1 1) rotate(0) translate(4 84)">
<title>Framework.UI.SkinInShop.GetTotalCoinsToSpend</title>
<polygon fill="white" stroke="transparent" points="-4,4 -4,-84 304,-84 304,4 -4,4"/>
<!-- Node1 -->
<g id="node1" class="node">
<title>Node1</title>
<g id="a_node1"><a xlink:title="Get the total of coins we can spend on the shop. The value is all the collected coins minus le coins ...">
<polygon fill="#bfbfbf" stroke="black" points="168,-24.5 168,-54.5 300,-54.5 300,-24.5 168,-24.5"/>
<text text-anchor="start" x="176" y="-42.5" font-family="Helvetica,sans-Serif" font-size="10.00">Framework.UI.SkinInShop.</text>
<text text-anchor="middle" x="234" y="-31.5" font-family="Helvetica,sans-Serif" font-size="10.00">GetTotalCoinsToSpend</text>
</a>
</g>
</g>
<!-- Node2 -->
<g id="node2" class="node">
<title>Node2</title>
<g id="a_node2"><a xlink:href="class_framework_1_1_u_i_1_1_skin_in_shop.html#a1cc348ac5babbba3c80a866b928a627d" target="_top" xlink:title="Is called when the script instance is being loaded. Determine if the skin is unlocked and instanciate...">
<polygon fill="white" stroke="black" points="0,-49.5 0,-79.5 132,-79.5 132,-49.5 0,-49.5"/>
<text text-anchor="start" x="8" y="-67.5" font-family="Helvetica,sans-Serif" font-size="10.00">Framework.UI.SkinInShop.</text>
<text text-anchor="middle" x="66" y="-56.5" font-family="Helvetica,sans-Serif" font-size="10.00">Awake</text>
</a>
</g>
</g>
<!-- Node1&#45;&gt;Node2 -->
<g id="edge1" class="edge">
<title>Node1&#45;&gt;Node2</title>
<path fill="none" stroke="midnightblue" d="M157.89,-50.81C149.32,-52.1 140.64,-53.41 132.22,-54.68"/>
<polygon fill="midnightblue" stroke="midnightblue" points="158.5,-54.26 167.87,-49.31 157.46,-47.34 158.5,-54.26"/>
</g>
<!-- Node3 -->
<g id="node3" class="node">
<title>Node3</title>
<g id="a_node3"><a xlink:href="class_framework_1_1_u_i_1_1_skin_in_shop.html#a69fc76d6bf84237ae2f69bf9340df54d" target="_top" xlink:title="Is called when we pressed on a skin&#39;s button. Equip the skin or buy it, regarding the money we have a...">
<polygon fill="white" stroke="black" points="0,-0.5 0,-30.5 132,-30.5 132,-0.5 0,-0.5"/>
<text text-anchor="start" x="8" y="-18.5" font-family="Helvetica,sans-Serif" font-size="10.00">Framework.UI.SkinInShop.</text>
<text text-anchor="middle" x="66" y="-7.5" font-family="Helvetica,sans-Serif" font-size="10.00">OnButtonPressed</text>
</a>
</g>
</g>
<!-- Node1&#45;&gt;Node3 -->
<g id="edge2" class="edge">
<title>Node1&#45;&gt;Node3</title>
<path fill="none" stroke="midnightblue" d="M157.89,-28.64C149.32,-27.4 140.64,-26.15 132.22,-24.93"/>
<polygon fill="midnightblue" stroke="midnightblue" points="157.47,-32.12 167.87,-30.08 158.47,-25.19 157.47,-32.12"/>
</g>
</g>
</svg>
