<?xml version="1.0" encoding="UTF-8" standalone="no"?>
<!DOCTYPE svg PUBLIC "-//W3C//DTD SVG 1.1//EN"
 "http://www.w3.org/Graphics/SVG/1.1/DTD/svg11.dtd">
<!-- Generated by graphviz version 2.50.0 (20211204.2007)
 -->
<!-- Title: Framework.Managers.SaveManager.SaveGameDatas Pages: 1 -->
<svg width="605pt" height="225pt"
 viewBox="0.00 0.00 605.00 224.50" xmlns="http://www.w3.org/2000/svg" xmlns:xlink="http://www.w3.org/1999/xlink">
<g id="graph0" class="graph" transform="scale(1 1) rotate(0) translate(4 220.5)">
<title>Framework.Managers.SaveManager.SaveGameDatas</title>
<polygon fill="white" stroke="transparent" points="-4,4 -4,-220.5 601,-220.5 601,4 -4,4"/>
<!-- Node1 -->
<g id="node1" class="node">
<title>Node1</title>
<g id="a_node1"><a xlink:title="Save game datas to file system.">
<polygon fill="#bfbfbf" stroke="black" points="422,-112 422,-142 597,-142 597,-112 422,-112"/>
<text text-anchor="start" x="430" y="-130" font-family="Helvetica,sans-Serif" font-size="10.00">Framework.Managers.SaveManager.</text>
<text text-anchor="middle" x="509.5" y="-119" font-family="Helvetica,sans-Serif" font-size="10.00">SaveGameDatas</text>
</a>
</g>
</g>
<!-- Node2 -->
<g id="node2" class="node">
<title>Node2</title>
<g id="a_node2"><a xlink:href="class_framework_1_1_managers_1_1_save_manager.html#ab9c71d235784f77fb8b8441f16dc414b" target="_top" xlink:title="Load saved game datas from file system.">
<polygon fill="white" stroke="black" points="211,-186 211,-216 386,-216 386,-186 211,-186"/>
<text text-anchor="start" x="219" y="-204" font-family="Helvetica,sans-Serif" font-size="10.00">Framework.Managers.SaveManager.</text>
<text text-anchor="middle" x="298.5" y="-193" font-family="Helvetica,sans-Serif" font-size="10.00">LoadGameDatas</text>
</a>
</g>
</g>
<!-- Node1&#45;&gt;Node2 -->
<g id="edge1" class="edge">
<title>Node1&#45;&gt;Node2</title>
<path fill="none" stroke="midnightblue" d="M465.34,-146.06C442.08,-155.96 412.75,-167.87 386,-177 376.86,-180.12 367.07,-183.14 357.48,-185.92"/>
<polygon fill="midnightblue" stroke="midnightblue" points="466.77,-149.25 474.58,-142.09 464.01,-142.82 466.77,-149.25"/>
</g>
<!-- Node4 -->
<g id="node4" class="node">
<title>Node4</title>
<g id="a_node4"><a xlink:href="class_framework_1_1_u_i_1_1_skin_in_shop.html#a69fc76d6bf84237ae2f69bf9340df54d" target="_top" xlink:title=" ">
<polygon fill="white" stroke="black" points="232.5,-137 232.5,-167 364.5,-167 364.5,-137 232.5,-137"/>
<text text-anchor="start" x="240.5" y="-155" font-family="Helvetica,sans-Serif" font-size="10.00">Framework.UI.SkinInShop.</text>
<text text-anchor="middle" x="298.5" y="-144" font-family="Helvetica,sans-Serif" font-size="10.00">OnButtonPressed</text>
</a>
</g>
</g>
<!-- Node1&#45;&gt;Node4 -->
<g id="edge3" class="edge">
<title>Node1&#45;&gt;Node4</title>
<path fill="none" stroke="midnightblue" d="M412.02,-138.54C395.95,-140.46 379.62,-142.42 364.57,-144.22"/>
<polygon fill="midnightblue" stroke="midnightblue" points="412.47,-142.01 421.98,-137.35 411.64,-135.06 412.47,-142.01"/>
</g>
<!-- Node5 -->
<g id="node5" class="node">
<title>Node5</title>
<g id="a_node5"><a xlink:href="class_framework_1_1_managers_1_1_level_manager.html#a0ea21d20f54b7822c040c81b97fe6254" target="_top" xlink:title=" ">
<polygon fill="white" stroke="black" points="231,-88 231,-118 366,-118 366,-88 231,-88"/>
<text text-anchor="start" x="239" y="-106" font-family="Helvetica,sans-Serif" font-size="10.00">Framework.Managers.Level</text>
<text text-anchor="middle" x="298.5" y="-95" font-family="Helvetica,sans-Serif" font-size="10.00">Manager.Start</text>
</a>
</g>
</g>
<!-- Node1&#45;&gt;Node5 -->
<g id="edge4" class="edge">
<title>Node1&#45;&gt;Node5</title>
<path fill="none" stroke="midnightblue" d="M411.87,-115.9C396.41,-114.13 380.72,-112.33 366.17,-110.66"/>
<polygon fill="midnightblue" stroke="midnightblue" points="411.65,-119.4 421.98,-117.07 412.45,-112.45 411.65,-119.4"/>
</g>
<!-- Node6 -->
<g id="node6" class="node">
<title>Node6</title>
<g id="a_node6"><a xlink:href="class_framework_1_1_managers_1_1_level_manager.html#a5f4b6de0cbfad1592b3612c75bd23179" target="_top" xlink:title="Update and save the data to the persistant data file.">
<polygon fill="white" stroke="black" points="231,-39 231,-69 366,-69 366,-39 231,-39"/>
<text text-anchor="start" x="239" y="-57" font-family="Helvetica,sans-Serif" font-size="10.00">Framework.Managers.Level</text>
<text text-anchor="middle" x="298.5" y="-46" font-family="Helvetica,sans-Serif" font-size="10.00">Manager.UpdateDatas</text>
</a>
</g>
</g>
<!-- Node1&#45;&gt;Node6 -->
<g id="edge5" class="edge">
<title>Node1&#45;&gt;Node6</title>
<path fill="none" stroke="midnightblue" d="M464.25,-107.93C441.15,-98.33 412.3,-86.88 386,-78 376.7,-74.86 366.73,-71.81 357,-69"/>
<polygon fill="midnightblue" stroke="midnightblue" points="463.19,-111.29 473.77,-111.92 465.9,-104.83 463.19,-111.29"/>
</g>
<!-- Node3 -->
<g id="node3" class="node">
<title>Node3</title>
<g id="a_node3"><a xlink:href="class_framework_1_1_managers_1_1_save_manager.html#aa68adf9ecf1f3ce5801c4090a2276714" target="_top" xlink:title=" ">
<polygon fill="white" stroke="black" points="0,-186 0,-216 175,-216 175,-186 0,-186"/>
<text text-anchor="start" x="8" y="-204" font-family="Helvetica,sans-Serif" font-size="10.00">Framework.Managers.SaveManager.</text>
<text text-anchor="middle" x="87.5" y="-193" font-family="Helvetica,sans-Serif" font-size="10.00">Awake</text>
</a>
</g>
</g>
<!-- Node2&#45;&gt;Node3 -->
<g id="edge2" class="edge">
<title>Node2&#45;&gt;Node3</title>
<path fill="none" stroke="midnightblue" d="M200.97,-201C192.41,-201 183.77,-201 175.29,-201"/>
<polygon fill="midnightblue" stroke="midnightblue" points="200.98,-204.5 210.98,-201 200.98,-197.5 200.98,-204.5"/>
</g>
<!-- Node7 -->
<g id="node7" class="node">
<title>Node7</title>
<g id="a_node7"><a xlink:href="class_gameplay_1_1_levels_1_1_level.html#afdfd79658a96904e4ac51969e1cd8e2f" target="_top" xlink:title="Action triggered when the player die.">
<polygon fill="white" stroke="black" points="14.5,-88.5 14.5,-107.5 160.5,-107.5 160.5,-88.5 14.5,-88.5"/>
<text text-anchor="middle" x="87.5" y="-95.5" font-family="Helvetica,sans-Serif" font-size="10.00">Gameplay.Levels.Level.OnDie</text>
</a>
</g>
</g>
<!-- Node6&#45;&gt;Node7 -->
<g id="edge6" class="edge">
<title>Node6&#45;&gt;Node7</title>
<path fill="none" stroke="midnightblue" d="M221,-70.11C191.71,-76.27 159.25,-83.1 133.79,-88.46"/>
<polygon fill="midnightblue" stroke="midnightblue" points="221.73,-73.53 230.8,-68.04 220.29,-66.68 221.73,-73.53"/>
</g>
<!-- Node8 -->
<g id="node8" class="node">
<title>Node8</title>
<g id="a_node8"><a xlink:href="class_gameplay_1_1_levels_1_1_level.html#a0ea08bce8eb30e31ade55ea694f6dc69" target="_top" xlink:title="Action triggered when the player reaches the end of the level.">
<polygon fill="white" stroke="black" points="22,-39 22,-69 153,-69 153,-39 22,-39"/>
<text text-anchor="start" x="30" y="-57" font-family="Helvetica,sans-Serif" font-size="10.00">Gameplay.Levels.Level.On</text>
<text text-anchor="middle" x="87.5" y="-46" font-family="Helvetica,sans-Serif" font-size="10.00">Finish</text>
</a>
</g>
</g>
<!-- Node6&#45;&gt;Node8 -->
<g id="edge7" class="edge">
<title>Node6&#45;&gt;Node8</title>
<path fill="none" stroke="midnightblue" d="M220.74,-54C198.53,-54 174.53,-54 153.14,-54"/>
<polygon fill="midnightblue" stroke="midnightblue" points="220.8,-57.5 230.8,-54 220.8,-50.5 220.8,-57.5"/>
</g>
<!-- Node9 -->
<g id="node9" class="node">
<title>Node9</title>
<g id="a_node9"><a xlink:href="class_gameplay_1_1_levels_1_1_level.html#a1beeeb3389e74a65f987b8fbe920adaa" target="_top" xlink:title=" ">
<polygon fill="white" stroke="black" points="17.5,-0.5 17.5,-19.5 157.5,-19.5 157.5,-0.5 17.5,-0.5"/>
<text text-anchor="middle" x="87.5" y="-7.5" font-family="Helvetica,sans-Serif" font-size="10.00">Gameplay.Levels.Level.Start</text>
</a>
</g>
</g>
<!-- Node6&#45;&gt;Node9 -->
<g id="edge8" class="edge">
<title>Node6&#45;&gt;Node9</title>
<path fill="none" stroke="midnightblue" d="M221,-37.89C191.71,-31.73 159.25,-24.9 133.79,-19.54"/>
<polygon fill="midnightblue" stroke="midnightblue" points="220.29,-41.32 230.8,-39.96 221.73,-34.47 220.29,-41.32"/>
</g>
</g>
</svg>
