<?xml version="1.0" encoding="UTF-8" standalone="no"?>
<!DOCTYPE svg PUBLIC "-//W3C//DTD SVG 1.1//EN"
 "http://www.w3.org/Graphics/SVG/1.1/DTD/svg11.dtd">
<!-- Generated by graphviz version 2.50.0 (20211204.2007)
 -->
<!-- Title: Gameplay.Levels.Level.OnAfterDie Pages: 1 -->
<svg width="562pt" height="137pt"
 viewBox="0.00 0.00 562.00 137.00" xmlns="http://www.w3.org/2000/svg" xmlns:xlink="http://www.w3.org/1999/xlink">
<g id="graph0" class="graph" transform="scale(1 1) rotate(0) translate(4 133)">
<title>Gameplay.Levels.Level.OnAfterDie</title>
<polygon fill="white" stroke="transparent" points="-4,4 -4,-133 558,-133 558,4 -4,4"/>
<!-- Node1 -->
<g id="node1" class="node">
<title>Node1</title>
<g id="a_node1"><a xlink:title="Action triggered after the die animation ended.">
<polygon fill="#bfbfbf" stroke="black" points="0,-49.5 0,-79.5 131,-79.5 131,-49.5 0,-49.5"/>
<text text-anchor="start" x="8" y="-67.5" font-family="Helvetica,sans-Serif" font-size="10.00">Gameplay.Levels.Level.On</text>
<text text-anchor="middle" x="65.5" y="-56.5" font-family="Helvetica,sans-Serif" font-size="10.00">AfterDie</text>
</a>
</g>
</g>
<!-- Node2 -->
<g id="node2" class="node">
<title>Node2</title>
<g id="a_node2"><a xlink:href="class_gameplay_1_1_levels_1_1_level.html#aa1a1ee14dac00df7cbd411f2e078e092" target="_top" xlink:title="Remove the active modifier and its effects.">
<polygon fill="white" stroke="black" points="167,-98.5 167,-128.5 320,-128.5 320,-98.5 167,-98.5"/>
<text text-anchor="start" x="175" y="-116.5" font-family="Helvetica,sans-Serif" font-size="10.00">Gameplay.Levels.Level.Remove</text>
<text text-anchor="middle" x="243.5" y="-105.5" font-family="Helvetica,sans-Serif" font-size="10.00">ModifierEffect</text>
</a>
</g>
</g>
<!-- Node1&#45;&gt;Node2 -->
<g id="edge1" class="edge">
<title>Node1&#45;&gt;Node2</title>
<path fill="none" stroke="midnightblue" d="M120.74,-79.6C139.06,-84.7 159.68,-90.44 178.67,-95.73"/>
<polygon fill="midnightblue" stroke="midnightblue" points="177.86,-99.14 188.44,-98.45 179.74,-92.39 177.86,-99.14"/>
</g>
<!-- Node4 -->
<g id="node4" class="node">
<title>Node4</title>
<g id="a_node4"><a xlink:href="class_gameplay_1_1_levels_1_1_level.html#a6c33c44ecf4f79f1e7c83375109314d6" target="_top" xlink:title="Update the attempt HUD content.">
<polygon fill="white" stroke="black" points="169,-49.5 169,-79.5 318,-79.5 318,-49.5 169,-49.5"/>
<text text-anchor="start" x="177" y="-67.5" font-family="Helvetica,sans-Serif" font-size="10.00">Gameplay.Levels.Level.Update</text>
<text text-anchor="middle" x="243.5" y="-56.5" font-family="Helvetica,sans-Serif" font-size="10.00">HudAttempt</text>
</a>
</g>
</g>
<!-- Node1&#45;&gt;Node4 -->
<g id="edge3" class="edge">
<title>Node1&#45;&gt;Node4</title>
<path fill="none" stroke="midnightblue" d="M131.04,-64.5C140.04,-64.5 149.4,-64.5 158.7,-64.5"/>
<polygon fill="midnightblue" stroke="midnightblue" points="158.74,-68 168.74,-64.5 158.74,-61 158.74,-68"/>
</g>
<!-- Node5 -->
<g id="node5" class="node">
<title>Node5</title>
<g id="a_node5"><a xlink:href="class_gameplay_1_1_levels_1_1_level.html#a24d473e1589e1ea464c59f7502a90919" target="_top" xlink:title="Update the coins HUD content.">
<polygon fill="white" stroke="black" points="169,-0.5 169,-30.5 318,-30.5 318,-0.5 169,-0.5"/>
<text text-anchor="start" x="177" y="-18.5" font-family="Helvetica,sans-Serif" font-size="10.00">Gameplay.Levels.Level.Update</text>
<text text-anchor="middle" x="243.5" y="-7.5" font-family="Helvetica,sans-Serif" font-size="10.00">HudCoins</text>
</a>
</g>
</g>
<!-- Node1&#45;&gt;Node5 -->
<g id="edge4" class="edge">
<title>Node1&#45;&gt;Node5</title>
<path fill="none" stroke="midnightblue" d="M120.74,-49.4C139.06,-44.3 159.68,-38.56 178.67,-33.27"/>
<polygon fill="midnightblue" stroke="midnightblue" points="179.74,-36.61 188.44,-30.55 177.86,-29.86 179.74,-36.61"/>
</g>
<!-- Node3 -->
<g id="node3" class="node">
<title>Node3</title>
<g id="a_node3"><a xlink:href="class_gameplay_1_1_actors_1_1_player_controller.html#ac9c55df7e99ebcfef9b303ef9eb78453" target="_top" xlink:title="Removes the current modifier effect (does nothing if the player doesn&#39;t have any modifiers)">
<polygon fill="white" stroke="black" points="356,-98.5 356,-128.5 554,-128.5 554,-98.5 356,-98.5"/>
<text text-anchor="start" x="364" y="-116.5" font-family="Helvetica,sans-Serif" font-size="10.00">Gameplay.Actors.PlayerController.remove</text>
<text text-anchor="middle" x="455" y="-105.5" font-family="Helvetica,sans-Serif" font-size="10.00">ModifierEffect</text>
</a>
</g>
</g>
<!-- Node2&#45;&gt;Node3 -->
<g id="edge2" class="edge">
<title>Node2&#45;&gt;Node3</title>
<path fill="none" stroke="midnightblue" d="M320.13,-113.5C328.47,-113.5 337.08,-113.5 345.72,-113.5"/>
<polygon fill="midnightblue" stroke="midnightblue" points="345.86,-117 355.86,-113.5 345.86,-110 345.86,-117"/>
</g>
</g>
</svg>
