<?xml version="1.0" encoding="UTF-8" standalone="no"?>
<!DOCTYPE svg PUBLIC "-//W3C//DTD SVG 1.1//EN"
 "http://www.w3.org/Graphics/SVG/1.1/DTD/svg11.dtd">
<!-- Generated by graphviz version 2.50.0 (20211204.2007)
 -->
<!-- Title: Gameplay.Levels.Level.OnHitModifier Pages: 1 -->
<svg width="348pt" height="88pt"
 viewBox="0.00 0.00 348.00 88.00" xmlns="http://www.w3.org/2000/svg" xmlns:xlink="http://www.w3.org/1999/xlink">
<g id="graph0" class="graph" transform="scale(1 1) rotate(0) translate(4 84)">
<title>Gameplay.Levels.Level.OnHitModifier</title>
<polygon fill="white" stroke="transparent" points="-4,4 -4,-84 344,-84 344,4 -4,4"/>
<!-- Node1 -->
<g id="node1" class="node">
<title>Node1</title>
<g id="a_node1"><a xlink:title="Action triggered when a modifier is recolted.">
<polygon fill="#bfbfbf" stroke="black" points="0,-24.5 0,-54.5 131,-54.5 131,-24.5 0,-24.5"/>
<text text-anchor="start" x="8" y="-42.5" font-family="Helvetica,sans-Serif" font-size="10.00">Gameplay.Levels.Level.On</text>
<text text-anchor="middle" x="65.5" y="-31.5" font-family="Helvetica,sans-Serif" font-size="10.00">HitModifier</text>
</a>
</g>
</g>
<!-- Node2 -->
<g id="node2" class="node">
<title>Node2</title>
<g id="a_node2"><a xlink:href="class_framework_1_1_managers_1_1_skin_manager.html#a35aa59c60fe8c34433cbe7269ae9b88b" target="_top" xlink:title="Get the sprite of the modifier.">
<polygon fill="white" stroke="black" points="167,-49.5 167,-79.5 340,-79.5 340,-49.5 167,-49.5"/>
<text text-anchor="start" x="175" y="-67.5" font-family="Helvetica,sans-Serif" font-size="10.00">Framework.Managers.SkinManager.</text>
<text text-anchor="middle" x="253.5" y="-56.5" font-family="Helvetica,sans-Serif" font-size="10.00">GetModifierSprite</text>
</a>
</g>
</g>
<!-- Node1&#45;&gt;Node2 -->
<g id="edge1" class="edge">
<title>Node1&#45;&gt;Node2</title>
<path fill="none" stroke="midnightblue" d="M131.03,-48.17C139.33,-49.29 147.96,-50.45 156.62,-51.61"/>
<polygon fill="midnightblue" stroke="midnightblue" points="156.41,-55.12 166.79,-52.98 157.34,-48.18 156.41,-55.12"/>
</g>
<!-- Node3 -->
<g id="node3" class="node">
<title>Node3</title>
<g id="a_node3"><a xlink:href="class_gameplay_1_1_actors_1_1_player_controller.html#a212cb58886f87948ffce3feced376e8b" target="_top" xlink:title="Sets the player modifier effect, only called when the player doesn&#39;t have an active modifier">
<polygon fill="white" stroke="black" points="170,-0.5 170,-30.5 337,-30.5 337,-0.5 170,-0.5"/>
<text text-anchor="start" x="178" y="-18.5" font-family="Helvetica,sans-Serif" font-size="10.00">Gameplay.Actors.PlayerController.</text>
<text text-anchor="middle" x="253.5" y="-7.5" font-family="Helvetica,sans-Serif" font-size="10.00">SetModifierEffect</text>
</a>
</g>
</g>
<!-- Node1&#45;&gt;Node3 -->
<g id="edge2" class="edge">
<title>Node1&#45;&gt;Node3</title>
<path fill="none" stroke="midnightblue" d="M131.03,-31.17C140.3,-29.98 149.98,-28.73 159.66,-27.48"/>
<polygon fill="midnightblue" stroke="midnightblue" points="160.27,-30.93 169.74,-26.18 159.37,-23.99 160.27,-30.93"/>
</g>
</g>
</svg>
