<?xml version="1.0" encoding="UTF-8" standalone="no"?>
<!DOCTYPE svg PUBLIC "-//W3C//DTD SVG 1.1//EN"
 "http://www.w3.org/Graphics/SVG/1.1/DTD/svg11.dtd">
<!-- Generated by graphviz version 2.50.0 (20211204.2007)
 -->
<!-- Title: Gameplay.Collisions.BaseColliderController Pages: 1 -->
<svg width="437pt" height="284pt"
 viewBox="0.00 0.00 437.00 284.00" xmlns="http://www.w3.org/2000/svg" xmlns:xlink="http://www.w3.org/1999/xlink">
<g id="graph0" class="graph" transform="scale(1 1) rotate(0) translate(4 280)">
<title>Gameplay.Collisions.BaseColliderController</title>
<polygon fill="white" stroke="transparent" points="-4,4 -4,-280 433,-280 433,4 -4,4"/>
<!-- Node1 -->
<g id="node1" class="node">
<title>Node1</title>
<g id="a_node1"><a xlink:title="Base class for controlling the comportement a collision occurs between two objects.">
<polygon fill="#bfbfbf" stroke="black" points="119,-122.5 119,-152.5 250,-152.5 250,-122.5 119,-122.5"/>
<text text-anchor="start" x="127" y="-140.5" font-family="Helvetica,sans-Serif" font-size="10.00">Gameplay.Collisions.Base</text>
<text text-anchor="middle" x="184.5" y="-129.5" font-family="Helvetica,sans-Serif" font-size="10.00">ColliderController</text>
</a>
</g>
</g>
<!-- Node3 -->
<g id="node3" class="node">
<title>Node3</title>
<g id="a_node3"><a xlink:href="class_gameplay_1_1_collisions_1_1_coin_collider_controller.html" target="_top" xlink:title="Class for controlling the comportement of a coin object and the player during their collision.">
<polygon fill="white" stroke="black" points="293.5,-245.5 293.5,-275.5 421.5,-275.5 421.5,-245.5 293.5,-245.5"/>
<text text-anchor="start" x="301.5" y="-263.5" font-family="Helvetica,sans-Serif" font-size="10.00">Gameplay.Collisions.Coin</text>
<text text-anchor="middle" x="357.5" y="-252.5" font-family="Helvetica,sans-Serif" font-size="10.00">ColliderController</text>
</a>
</g>
</g>
<!-- Node1&#45;&gt;Node3 -->
<g id="edge2" class="edge">
<title>Node1&#45;&gt;Node3</title>
<path fill="none" stroke="midnightblue" d="M203.68,-160.68C222.23,-182.93 252.92,-216.08 286,-236.5 291.5,-239.9 297.54,-242.88 303.7,-245.48"/>
<polygon fill="midnightblue" stroke="midnightblue" points="206.22,-158.26 197.18,-152.73 200.8,-162.69 206.22,-158.26"/>
</g>
<!-- Node4 -->
<g id="node4" class="node">
<title>Node4</title>
<g id="a_node4"><a xlink:href="class_gameplay_1_1_collisions_1_1_death_area_collider_controller.html" target="_top" xlink:title="Class for controlling the comportement of the death area object and the player during their collision...">
<polygon fill="white" stroke="black" points="290.5,-196.5 290.5,-226.5 424.5,-226.5 424.5,-196.5 290.5,-196.5"/>
<text text-anchor="start" x="298.5" y="-214.5" font-family="Helvetica,sans-Serif" font-size="10.00">Gameplay.Collisions.Death</text>
<text text-anchor="middle" x="357.5" y="-203.5" font-family="Helvetica,sans-Serif" font-size="10.00">AreaColliderController</text>
</a>
</g>
</g>
<!-- Node1&#45;&gt;Node4 -->
<g id="edge3" class="edge">
<title>Node1&#45;&gt;Node4</title>
<path fill="none" stroke="midnightblue" d="M222.29,-157.28C241.07,-167 264.46,-178.52 286,-187.5 293.52,-190.63 301.61,-193.68 309.53,-196.49"/>
<polygon fill="midnightblue" stroke="midnightblue" points="223.68,-154.06 213.19,-152.53 220.44,-160.26 223.68,-154.06"/>
</g>
<!-- Node5 -->
<g id="node5" class="node">
<title>Node5</title>
<g id="a_node5"><a xlink:href="class_gameplay_1_1_collisions_1_1_modifier_collider_controller.html" target="_top" xlink:title="Class for controlling the comportement of a modifier object and the player during their collision.">
<polygon fill="white" stroke="black" points="286,-147.5 286,-177.5 429,-177.5 429,-147.5 286,-147.5"/>
<text text-anchor="start" x="294" y="-165.5" font-family="Helvetica,sans-Serif" font-size="10.00">Gameplay.Collisions.Modifier</text>
<text text-anchor="middle" x="357.5" y="-154.5" font-family="Helvetica,sans-Serif" font-size="10.00">ColliderController</text>
</a>
</g>
</g>
<!-- Node1&#45;&gt;Node5 -->
<g id="edge4" class="edge">
<title>Node1&#45;&gt;Node5</title>
<path fill="none" stroke="midnightblue" d="M260.07,-148.4C268.6,-149.65 277.28,-150.92 285.76,-152.16"/>
<polygon fill="midnightblue" stroke="midnightblue" points="260.55,-144.93 250.15,-146.95 259.54,-151.86 260.55,-144.93"/>
</g>
<!-- Node6 -->
<g id="node6" class="node">
<title>Node6</title>
<g id="a_node6"><a xlink:href="class_gameplay_1_1_collisions_1_1_nocive_plateform_collider_controller.html" target="_top" xlink:title="Class for controlling the comportement of a nocive plateform element object and the player during the...">
<polygon fill="white" stroke="black" points="289,-98.5 289,-128.5 426,-128.5 426,-98.5 289,-98.5"/>
<text text-anchor="start" x="297" y="-116.5" font-family="Helvetica,sans-Serif" font-size="10.00">Gameplay.Collisions.Nocive</text>
<text text-anchor="middle" x="357.5" y="-105.5" font-family="Helvetica,sans-Serif" font-size="10.00">PlateformColliderController</text>
</a>
</g>
</g>
<!-- Node1&#45;&gt;Node6 -->
<g id="edge5" class="edge">
<title>Node1&#45;&gt;Node6</title>
<path fill="none" stroke="midnightblue" d="M260.06,-127.04C269.65,-125.69 279.44,-124.32 288.91,-122.99"/>
<polygon fill="midnightblue" stroke="midnightblue" points="259.56,-123.57 250.15,-128.43 260.54,-130.5 259.56,-123.57"/>
</g>
<!-- Node7 -->
<g id="node7" class="node">
<title>Node7</title>
<g id="a_node7"><a xlink:href="class_gameplay_1_1_collisions_1_1_normal_plateform_collider_controller.html" target="_top" xlink:title="Class for controlling the comportement of a normal plateform element object and the player during the...">
<polygon fill="white" stroke="black" points="287.5,-49.5 287.5,-79.5 427.5,-79.5 427.5,-49.5 287.5,-49.5"/>
<text text-anchor="start" x="295.5" y="-67.5" font-family="Helvetica,sans-Serif" font-size="10.00">Gameplay.Collisions.Normal</text>
<text text-anchor="middle" x="357.5" y="-56.5" font-family="Helvetica,sans-Serif" font-size="10.00">PlateformColliderController</text>
</a>
</g>
</g>
<!-- Node1&#45;&gt;Node7 -->
<g id="edge6" class="edge">
<title>Node1&#45;&gt;Node7</title>
<path fill="none" stroke="midnightblue" d="M223.14,-117.76C241.79,-108.33 264.81,-97.23 286,-88.5 293.53,-85.4 301.63,-82.37 309.55,-79.56"/>
<polygon fill="midnightblue" stroke="midnightblue" points="221.41,-114.71 214.09,-122.37 224.59,-120.95 221.41,-114.71"/>
</g>
<!-- Node8 -->
<g id="node8" class="node">
<title>Node8</title>
<g id="a_node8"><a xlink:href="class_gameplay_1_1_collisions_1_1_victory_area_collider_controller.html" target="_top" xlink:title="Class for controlling the comportement of the death area object and the player during their collision...">
<polygon fill="white" stroke="black" points="287.5,-0.5 287.5,-30.5 427.5,-30.5 427.5,-0.5 287.5,-0.5"/>
<text text-anchor="start" x="295.5" y="-18.5" font-family="Helvetica,sans-Serif" font-size="10.00">Gameplay.Collisions.Victory</text>
<text text-anchor="middle" x="357.5" y="-7.5" font-family="Helvetica,sans-Serif" font-size="10.00">AreaColliderController</text>
</a>
</g>
</g>
<!-- Node1&#45;&gt;Node8 -->
<g id="edge7" class="edge">
<title>Node1&#45;&gt;Node8</title>
<path fill="none" stroke="midnightblue" d="M203.73,-114.57C222.31,-92.55 253.03,-59.73 286,-39.5 291.51,-36.12 297.56,-33.14 303.72,-30.54"/>
<polygon fill="midnightblue" stroke="midnightblue" points="200.9,-112.49 197.22,-122.43 206.29,-116.96 200.9,-112.49"/>
</g>
<!-- Node2 -->
<g id="node2" class="node">
<title>Node2</title>
<g id="a_node2"><a xlink:title=" ">
<polygon fill="white" stroke="black" points="0,-128 0,-147 83,-147 83,-128 0,-128"/>
<text text-anchor="middle" x="41.5" y="-135" font-family="Helvetica,sans-Serif" font-size="10.00">MonoBehaviour</text>
</a>
</g>
</g>
<!-- Node2&#45;&gt;Node1 -->
<g id="edge1" class="edge">
<title>Node2&#45;&gt;Node1</title>
<path fill="none" stroke="midnightblue" d="M93.49,-137.5C101.74,-137.5 110.38,-137.5 118.9,-137.5"/>
<polygon fill="midnightblue" stroke="midnightblue" points="93.28,-134 83.28,-137.5 93.28,-141 93.28,-134"/>
</g>
</g>
</svg>
