<?xml version="1.0" encoding="UTF-8" standalone="no"?>
<!DOCTYPE svg PUBLIC "-//W3C//DTD SVG 1.1//EN"
 "http://www.w3.org/Graphics/SVG/1.1/DTD/svg11.dtd">
<!-- Generated by graphviz version 2.50.0 (20211204.2007)
 -->
<!-- Title: Gameplay.Levels.Level.UpdateHudCoins Pages: 1 -->
<svg width="834pt" height="149pt"
 viewBox="0.00 0.00 834.00 148.85" xmlns="http://www.w3.org/2000/svg" xmlns:xlink="http://www.w3.org/1999/xlink">
<g id="graph0" class="graph" transform="scale(1 1) rotate(0) translate(4 144.85)">
<title>Gameplay.Levels.Level.UpdateHudCoins</title>
<polygon fill="white" stroke="transparent" points="-4,4 -4,-144.85 830,-144.85 830,4 -4,4"/>
<!-- Node1 -->
<g id="node1" class="node">
<title>Node1</title>
<g id="a_node1"><a xlink:title="Update the coins HUD content.">
<polygon fill="#bfbfbf" stroke="black" points="677,-66.5 677,-96.5 826,-96.5 826,-66.5 677,-66.5"/>
<text text-anchor="start" x="685" y="-84.5" font-family="Helvetica,sans-Serif" font-size="10.00">Gameplay.Levels.Level.Update</text>
<text text-anchor="middle" x="751.5" y="-73.5" font-family="Helvetica,sans-Serif" font-size="10.00">HudCoins</text>
</a>
</g>
</g>
<!-- Node2 -->
<g id="node2" class="node">
<title>Node2</title>
<g id="a_node2"><a xlink:href="class_gameplay_1_1_levels_1_1_level.html#aa20e112e1769f3b7e67d69b519aa276e" target="_top" xlink:title="Initialize the objects of the level + update HUD.">
<polygon fill="white" stroke="black" points="176,-97 176,-116 307,-116 307,-97 176,-97"/>
<text text-anchor="middle" x="241.5" y="-104" font-family="Helvetica,sans-Serif" font-size="10.00">Gameplay.Levels.Level.Init</text>
</a>
</g>
</g>
<!-- Node1&#45;&gt;Node2 -->
<g id="edge1" class="edge">
<title>Node1&#45;&gt;Node2</title>
<path fill="none" stroke="midnightblue" d="M714.52,-101.34C693.72,-111.67 666.66,-123.23 641,-128.5 513.74,-154.66 359.13,-130.7 285.49,-116"/>
<polygon fill="midnightblue" stroke="midnightblue" points="716.29,-104.37 723.61,-96.71 713.11,-98.13 716.29,-104.37"/>
</g>
<!-- Node4 -->
<g id="node4" class="node">
<title>Node4</title>
<g id="a_node4"><a xlink:href="class_gameplay_1_1_levels_1_1_level.html#a1edabea1d6571656727ced8c7ada4571" target="_top" xlink:title="Action triggered after the die animation ended.">
<polygon fill="white" stroke="black" points="510,-88.5 510,-118.5 641,-118.5 641,-88.5 510,-88.5"/>
<text text-anchor="start" x="518" y="-106.5" font-family="Helvetica,sans-Serif" font-size="10.00">Gameplay.Levels.Level.On</text>
<text text-anchor="middle" x="575.5" y="-95.5" font-family="Helvetica,sans-Serif" font-size="10.00">AfterDie</text>
</a>
</g>
</g>
<!-- Node1&#45;&gt;Node4 -->
<g id="edge3" class="edge">
<title>Node1&#45;&gt;Node4</title>
<path fill="none" stroke="midnightblue" d="M666.88,-92.07C658.26,-93.16 649.6,-94.26 641.23,-95.32"/>
<polygon fill="midnightblue" stroke="midnightblue" points="667.48,-95.52 676.96,-90.8 666.6,-88.58 667.48,-95.52"/>
</g>
<!-- Node5 -->
<g id="node5" class="node">
<title>Node5</title>
<g id="a_node5"><a xlink:href="class_gameplay_1_1_levels_1_1_level.html#a7dfa35e881994e49851251ba993e9e01" target="_top" xlink:title="Action triggered when restarting the level.">
<polygon fill="white" stroke="black" points="343,-47.5 343,-77.5 474,-77.5 474,-47.5 343,-47.5"/>
<text text-anchor="start" x="351" y="-65.5" font-family="Helvetica,sans-Serif" font-size="10.00">Gameplay.Levels.Level.On</text>
<text text-anchor="middle" x="408.5" y="-54.5" font-family="Helvetica,sans-Serif" font-size="10.00">Restart</text>
</a>
</g>
</g>
<!-- Node1&#45;&gt;Node5 -->
<g id="edge8" class="edge">
<title>Node1&#45;&gt;Node5</title>
<path fill="none" stroke="midnightblue" d="M666.81,-76.84C607.34,-73.52 528.66,-69.14 474.03,-66.1"/>
<polygon fill="midnightblue" stroke="midnightblue" points="666.75,-80.34 676.93,-77.4 667.14,-73.35 666.75,-80.34"/>
</g>
<!-- Node6 -->
<g id="node6" class="node">
<title>Node6</title>
<g id="a_node6"><a xlink:href="class_gameplay_1_1_levels_1_1_level.html#aae2f6056a525c953e0d8d45e1f60444a" target="_top" xlink:title="Action triggered when a coin is collected.">
<polygon fill="white" stroke="black" points="510,-0.5 510,-30.5 641,-30.5 641,-0.5 510,-0.5"/>
<text text-anchor="start" x="518" y="-18.5" font-family="Helvetica,sans-Serif" font-size="10.00">Gameplay.Levels.Level.On</text>
<text text-anchor="middle" x="575.5" y="-7.5" font-family="Helvetica,sans-Serif" font-size="10.00">HitCoin</text>
</a>
</g>
</g>
<!-- Node1&#45;&gt;Node6 -->
<g id="edge7" class="edge">
<title>Node1&#45;&gt;Node6</title>
<path fill="none" stroke="midnightblue" d="M700.98,-62.72C674.13,-52.53 641.4,-40.12 616.23,-30.57"/>
<polygon fill="midnightblue" stroke="midnightblue" points="699.99,-66.08 710.58,-66.36 702.47,-59.54 699.99,-66.08"/>
</g>
<!-- Node3 -->
<g id="node3" class="node">
<title>Node3</title>
<g id="a_node3"><a xlink:href="class_gameplay_1_1_levels_1_1_level.html#a1beeeb3389e74a65f987b8fbe920adaa" target="_top" xlink:title=" ">
<polygon fill="white" stroke="black" points="0,-97 0,-116 140,-116 140,-97 0,-97"/>
<text text-anchor="middle" x="70" y="-104" font-family="Helvetica,sans-Serif" font-size="10.00">Gameplay.Levels.Level.Start</text>
</a>
</g>
</g>
<!-- Node2&#45;&gt;Node3 -->
<g id="edge2" class="edge">
<title>Node2&#45;&gt;Node3</title>
<path fill="none" stroke="midnightblue" d="M165.68,-106.5C157.2,-106.5 148.59,-106.5 140.18,-106.5"/>
<polygon fill="midnightblue" stroke="midnightblue" points="165.94,-110 175.94,-106.5 165.94,-103 165.94,-110"/>
</g>
<!-- Node4&#45;&gt;Node2 -->
<g id="edge4" class="edge">
<title>Node4&#45;&gt;Node2</title>
<path fill="none" stroke="midnightblue" d="M499.51,-104.18C441.59,-104.7 362.28,-105.42 307.14,-105.92"/>
<polygon fill="midnightblue" stroke="midnightblue" points="499.73,-107.68 509.7,-104.09 499.67,-100.68 499.73,-107.68"/>
</g>
<!-- Node4&#45;&gt;Node5 -->
<g id="edge5" class="edge">
<title>Node4&#45;&gt;Node5</title>
<path fill="none" stroke="midnightblue" d="M504.12,-86.01C492.76,-83.19 481.09,-80.29 470,-77.53"/>
<polygon fill="midnightblue" stroke="midnightblue" points="503.45,-89.45 514,-88.47 505.14,-82.66 503.45,-89.45"/>
</g>
<!-- Node5&#45;&gt;Node2 -->
<g id="edge6" class="edge">
<title>Node5&#45;&gt;Node2</title>
<path fill="none" stroke="midnightblue" d="M341.43,-80.12C319.92,-85.85 296.86,-92 278.42,-96.92"/>
<polygon fill="midnightblue" stroke="midnightblue" points="342.42,-83.48 351.18,-77.52 340.61,-76.71 342.42,-83.48"/>
</g>
</g>
</svg>
