<?xml version="1.0" encoding="UTF-8" standalone="no"?>
<!DOCTYPE svg PUBLIC "-//W3C//DTD SVG 1.1//EN"
 "http://www.w3.org/Graphics/SVG/1.1/DTD/svg11.dtd">
<!-- Generated by graphviz version 2.50.0 (20211204.2007)
 -->
<!-- Title: UI.PauseMenu.OnPause Pages: 1 -->
<svg width="462pt" height="142pt"
 viewBox="0.00 0.00 462.00 142.00" xmlns="http://www.w3.org/2000/svg" xmlns:xlink="http://www.w3.org/1999/xlink">
<g id="graph0" class="graph" transform="scale(1 1) rotate(0) translate(4 138)">
<title>UI.PauseMenu.OnPause</title>
<polygon fill="white" stroke="transparent" points="-4,4 -4,-138 458,-138 458,4 -4,4"/>
<!-- Node1 -->
<g id="node1" class="node">
<title>Node1</title>
<g id="a_node1"><a xlink:title="Action when the game is paused">
<polygon fill="#bfbfbf" stroke="black" points="330,-57.5 330,-76.5 454,-76.5 454,-57.5 330,-57.5"/>
<text text-anchor="middle" x="392" y="-64.5" font-family="Helvetica,sans-Serif" font-size="10.00">UI.PauseMenu.OnPause</text>
</a>
</g>
</g>
<!-- Node2 -->
<g id="node2" class="node">
<title>Node2</title>
<g id="a_node2"><a xlink:href="class_u_i_1_1_pause_menu.html#a026d0f9212c844d7b907728cbd4db5b5" target="_top" xlink:title="Action when the user wants to quit the level">
<polygon fill="white" stroke="black" points="171,-114.5 171,-133.5 285,-133.5 285,-114.5 171,-114.5"/>
<text text-anchor="middle" x="228" y="-121.5" font-family="Helvetica,sans-Serif" font-size="10.00">UI.PauseMenu.OnQuit</text>
</a>
</g>
</g>
<!-- Node1&#45;&gt;Node2 -->
<g id="edge1" class="edge">
<title>Node1&#45;&gt;Node2</title>
<path fill="none" stroke="midnightblue" d="M358.82,-80.44C340.06,-88.06 315.86,-97.54 294,-105 284.32,-108.3 273.71,-111.56 263.92,-114.41"/>
<polygon fill="midnightblue" stroke="midnightblue" points="360.16,-83.67 368.09,-76.64 357.51,-77.19 360.16,-83.67"/>
</g>
<!-- Node4 -->
<g id="node4" class="node">
<title>Node4</title>
<g id="a_node4"><a xlink:href="class_u_i_1_1_pause_menu.html#ab3c1aa7535d4269bdbc869d5744b8d8f" target="_top" xlink:title="Action when the user wants to restart the level">
<polygon fill="white" stroke="black" points="164,-76.5 164,-95.5 292,-95.5 292,-76.5 164,-76.5"/>
<text text-anchor="middle" x="228" y="-83.5" font-family="Helvetica,sans-Serif" font-size="10.00">UI.PauseMenu.OnRestart</text>
</a>
</g>
</g>
<!-- Node1&#45;&gt;Node4 -->
<g id="edge3" class="edge">
<title>Node1&#45;&gt;Node4</title>
<path fill="none" stroke="midnightblue" d="M319.57,-75.38C310.46,-76.45 301.19,-77.53 292.22,-78.59"/>
<polygon fill="midnightblue" stroke="midnightblue" points="320.23,-78.82 329.75,-74.18 319.42,-71.87 320.23,-78.82"/>
</g>
<!-- Node5 -->
<g id="node5" class="node">
<title>Node5</title>
<g id="a_node5"><a xlink:href="class_u_i_1_1_pause_menu.html#a84dd1578b640d6dbde4112f3d63e1276" target="_top" xlink:title="Action when the user wants to resume the level">
<polygon fill="white" stroke="black" points="162,-38.5 162,-57.5 294,-57.5 294,-38.5 162,-38.5"/>
<text text-anchor="middle" x="228" y="-45.5" font-family="Helvetica,sans-Serif" font-size="10.00">UI.PauseMenu.OnResume</text>
</a>
</g>
</g>
<!-- Node1&#45;&gt;Node5 -->
<g id="edge5" class="edge">
<title>Node1&#45;&gt;Node5</title>
<path fill="none" stroke="midnightblue" d="M319.81,-58.65C311.26,-57.65 302.57,-56.63 294.11,-55.64"/>
<polygon fill="midnightblue" stroke="midnightblue" points="319.42,-62.13 329.75,-59.82 320.23,-55.18 319.42,-62.13"/>
</g>
<!-- Node6 -->
<g id="node6" class="node">
<title>Node6</title>
<g id="a_node6"><a xlink:href="class_u_i_1_1_pause_menu.html#a1768d4b5b26c2ae932609c3f212cfd6e" target="_top" xlink:title=" ">
<polygon fill="white" stroke="black" points="171,-0.5 171,-19.5 285,-19.5 285,-0.5 171,-0.5"/>
<text text-anchor="middle" x="228" y="-7.5" font-family="Helvetica,sans-Serif" font-size="10.00">UI.PauseMenu.Update</text>
</a>
</g>
</g>
<!-- Node1&#45;&gt;Node6 -->
<g id="edge7" class="edge">
<title>Node1&#45;&gt;Node6</title>
<path fill="none" stroke="midnightblue" d="M358.82,-53.56C340.06,-45.94 315.86,-36.46 294,-29 284.32,-25.7 273.71,-22.44 263.92,-19.59"/>
<polygon fill="midnightblue" stroke="midnightblue" points="357.51,-56.81 368.09,-57.36 360.16,-50.33 357.51,-56.81"/>
</g>
<!-- Node3 -->
<g id="node3" class="node">
<title>Node3</title>
<g id="a_node3"><a xlink:href="class_u_i_1_1_pause_menu.html#a3fb15595a9987d4bf94c6c88bb537e4f" target="_top" xlink:title=" ">
<polygon fill="white" stroke="black" points="0,-76.5 0,-95.5 126,-95.5 126,-76.5 0,-76.5"/>
<text text-anchor="middle" x="63" y="-83.5" font-family="Helvetica,sans-Serif" font-size="10.00">UI.PauseMenu.OnEnable</text>
</a>
</g>
</g>
<!-- Node2&#45;&gt;Node3 -->
<g id="edge2" class="edge">
<title>Node2&#45;&gt;Node3</title>
<path fill="none" stroke="midnightblue" d="M175.97,-112.1C153.06,-106.76 126.4,-100.55 104.84,-95.52"/>
<polygon fill="midnightblue" stroke="midnightblue" points="175.33,-115.55 185.87,-114.41 176.92,-108.73 175.33,-115.55"/>
</g>
<!-- Node4&#45;&gt;Node3 -->
<g id="edge4" class="edge">
<title>Node4&#45;&gt;Node3</title>
<path fill="none" stroke="midnightblue" d="M153.95,-86C144.63,-86 135.17,-86 126.05,-86"/>
<polygon fill="midnightblue" stroke="midnightblue" points="153.98,-89.5 163.98,-86 153.98,-82.5 153.98,-89.5"/>
</g>
<!-- Node5&#45;&gt;Node3 -->
<g id="edge6" class="edge">
<title>Node5&#45;&gt;Node3</title>
<path fill="none" stroke="midnightblue" d="M175.97,-59.9C153.06,-65.24 126.4,-71.45 104.84,-76.48"/>
<polygon fill="midnightblue" stroke="midnightblue" points="176.92,-63.27 185.87,-57.59 175.33,-56.45 176.92,-63.27"/>
</g>
</g>
</svg>
