<?xml version="1.0" encoding="UTF-8" standalone="no"?>
<!DOCTYPE svg PUBLIC "-//W3C//DTD SVG 1.1//EN"
 "http://www.w3.org/Graphics/SVG/1.1/DTD/svg11.dtd">
<!-- Generated by graphviz version 2.50.0 (20211204.2007)
 -->
<!-- Title: Gameplay.Levels.Level.Init Pages: 1 -->
<svg width="974pt" height="467pt"
 viewBox="0.00 0.00 974.00 467.00" xmlns="http://www.w3.org/2000/svg" xmlns:xlink="http://www.w3.org/1999/xlink">
<g id="graph0" class="graph" transform="scale(1 1) rotate(0) translate(4 463)">
<title>Gameplay.Levels.Level.Init</title>
<polygon fill="white" stroke="transparent" points="-4,4 -4,-463 970,-463 970,4 -4,4"/>
<!-- Node1 -->
<g id="node1" class="node">
<title>Node1</title>
<g id="a_node1"><a xlink:title="Initialize the objects of the level + update HUD.">
<polygon fill="#bfbfbf" stroke="black" points="0,-228 0,-247 131,-247 131,-228 0,-228"/>
<text text-anchor="middle" x="65.5" y="-235" font-family="Helvetica,sans-Serif" font-size="10.00">Gameplay.Levels.Level.Init</text>
</a>
</g>
</g>
<!-- Node2 -->
<g id="node2" class="node">
<title>Node2</title>
<g id="a_node2"><a xlink:href="class_framework_1_1_managers_1_1_skin_manager.html#a6819b95b9c68604c6fad307950a4a916" target="_top" xlink:title="Get the animation of the skin.">
<polygon fill="white" stroke="black" points="167,-428.5 167,-458.5 340,-458.5 340,-428.5 167,-428.5"/>
<text text-anchor="start" x="175" y="-446.5" font-family="Helvetica,sans-Serif" font-size="10.00">Framework.Managers.SkinManager.</text>
<text text-anchor="middle" x="253.5" y="-435.5" font-family="Helvetica,sans-Serif" font-size="10.00">GetAnimatorCharacter</text>
</a>
</g>
</g>
<!-- Node1&#45;&gt;Node2 -->
<g id="edge1" class="edge">
<title>Node1&#45;&gt;Node2</title>
<path fill="none" stroke="midnightblue" d="M68.95,-247.14C77.18,-277.47 106.74,-371.76 167,-419.5 168.77,-420.9 170.61,-422.22 172.52,-423.46"/>
<polygon fill="midnightblue" stroke="midnightblue" points="170.81,-426.52 181.24,-428.43 174.28,-420.44 170.81,-426.52"/>
</g>
<!-- Node3 -->
<g id="node3" class="node">
<title>Node3</title>
<g id="a_node3"><a xlink:href="class_framework_1_1_managers_1_1_skin_manager.html#aff79dbc75d78decfee3676b036988823" target="_top" xlink:title="Get the sprite of the &quot;level progression bar&quot; of the skin">
<polygon fill="white" stroke="black" points="167,-379.5 167,-409.5 340,-409.5 340,-379.5 167,-379.5"/>
<text text-anchor="start" x="175" y="-397.5" font-family="Helvetica,sans-Serif" font-size="10.00">Framework.Managers.SkinManager.</text>
<text text-anchor="middle" x="253.5" y="-386.5" font-family="Helvetica,sans-Serif" font-size="10.00">GetSpriteProgression</text>
</a>
</g>
</g>
<!-- Node1&#45;&gt;Node3 -->
<g id="edge2" class="edge">
<title>Node1&#45;&gt;Node3</title>
<path fill="none" stroke="midnightblue" d="M71.04,-247.25C83.03,-271.89 117.99,-337.06 167,-370.5 169.39,-372.13 171.88,-373.65 174.46,-375.06"/>
<polygon fill="midnightblue" stroke="midnightblue" points="172.97,-378.23 183.49,-379.5 176.06,-371.95 172.97,-378.23"/>
</g>
<!-- Node4 -->
<g id="node4" class="node">
<title>Node4</title>
<g id="a_node4"><a xlink:href="class_gameplay_1_1_levels_1_1_level.html#ad33d985fb8c073990980602d1d52914c" target="_top" xlink:title="Load the scene &quot;Main Menu&quot;.">
<polygon fill="white" stroke="black" points="188,-330.5 188,-360.5 319,-360.5 319,-330.5 188,-330.5"/>
<text text-anchor="start" x="196" y="-348.5" font-family="Helvetica,sans-Serif" font-size="10.00">Gameplay.Levels.Level.Go</text>
<text text-anchor="middle" x="253.5" y="-337.5" font-family="Helvetica,sans-Serif" font-size="10.00">ToMainMenu</text>
</a>
</g>
</g>
<!-- Node1&#45;&gt;Node4 -->
<g id="edge3" class="edge">
<title>Node1&#45;&gt;Node4</title>
<path fill="none" stroke="midnightblue" d="M76.56,-247.14C93.82,-263.23 130.73,-295.74 167,-315.5 174.63,-319.65 182.94,-323.41 191.3,-326.75"/>
<polygon fill="midnightblue" stroke="midnightblue" points="190.11,-330.05 200.7,-330.34 192.61,-323.51 190.11,-330.05"/>
</g>
<!-- Node5 -->
<g id="node5" class="node">
<title>Node5</title>
<g id="a_node5"><a xlink:href="class_gameplay_1_1_levels_1_1_level.html#a1edabea1d6571656727ced8c7ada4571" target="_top" xlink:title="Action triggered after the die animation ended.">
<polygon fill="white" stroke="black" points="394,-175.5 394,-205.5 525,-205.5 525,-175.5 394,-175.5"/>
<text text-anchor="start" x="402" y="-193.5" font-family="Helvetica,sans-Serif" font-size="10.00">Gameplay.Levels.Level.On</text>
<text text-anchor="middle" x="459.5" y="-182.5" font-family="Helvetica,sans-Serif" font-size="10.00">AfterDie</text>
</a>
</g>
</g>
<!-- Node1&#45;&gt;Node5 -->
<g id="edge4" class="edge">
<title>Node1&#45;&gt;Node5</title>
<path fill="none" stroke="midnightblue" d="M100.66,-227.95C119.98,-222.89 144.67,-217.02 167,-213.5 240.24,-201.94 324.79,-196.08 383.9,-193.19"/>
<polygon fill="midnightblue" stroke="midnightblue" points="384.08,-196.68 393.9,-192.71 383.75,-189.69 384.08,-196.68"/>
</g>
<!-- Node8 -->
<g id="node8" class="node">
<title>Node8</title>
<g id="a_node8"><a xlink:href="class_gameplay_1_1_levels_1_1_level.html#a6c33c44ecf4f79f1e7c83375109314d6" target="_top" xlink:title="Update the attempt HUD content.">
<polygon fill="white" stroke="black" points="581,-268.5 581,-298.5 730,-298.5 730,-268.5 581,-268.5"/>
<text text-anchor="start" x="589" y="-286.5" font-family="Helvetica,sans-Serif" font-size="10.00">Gameplay.Levels.Level.Update</text>
<text text-anchor="middle" x="655.5" y="-275.5" font-family="Helvetica,sans-Serif" font-size="10.00">HudAttempt</text>
</a>
</g>
</g>
<!-- Node1&#45;&gt;Node8 -->
<g id="edge15" class="edge">
<title>Node1&#45;&gt;Node8</title>
<path fill="none" stroke="midnightblue" d="M100.22,-247.09C119.61,-252.3 144.52,-258.49 167,-262.5 331.82,-291.93 375.58,-287 543,-285.5 551.96,-285.42 561.32,-285.3 570.65,-285.17"/>
<polygon fill="midnightblue" stroke="midnightblue" points="570.79,-288.66 580.73,-285.01 570.68,-281.67 570.79,-288.66"/>
</g>
<!-- Node9 -->
<g id="node9" class="node">
<title>Node9</title>
<g id="a_node9"><a xlink:href="class_gameplay_1_1_levels_1_1_level.html#a24d473e1589e1ea464c59f7502a90919" target="_top" xlink:title="Update the coins HUD content.">
<polygon fill="white" stroke="black" points="581,-128.5 581,-158.5 730,-158.5 730,-128.5 581,-128.5"/>
<text text-anchor="start" x="589" y="-146.5" font-family="Helvetica,sans-Serif" font-size="10.00">Gameplay.Levels.Level.Update</text>
<text text-anchor="middle" x="655.5" y="-135.5" font-family="Helvetica,sans-Serif" font-size="10.00">HudCoins</text>
</a>
</g>
</g>
<!-- Node1&#45;&gt;Node9 -->
<g id="edge16" class="edge">
<title>Node1&#45;&gt;Node9</title>
<path fill="none" stroke="midnightblue" d="M84.98,-227.84C104.84,-217.75 137.52,-201.96 167,-191.5 257.41,-159.41 280.83,-149.6 376,-137.5 449.63,-128.14 468.8,-135.51 543,-137.5 551.97,-137.74 561.33,-138.09 570.66,-138.5"/>
<polygon fill="midnightblue" stroke="midnightblue" points="570.6,-142 580.75,-138.97 570.92,-135.01 570.6,-142"/>
</g>
<!-- Node10 -->
<g id="node10" class="node">
<title>Node10</title>
<g id="a_node10"><a xlink:href="class_gameplay_1_1_levels_1_1_level.html#afe3c32025f38a8662c604500a30d2c78" target="_top" xlink:title="Action triggered when the pause menu is opened or closed.">
<polygon fill="white" stroke="black" points="188,-49.5 188,-79.5 319,-79.5 319,-49.5 188,-49.5"/>
<text text-anchor="start" x="196" y="-67.5" font-family="Helvetica,sans-Serif" font-size="10.00">Gameplay.Levels.Level.On</text>
<text text-anchor="middle" x="253.5" y="-56.5" font-family="Helvetica,sans-Serif" font-size="10.00">PauseStateChange</text>
</a>
</g>
</g>
<!-- Node1&#45;&gt;Node10 -->
<g id="edge9" class="edge">
<title>Node1&#45;&gt;Node10</title>
<path fill="none" stroke="midnightblue" d="M70.63,-227.95C82.12,-202.51 116.91,-132.4 167,-94.5 172.39,-90.42 178.39,-86.86 184.63,-83.77"/>
<polygon fill="midnightblue" stroke="midnightblue" points="186.24,-86.88 193.91,-79.56 183.35,-80.5 186.24,-86.88"/>
</g>
<!-- Node11 -->
<g id="node11" class="node">
<title>Node11</title>
<g id="a_node11"><a xlink:href="class_gameplay_1_1_levels_1_1_level.html#a7dfa35e881994e49851251ba993e9e01" target="_top" xlink:title="Action triggered when restarting the level.">
<polygon fill="white" stroke="black" points="188,-222.5 188,-252.5 319,-252.5 319,-222.5 188,-222.5"/>
<text text-anchor="start" x="196" y="-240.5" font-family="Helvetica,sans-Serif" font-size="10.00">Gameplay.Levels.Level.On</text>
<text text-anchor="middle" x="253.5" y="-229.5" font-family="Helvetica,sans-Serif" font-size="10.00">Restart</text>
</a>
</g>
</g>
<!-- Node1&#45;&gt;Node11 -->
<g id="edge10" class="edge">
<title>Node1&#45;&gt;Node11</title>
<path fill="none" stroke="midnightblue" d="M131.03,-237.5C146.09,-237.5 162.26,-237.5 177.72,-237.5"/>
<polygon fill="midnightblue" stroke="midnightblue" points="177.77,-241 187.77,-237.5 177.77,-234 177.77,-241"/>
</g>
<!-- Node13 -->
<g id="node13" class="node">
<title>Node13</title>
<g id="a_node13"><a xlink:href="class_gameplay_1_1_levels_1_1_level.html#a19cf4514d8ce49ad612beb226c7b27e4" target="_top" xlink:title="Update the progression HUD content.">
<polygon fill="white" stroke="black" points="179,-0.5 179,-30.5 328,-30.5 328,-0.5 179,-0.5"/>
<text text-anchor="start" x="187" y="-18.5" font-family="Helvetica,sans-Serif" font-size="10.00">Gameplay.Levels.Level.Update</text>
<text text-anchor="middle" x="253.5" y="-7.5" font-family="Helvetica,sans-Serif" font-size="10.00">HudProgression</text>
</a>
</g>
</g>
<!-- Node1&#45;&gt;Node13 -->
<g id="edge17" class="edge">
<title>Node1&#45;&gt;Node13</title>
<path fill="none" stroke="midnightblue" d="M68.48,-227.94C75.59,-196 102.94,-92.09 167,-39.5 168.56,-38.22 170.19,-37 171.87,-35.85"/>
<polygon fill="midnightblue" stroke="midnightblue" points="173.87,-38.74 180.68,-30.62 170.3,-32.72 173.87,-38.74"/>
</g>
<!-- Node6 -->
<g id="node6" class="node">
<title>Node6</title>
<g id="a_node6"><a xlink:href="class_gameplay_1_1_levels_1_1_level.html#aa1a1ee14dac00df7cbd411f2e078e092" target="_top" xlink:title="Remove the active modifier and its effects.">
<polygon fill="white" stroke="black" points="579,-177.5 579,-207.5 732,-207.5 732,-177.5 579,-177.5"/>
<text text-anchor="start" x="587" y="-195.5" font-family="Helvetica,sans-Serif" font-size="10.00">Gameplay.Levels.Level.Remove</text>
<text text-anchor="middle" x="655.5" y="-184.5" font-family="Helvetica,sans-Serif" font-size="10.00">ModifierEffect</text>
</a>
</g>
</g>
<!-- Node5&#45;&gt;Node6 -->
<g id="edge5" class="edge">
<title>Node5&#45;&gt;Node6</title>
<path fill="none" stroke="midnightblue" d="M525.1,-191.17C539.07,-191.31 554.05,-191.46 568.69,-191.62"/>
<polygon fill="midnightblue" stroke="midnightblue" points="568.72,-195.12 578.76,-191.72 568.79,-188.12 568.72,-195.12"/>
</g>
<!-- Node5&#45;&gt;Node8 -->
<g id="edge7" class="edge">
<title>Node5&#45;&gt;Node8</title>
<path fill="none" stroke="midnightblue" d="M517.12,-205.57C525.92,-208.51 534.8,-211.83 543,-215.5 572.1,-228.53 602.88,-247.76 624.7,-262.45"/>
<polygon fill="midnightblue" stroke="midnightblue" points="622.96,-265.5 633.19,-268.24 626.9,-259.71 622.96,-265.5"/>
</g>
<!-- Node5&#45;&gt;Node9 -->
<g id="edge8" class="edge">
<title>Node5&#45;&gt;Node9</title>
<path fill="none" stroke="midnightblue" d="M522.42,-175.5C541.58,-170.86 562.85,-165.7 582.63,-160.91"/>
<polygon fill="midnightblue" stroke="midnightblue" points="583.61,-164.28 592.51,-158.52 581.96,-157.47 583.61,-164.28"/>
</g>
<!-- Node7 -->
<g id="node7" class="node">
<title>Node7</title>
<g id="a_node7"><a xlink:href="class_gameplay_1_1_actors_1_1_player_controller.html#ac9c55df7e99ebcfef9b303ef9eb78453" target="_top" xlink:title="Removes the current modifier effect (does nothing if the player doesn&#39;t have any modifiers)">
<polygon fill="white" stroke="black" points="768,-177.5 768,-207.5 966,-207.5 966,-177.5 768,-177.5"/>
<text text-anchor="start" x="776" y="-195.5" font-family="Helvetica,sans-Serif" font-size="10.00">Gameplay.Actors.PlayerController.remove</text>
<text text-anchor="middle" x="867" y="-184.5" font-family="Helvetica,sans-Serif" font-size="10.00">ModifierEffect</text>
</a>
</g>
</g>
<!-- Node6&#45;&gt;Node7 -->
<g id="edge6" class="edge">
<title>Node6&#45;&gt;Node7</title>
<path fill="none" stroke="midnightblue" d="M732.13,-192.5C740.47,-192.5 749.08,-192.5 757.72,-192.5"/>
<polygon fill="midnightblue" stroke="midnightblue" points="757.86,-196 767.86,-192.5 757.86,-189 757.86,-196"/>
</g>
<!-- Node11&#45;&gt;Node5 -->
<g id="edge11" class="edge">
<title>Node11&#45;&gt;Node5</title>
<path fill="none" stroke="midnightblue" d="M319.05,-222.63C339.6,-217.89 362.52,-212.61 383.74,-207.73"/>
<polygon fill="midnightblue" stroke="midnightblue" points="384.71,-211.09 393.67,-205.44 383.14,-204.27 384.71,-211.09"/>
</g>
<!-- Node11&#45;&gt;Node8 -->
<g id="edge13" class="edge">
<title>Node11&#45;&gt;Node8</title>
<path fill="none" stroke="midnightblue" d="M313.81,-252.55C333.48,-257.04 355.58,-261.55 376,-264.5 441.02,-273.89 515.28,-278.66 570.75,-281.07"/>
<polygon fill="midnightblue" stroke="midnightblue" points="570.75,-284.58 580.89,-281.5 571.04,-277.58 570.75,-284.58"/>
</g>
<!-- Node11&#45;&gt;Node9 -->
<g id="edge14" class="edge">
<title>Node11&#45;&gt;Node9</title>
<path fill="none" stroke="midnightblue" d="M273.78,-222.24C296.68,-205.06 336.73,-177.94 376,-165.5 439.22,-145.46 514.36,-140.56 570.65,-140.33"/>
<polygon fill="midnightblue" stroke="midnightblue" points="570.93,-143.83 580.94,-140.34 570.94,-136.83 570.93,-143.83"/>
</g>
<!-- Node12 -->
<g id="node12" class="node">
<title>Node12</title>
<g id="a_node12"><a xlink:href="class_gameplay_1_1_actors_1_1_player_controller.html#a746a8a7dcd6b76e69d911fd720a3bc54" target="_top" xlink:title="Resets the player animation">
<polygon fill="white" stroke="black" points="376,-224.5 376,-254.5 543,-254.5 543,-224.5 376,-224.5"/>
<text text-anchor="start" x="384" y="-242.5" font-family="Helvetica,sans-Serif" font-size="10.00">Gameplay.Actors.PlayerController.</text>
<text text-anchor="middle" x="459.5" y="-231.5" font-family="Helvetica,sans-Serif" font-size="10.00">RestartAnimation</text>
</a>
</g>
</g>
<!-- Node11&#45;&gt;Node12 -->
<g id="edge12" class="edge">
<title>Node11&#45;&gt;Node12</title>
<path fill="none" stroke="midnightblue" d="M319.05,-238.13C333.79,-238.28 349.75,-238.43 365.43,-238.59"/>
<polygon fill="midnightblue" stroke="midnightblue" points="365.64,-242.09 375.67,-238.69 365.71,-235.09 365.64,-242.09"/>
</g>
</g>
</svg>
