<?xml version="1.0" encoding="UTF-8" standalone="no"?>
<!DOCTYPE svg PUBLIC "-//W3C//DTD SVG 1.1//EN"
 "http://www.w3.org/Graphics/SVG/1.1/DTD/svg11.dtd">
<!-- Generated by graphviz version 2.50.0 (20211204.2007)
 -->
<!-- Title: Gameplay.Actors.PlayerController.SetModifierEffect Pages: 1 -->
<svg width="342pt" height="39pt"
 viewBox="0.00 0.00 342.00 39.00" xmlns="http://www.w3.org/2000/svg" xmlns:xlink="http://www.w3.org/1999/xlink">
<g id="graph0" class="graph" transform="scale(1 1) rotate(0) translate(4 35)">
<title>Gameplay.Actors.PlayerController.SetModifierEffect</title>
<polygon fill="white" stroke="transparent" points="-4,4 -4,-35 338,-35 338,4 -4,4"/>
<!-- Node1 -->
<g id="node1" class="node">
<title>Node1</title>
<g id="a_node1"><a xlink:title="Sets the player modifier effect, only called when the player doesn&#39;t have an active modifier">
<polygon fill="#bfbfbf" stroke="black" points="167,-0.5 167,-30.5 334,-30.5 334,-0.5 167,-0.5"/>
<text text-anchor="start" x="175" y="-18.5" font-family="Helvetica,sans-Serif" font-size="10.00">Gameplay.Actors.PlayerController.</text>
<text text-anchor="middle" x="250.5" y="-7.5" font-family="Helvetica,sans-Serif" font-size="10.00">SetModifierEffect</text>
</a>
</g>
</g>
<!-- Node2 -->
<g id="node2" class="node">
<title>Node2</title>
<g id="a_node2"><a xlink:href="class_gameplay_1_1_levels_1_1_level.html#a095bfccfa97e7b48dd1674af696d3827" target="_top" xlink:title="Action triggered when a modifier is recolted.">
<polygon fill="white" stroke="black" points="0,-0.5 0,-30.5 131,-30.5 131,-0.5 0,-0.5"/>
<text text-anchor="start" x="8" y="-18.5" font-family="Helvetica,sans-Serif" font-size="10.00">Gameplay.Levels.Level.On</text>
<text text-anchor="middle" x="65.5" y="-7.5" font-family="Helvetica,sans-Serif" font-size="10.00">HitModifier</text>
</a>
</g>
</g>
<!-- Node1&#45;&gt;Node2 -->
<g id="edge1" class="edge">
<title>Node1&#45;&gt;Node2</title>
<path fill="none" stroke="midnightblue" d="M156.73,-15.5C148.12,-15.5 139.52,-15.5 131.25,-15.5"/>
<polygon fill="midnightblue" stroke="midnightblue" points="156.83,-19 166.83,-15.5 156.83,-12 156.83,-19"/>
</g>
</g>
</svg>
