<?xml version="1.0" encoding="UTF-8" standalone="no"?>
<!DOCTYPE svg PUBLIC "-//W3C//DTD SVG 1.1//EN"
 "http://www.w3.org/Graphics/SVG/1.1/DTD/svg11.dtd">
<!-- Generated by graphviz version 2.50.0 (20211204.2007)
 -->
<!-- Title: Gameplay.Actors.PlayerController.RunUpdate Pages: 1 -->
<svg width="589pt" height="137pt"
 viewBox="0.00 0.00 589.00 137.00" xmlns="http://www.w3.org/2000/svg" xmlns:xlink="http://www.w3.org/1999/xlink">
<g id="graph0" class="graph" transform="scale(1 1) rotate(0) translate(4 133)">
<title>Gameplay.Actors.PlayerController.RunUpdate</title>
<polygon fill="white" stroke="transparent" points="-4,4 -4,-133 585,-133 585,4 -4,4"/>
<!-- Node1 -->
<g id="node1" class="node">
<title>Node1</title>
<g id="a_node1"><a xlink:title="Function called every frame as long as the player should move">
<polygon fill="#bfbfbf" stroke="black" points="0,-49.5 0,-79.5 167,-79.5 167,-49.5 0,-49.5"/>
<text text-anchor="start" x="8" y="-67.5" font-family="Helvetica,sans-Serif" font-size="10.00">Gameplay.Actors.PlayerController.</text>
<text text-anchor="middle" x="83.5" y="-56.5" font-family="Helvetica,sans-Serif" font-size="10.00">RunUpdate</text>
</a>
</g>
</g>
<!-- Node2 -->
<g id="node2" class="node">
<title>Node2</title>
<g id="a_node2"><a xlink:href="class_gameplay_1_1_actors_1_1_player_controller.html#a5ac8f6cfda1a9064b6bf87c47a84423d" target="_top" xlink:title="Gets a value that is multiplied to the speed, ex: 2.0 means that the player sould go two times as fas...">
<polygon fill="white" stroke="black" points="207,-98.5 207,-128.5 374,-128.5 374,-98.5 207,-98.5"/>
<text text-anchor="start" x="215" y="-116.5" font-family="Helvetica,sans-Serif" font-size="10.00">Gameplay.Actors.PlayerController.</text>
<text text-anchor="middle" x="290.5" y="-105.5" font-family="Helvetica,sans-Serif" font-size="10.00">GetSpeedMultiplier</text>
</a>
</g>
</g>
<!-- Node1&#45;&gt;Node2 -->
<g id="edge1" class="edge">
<title>Node1&#45;&gt;Node2</title>
<path fill="none" stroke="midnightblue" d="M147.4,-79.53C169.34,-84.78 194.14,-90.71 216.81,-96.13"/>
<polygon fill="midnightblue" stroke="midnightblue" points="216.18,-99.57 226.72,-98.49 217.81,-92.76 216.18,-99.57"/>
</g>
<!-- Node3 -->
<g id="node3" class="node">
<title>Node3</title>
<g id="a_node3"><a xlink:href="class_gameplay_1_1_actors_1_1_player_controller.html#a50d1ab7694d73b9da08045fe23365346" target="_top" xlink:title="Returns true if the player is on the ground">
<polygon fill="white" stroke="black" points="203,-49.5 203,-79.5 378,-79.5 378,-49.5 203,-49.5"/>
<text text-anchor="start" x="211" y="-67.5" font-family="Helvetica,sans-Serif" font-size="10.00">Gameplay.Actors.PlayerController.is</text>
<text text-anchor="middle" x="290.5" y="-56.5" font-family="Helvetica,sans-Serif" font-size="10.00">OnGround</text>
</a>
</g>
</g>
<!-- Node1&#45;&gt;Node3 -->
<g id="edge2" class="edge">
<title>Node1&#45;&gt;Node3</title>
<path fill="none" stroke="midnightblue" d="M167.29,-64.5C175.59,-64.5 184.06,-64.5 192.48,-64.5"/>
<polygon fill="midnightblue" stroke="midnightblue" points="192.72,-68 202.72,-64.5 192.72,-61 192.72,-68"/>
</g>
<!-- Node5 -->
<g id="node5" class="node">
<title>Node5</title>
<g id="a_node5"><a xlink:href="class_gameplay_1_1_actors_1_1_player_controller.html#a59c054f72769ee094735f99215c8a50b" target="_top" xlink:title="Toggle the value of nextWalkClip between ClipOnWalk1 and ClipOnWalk2">
<polygon fill="white" stroke="black" points="207,-0.5 207,-30.5 374,-30.5 374,-0.5 207,-0.5"/>
<text text-anchor="start" x="215" y="-18.5" font-family="Helvetica,sans-Serif" font-size="10.00">Gameplay.Actors.PlayerController.</text>
<text text-anchor="middle" x="290.5" y="-7.5" font-family="Helvetica,sans-Serif" font-size="10.00">ToggleNextWalkClip</text>
</a>
</g>
</g>
<!-- Node1&#45;&gt;Node5 -->
<g id="edge4" class="edge">
<title>Node1&#45;&gt;Node5</title>
<path fill="none" stroke="midnightblue" d="M147.4,-49.47C169.34,-44.22 194.14,-38.29 216.81,-32.87"/>
<polygon fill="midnightblue" stroke="midnightblue" points="217.81,-36.24 226.72,-30.51 216.18,-29.43 217.81,-36.24"/>
</g>
<!-- Node4 -->
<g id="node4" class="node">
<title>Node4</title>
<g id="a_node4"><a xlink:href="class_gameplay_1_1_actors_1_1_player_controller.html#a260e5621b6544ef69a9c2830941d28a0" target="_top" xlink:title="Return true if the player currently has a shield">
<polygon fill="white" stroke="black" points="414,-49.5 414,-79.5 581,-79.5 581,-49.5 414,-49.5"/>
<text text-anchor="start" x="422" y="-67.5" font-family="Helvetica,sans-Serif" font-size="10.00">Gameplay.Actors.PlayerController.</text>
<text text-anchor="middle" x="497.5" y="-56.5" font-family="Helvetica,sans-Serif" font-size="10.00">HasShield</text>
</a>
</g>
</g>
<!-- Node3&#45;&gt;Node4 -->
<g id="edge3" class="edge">
<title>Node3&#45;&gt;Node4</title>
<path fill="none" stroke="midnightblue" d="M378.14,-64.5C386.53,-64.5 395.07,-64.5 403.52,-64.5"/>
<polygon fill="midnightblue" stroke="midnightblue" points="403.76,-68 413.76,-64.5 403.76,-61 403.76,-68"/>
</g>
</g>
</svg>
