<?xml version="1.0" encoding="UTF-8" standalone="no"?>
<!DOCTYPE svg PUBLIC "-//W3C//DTD SVG 1.1//EN"
 "http://www.w3.org/Graphics/SVG/1.1/DTD/svg11.dtd">
<!-- Generated by graphviz version 2.50.0 (20211204.2007)
 -->
<!-- Title: Gameplay.Actors.PlayerController.HasShield Pages: 1 -->
<svg width="792pt" height="124pt"
 viewBox="0.00 0.00 792.00 123.50" xmlns="http://www.w3.org/2000/svg" xmlns:xlink="http://www.w3.org/1999/xlink">
<g id="graph0" class="graph" transform="scale(1 1) rotate(0) translate(4 119.5)">
<title>Gameplay.Actors.PlayerController.HasShield</title>
<polygon fill="white" stroke="transparent" points="-4,4 -4,-119.5 788,-119.5 788,4 -4,4"/>
<!-- Node1 -->
<g id="node1" class="node">
<title>Node1</title>
<g id="a_node1"><a xlink:title="Return true if the player currently has a shield">
<polygon fill="#bfbfbf" stroke="black" points="617,-51.5 617,-81.5 784,-81.5 784,-51.5 617,-51.5"/>
<text text-anchor="start" x="625" y="-69.5" font-family="Helvetica,sans-Serif" font-size="10.00">Gameplay.Actors.PlayerController.</text>
<text text-anchor="middle" x="700.5" y="-58.5" font-family="Helvetica,sans-Serif" font-size="10.00">HasShield</text>
</a>
</g>
</g>
<!-- Node2 -->
<g id="node2" class="node">
<title>Node2</title>
<g id="a_node2"><a xlink:href="class_gameplay_1_1_collisions_1_1_nocive_plateform_collider_controller.html#ac88d5a108a2ada5a4dcd1ea68312d23b" target="_top" xlink:title=" ">
<polygon fill="white" stroke="black" points="414.5,-74 414.5,-115 572.5,-115 572.5,-74 414.5,-74"/>
<text text-anchor="start" x="422.5" y="-103" font-family="Helvetica,sans-Serif" font-size="10.00">Gameplay.Collisions.Nocive</text>
<text text-anchor="start" x="422.5" y="-92" font-family="Helvetica,sans-Serif" font-size="10.00">PlateformColliderController.Fixed</text>
<text text-anchor="middle" x="493.5" y="-81" font-family="Helvetica,sans-Serif" font-size="10.00">Update</text>
</a>
</g>
</g>
<!-- Node1&#45;&gt;Node2 -->
<g id="edge1" class="edge">
<title>Node1&#45;&gt;Node2</title>
<path fill="none" stroke="midnightblue" d="M606.74,-79.17C595.34,-80.73 583.78,-82.31 572.62,-83.83"/>
<polygon fill="midnightblue" stroke="midnightblue" points="607.28,-82.63 616.71,-77.81 606.33,-75.69 607.28,-82.63"/>
</g>
<!-- Node3 -->
<g id="node3" class="node">
<title>Node3</title>
<g id="a_node3"><a xlink:href="class_gameplay_1_1_actors_1_1_player_controller.html#a50d1ab7694d73b9da08045fe23365346" target="_top" xlink:title="Returns true if the player is on the ground">
<polygon fill="white" stroke="black" points="406,-24.5 406,-54.5 581,-54.5 581,-24.5 406,-24.5"/>
<text text-anchor="start" x="414" y="-42.5" font-family="Helvetica,sans-Serif" font-size="10.00">Gameplay.Actors.PlayerController.is</text>
<text text-anchor="middle" x="493.5" y="-31.5" font-family="Helvetica,sans-Serif" font-size="10.00">OnGround</text>
</a>
</g>
</g>
<!-- Node1&#45;&gt;Node3 -->
<g id="edge2" class="edge">
<title>Node1&#45;&gt;Node3</title>
<path fill="none" stroke="midnightblue" d="M606.79,-54.29C598.3,-53.17 589.72,-52.04 581.28,-50.93"/>
<polygon fill="midnightblue" stroke="midnightblue" points="606.34,-57.76 616.71,-55.6 607.25,-50.82 606.34,-57.76"/>
</g>
<!-- Node4 -->
<g id="node4" class="node">
<title>Node4</title>
<g id="a_node4"><a xlink:href="class_gameplay_1_1_actors_1_1_player_controller.html#a52d3180de23e5b05c18aebf6246e54cd" target="_top" xlink:title="Called when the player finishes the level">
<polygon fill="white" stroke="black" points="203,-49.5 203,-79.5 370,-79.5 370,-49.5 203,-49.5"/>
<text text-anchor="start" x="211" y="-67.5" font-family="Helvetica,sans-Serif" font-size="10.00">Gameplay.Actors.PlayerController.</text>
<text text-anchor="middle" x="286.5" y="-56.5" font-family="Helvetica,sans-Serif" font-size="10.00">EndLevelUpdate</text>
</a>
</g>
</g>
<!-- Node3&#45;&gt;Node4 -->
<g id="edge3" class="edge">
<title>Node3&#45;&gt;Node4</title>
<path fill="none" stroke="midnightblue" d="M395.85,-51.29C387.29,-52.33 378.67,-53.38 370.24,-54.41"/>
<polygon fill="midnightblue" stroke="midnightblue" points="396.36,-54.75 405.86,-50.07 395.51,-47.8 396.36,-54.75"/>
</g>
<!-- Node6 -->
<g id="node6" class="node">
<title>Node6</title>
<g id="a_node6"><a xlink:href="class_gameplay_1_1_actors_1_1_player_controller.html#a67f38427074c6f67d460487798c8c914" target="_top" xlink:title="Function called every frame as long as the player should move">
<polygon fill="white" stroke="black" points="203,-0.5 203,-30.5 370,-30.5 370,-0.5 203,-0.5"/>
<text text-anchor="start" x="211" y="-18.5" font-family="Helvetica,sans-Serif" font-size="10.00">Gameplay.Actors.PlayerController.</text>
<text text-anchor="middle" x="286.5" y="-7.5" font-family="Helvetica,sans-Serif" font-size="10.00">RunUpdate</text>
</a>
</g>
</g>
<!-- Node3&#45;&gt;Node6 -->
<g id="edge5" class="edge">
<title>Node3&#45;&gt;Node6</title>
<path fill="none" stroke="midnightblue" d="M395.85,-28.18C387.29,-27.18 378.67,-26.17 370.24,-25.19"/>
<polygon fill="midnightblue" stroke="midnightblue" points="395.52,-31.67 405.86,-29.36 396.33,-24.72 395.52,-31.67"/>
</g>
<!-- Node5 -->
<g id="node5" class="node">
<title>Node5</title>
<g id="a_node5"><a xlink:href="class_gameplay_1_1_actors_1_1_player_controller.html#a044d2d6132001b25ddb0827071820366" target="_top" xlink:title=" ">
<polygon fill="white" stroke="black" points="0,-24.5 0,-54.5 167,-54.5 167,-24.5 0,-24.5"/>
<text text-anchor="start" x="8" y="-42.5" font-family="Helvetica,sans-Serif" font-size="10.00">Gameplay.Actors.PlayerController.</text>
<text text-anchor="middle" x="83.5" y="-31.5" font-family="Helvetica,sans-Serif" font-size="10.00">FixedUpdate</text>
</a>
</g>
</g>
<!-- Node4&#45;&gt;Node5 -->
<g id="edge4" class="edge">
<title>Node4&#45;&gt;Node5</title>
<path fill="none" stroke="midnightblue" d="M192.85,-52.98C184.27,-51.91 175.61,-50.83 167.13,-49.78"/>
<polygon fill="midnightblue" stroke="midnightblue" points="192.52,-56.46 202.88,-54.22 193.38,-49.52 192.52,-56.46"/>
</g>
<!-- Node6&#45;&gt;Node5 -->
<g id="edge6" class="edge">
<title>Node6&#45;&gt;Node5</title>
<path fill="none" stroke="midnightblue" d="M192.85,-26.56C184.27,-27.59 175.61,-28.62 167.13,-29.63"/>
<polygon fill="midnightblue" stroke="midnightblue" points="193.36,-30.03 202.88,-25.37 192.53,-23.08 193.36,-30.03"/>
</g>
</g>
</svg>
