<?xml version="1.0" encoding="UTF-8" standalone="no"?>
<!DOCTYPE svg PUBLIC "-//W3C//DTD SVG 1.1//EN"
 "http://www.w3.org/Graphics/SVG/1.1/DTD/svg11.dtd">
<!-- Generated by graphviz version 2.50.0 (20211204.2007)
 -->
<!-- Title: Gameplay.Collisions.ModifierColliderController.OnSpeedDebuffCollected Pages: 1 -->
<svg width="375pt" height="50pt"
 viewBox="0.00 0.00 375.00 50.00" xmlns="http://www.w3.org/2000/svg" xmlns:xlink="http://www.w3.org/1999/xlink">
<g id="graph0" class="graph" transform="scale(1 1) rotate(0) translate(4 46)">
<title>Gameplay.Collisions.ModifierColliderController.OnSpeedDebuffCollected</title>
<polygon fill="white" stroke="transparent" points="-4,4 -4,-46 371,-46 371,4 -4,4"/>
<!-- Node1 -->
<g id="node1" class="node">
<title>Node1</title>
<g id="a_node1"><a xlink:title="Action when the collided modifier is of type ModifierType.SpeedDebuff.">
<polygon fill="#bfbfbf" stroke="black" points="206,-0.5 206,-41.5 367,-41.5 367,-0.5 206,-0.5"/>
<text text-anchor="start" x="214" y="-29.5" font-family="Helvetica,sans-Serif" font-size="10.00">Gameplay.Collisions.Modifier</text>
<text text-anchor="start" x="214" y="-18.5" font-family="Helvetica,sans-Serif" font-size="10.00">ColliderController.OnSpeedDebuff</text>
<text text-anchor="middle" x="286.5" y="-7.5" font-family="Helvetica,sans-Serif" font-size="10.00">Collected</text>
</a>
</g>
</g>
<!-- Node2 -->
<g id="node2" class="node">
<title>Node2</title>
<g id="a_node2"><a xlink:href="class_gameplay_1_1_collisions_1_1_modifier_collider_controller.html#a49849e03c18e73108b574ae893830e18" target="_top" xlink:title=" ">
<polygon fill="white" stroke="black" points="0,-6 0,-36 170,-36 170,-6 0,-6"/>
<text text-anchor="start" x="8" y="-24" font-family="Helvetica,sans-Serif" font-size="10.00">Gameplay.Collisions.Modifier</text>
<text text-anchor="middle" x="85" y="-13" font-family="Helvetica,sans-Serif" font-size="10.00">ColliderController.OnTriggerEnter2D</text>
</a>
</g>
</g>
<!-- Node1&#45;&gt;Node2 -->
<g id="edge1" class="edge">
<title>Node1&#45;&gt;Node2</title>
<path fill="none" stroke="midnightblue" d="M195.55,-21C187.1,-21 178.55,-21 170.16,-21"/>
<polygon fill="midnightblue" stroke="midnightblue" points="195.79,-24.5 205.79,-21 195.79,-17.5 195.79,-24.5"/>
</g>
</g>
</svg>
