<?xml version="1.0" encoding="UTF-8" standalone="no"?>
<!DOCTYPE svg PUBLIC "-//W3C//DTD SVG 1.1//EN"
 "http://www.w3.org/Graphics/SVG/1.1/DTD/svg11.dtd">
<!-- Generated by graphviz version 2.50.0 (20211204.2007)
 -->
<!-- Title: Framework.Managers.SkinManager.LoadAnimation Pages: 1 -->
<svg width="599pt" height="39pt"
 viewBox="0.00 0.00 599.00 39.00" xmlns="http://www.w3.org/2000/svg" xmlns:xlink="http://www.w3.org/1999/xlink">
<g id="graph0" class="graph" transform="scale(1 1) rotate(0) translate(4 35)">
<title>Framework.Managers.SkinManager.LoadAnimation</title>
<polygon fill="white" stroke="transparent" points="-4,4 -4,-35 595,-35 595,4 -4,4"/>
<!-- Node1 -->
<g id="node1" class="node">
<title>Node1</title>
<g id="a_node1"><a xlink:title="Load the animations for the skin.">
<polygon fill="#bfbfbf" stroke="black" points="418,-0.5 418,-30.5 591,-30.5 591,-0.5 418,-0.5"/>
<text text-anchor="start" x="426" y="-18.5" font-family="Helvetica,sans-Serif" font-size="10.00">Framework.Managers.SkinManager.</text>
<text text-anchor="middle" x="504.5" y="-7.5" font-family="Helvetica,sans-Serif" font-size="10.00">LoadAnimation</text>
</a>
</g>
</g>
<!-- Node2 -->
<g id="node2" class="node">
<title>Node2</title>
<g id="a_node2"><a xlink:href="class_framework_1_1_managers_1_1_skin_manager.html#a9d26b6d3934867ee10b1d391ab4ef1e5" target="_top" xlink:title="Load the resources (sprites and animations) for the skin.">
<polygon fill="white" stroke="black" points="209,-0.5 209,-30.5 382,-30.5 382,-0.5 209,-0.5"/>
<text text-anchor="start" x="217" y="-18.5" font-family="Helvetica,sans-Serif" font-size="10.00">Framework.Managers.SkinManager.</text>
<text text-anchor="middle" x="295.5" y="-7.5" font-family="Helvetica,sans-Serif" font-size="10.00">LoadSkin</text>
</a>
</g>
</g>
<!-- Node1&#45;&gt;Node2 -->
<g id="edge1" class="edge">
<title>Node1&#45;&gt;Node2</title>
<path fill="none" stroke="midnightblue" d="M407.8,-15.5C399.24,-15.5 390.6,-15.5 382.12,-15.5"/>
<polygon fill="midnightblue" stroke="midnightblue" points="407.81,-19 417.81,-15.5 407.81,-12 407.81,-19"/>
</g>
<!-- Node3 -->
<g id="node3" class="node">
<title>Node3</title>
<g id="a_node3"><a xlink:href="class_framework_1_1_managers_1_1_skin_manager.html#a2866b2eeb9148d2b0bb2c8a8b9655b2d" target="_top" xlink:title=" ">
<polygon fill="white" stroke="black" points="0,-0.5 0,-30.5 173,-30.5 173,-0.5 0,-0.5"/>
<text text-anchor="start" x="8" y="-18.5" font-family="Helvetica,sans-Serif" font-size="10.00">Framework.Managers.SkinManager.</text>
<text text-anchor="middle" x="86.5" y="-7.5" font-family="Helvetica,sans-Serif" font-size="10.00">Start</text>
</a>
</g>
</g>
<!-- Node2&#45;&gt;Node3 -->
<g id="edge2" class="edge">
<title>Node2&#45;&gt;Node3</title>
<path fill="none" stroke="midnightblue" d="M198.8,-15.5C190.24,-15.5 181.6,-15.5 173.12,-15.5"/>
<polygon fill="midnightblue" stroke="midnightblue" points="198.81,-19 208.81,-15.5 198.81,-12 198.81,-19"/>
</g>
</g>
</svg>
