<?xml version="1.0" encoding="UTF-8" standalone="no"?>
<!DOCTYPE svg PUBLIC "-//W3C//DTD SVG 1.1//EN"
 "http://www.w3.org/Graphics/SVG/1.1/DTD/svg11.dtd">
<!-- Generated by graphviz version 2.50.0 (20211204.2007)
 -->
<!-- Title: UI.MainMenu.UpdateLevelPreview Pages: 1 -->
<svg width="507pt" height="91pt"
 viewBox="0.00 0.00 507.00 91.03" xmlns="http://www.w3.org/2000/svg" xmlns:xlink="http://www.w3.org/1999/xlink">
<g id="graph0" class="graph" transform="scale(1 1) rotate(0) translate(4 87.03)">
<title>UI.MainMenu.UpdateLevelPreview</title>
<polygon fill="white" stroke="transparent" points="-4,4 -4,-87.03 503,-87.03 503,4 -4,4"/>
<!-- Node1 -->
<g id="node1" class="node">
<title>Node1</title>
<g id="a_node1"><a xlink:title="Update the level preview according to the selected Level.">
<polygon fill="#bfbfbf" stroke="black" points="337,-50 337,-69 499,-69 499,-50 337,-50"/>
<text text-anchor="middle" x="418" y="-57" font-family="Helvetica,sans-Serif" font-size="10.00">UI.MainMenu.UpdateLevelPreview</text>
</a>
</g>
</g>
<!-- Node2 -->
<g id="node2" class="node">
<title>Node2</title>
<g id="a_node2"><a xlink:href="class_u_i_1_1_main_menu.html#ab40fcccc87db4d591672acd58904685a" target="_top" xlink:title=" ">
<polygon fill="white" stroke="black" points="0,-50 0,-69 119,-69 119,-50 0,-50"/>
<text text-anchor="middle" x="59.5" y="-57" font-family="Helvetica,sans-Serif" font-size="10.00">UI.MainMenu.OnEnable</text>
</a>
</g>
</g>
<!-- Node1&#45;&gt;Node2 -->
<g id="edge1" class="edge">
<title>Node1&#45;&gt;Node2</title>
<path fill="none" stroke="midnightblue" d="M359.7,-70.78C341.06,-73.94 320.22,-76.94 301,-78.5 236.32,-83.76 219.57,-84.93 155,-78.5 136.35,-76.64 115.93,-72.77 98.86,-69.01"/>
<polygon fill="midnightblue" stroke="midnightblue" points="360.56,-74.18 369.81,-69.01 359.35,-67.29 360.56,-74.18"/>
</g>
<!-- Node3 -->
<g id="node3" class="node">
<title>Node3</title>
<g id="a_node3"><a xlink:href="class_u_i_1_1_main_menu.html#a9b20635bc387077e72c198ad95346989" target="_top" xlink:title="Select next available level.">
<polygon fill="white" stroke="black" points="155,-50 155,-69 301,-69 301,-50 155,-50"/>
<text text-anchor="middle" x="228" y="-57" font-family="Helvetica,sans-Serif" font-size="10.00">UI.MainMenu.SelectNextLevel</text>
</a>
</g>
</g>
<!-- Node1&#45;&gt;Node3 -->
<g id="edge2" class="edge">
<title>Node1&#45;&gt;Node3</title>
<path fill="none" stroke="midnightblue" d="M326.91,-59.5C318.28,-59.5 309.61,-59.5 301.19,-59.5"/>
<polygon fill="midnightblue" stroke="midnightblue" points="327,-63 337,-59.5 327,-56 327,-63"/>
</g>
<!-- Node4 -->
<g id="node4" class="node">
<title>Node4</title>
<g id="a_node4"><a xlink:href="class_u_i_1_1_main_menu.html#a9f761bb577ecbb3b7fd51b4f5260b5c5" target="_top" xlink:title="Select previous available level.">
<polygon fill="white" stroke="black" points="157.5,-0.5 157.5,-30.5 298.5,-30.5 298.5,-0.5 157.5,-0.5"/>
<text text-anchor="start" x="165.5" y="-18.5" font-family="Helvetica,sans-Serif" font-size="10.00">UI.MainMenu.SelectPrevious</text>
<text text-anchor="middle" x="228" y="-7.5" font-family="Helvetica,sans-Serif" font-size="10.00">Level</text>
</a>
</g>
</g>
<!-- Node1&#45;&gt;Node4 -->
<g id="edge4" class="edge">
<title>Node1&#45;&gt;Node4</title>
<path fill="none" stroke="midnightblue" d="M366.22,-47.62C343.8,-42.37 317.17,-36.14 293.37,-30.57"/>
<polygon fill="midnightblue" stroke="midnightblue" points="365.67,-51.08 376.21,-49.95 367.27,-44.27 365.67,-51.08"/>
</g>
<!-- Node3&#45;&gt;Node2 -->
<g id="edge3" class="edge">
<title>Node3&#45;&gt;Node2</title>
<path fill="none" stroke="midnightblue" d="M144.8,-59.5C136.14,-59.5 127.47,-59.5 119.15,-59.5"/>
<polygon fill="midnightblue" stroke="midnightblue" points="144.94,-63 154.94,-59.5 144.94,-56 144.94,-63"/>
</g>
<!-- Node4&#45;&gt;Node2 -->
<g id="edge5" class="edge">
<title>Node4&#45;&gt;Node2</title>
<path fill="none" stroke="midnightblue" d="M160.33,-33.12C138.62,-38.85 115.35,-45 96.75,-49.92"/>
<polygon fill="midnightblue" stroke="midnightblue" points="161.39,-36.46 170.17,-30.52 159.6,-29.69 161.39,-36.46"/>
</g>
</g>
</svg>
