<?xml version="1.0" encoding="UTF-8" standalone="no"?>
<!DOCTYPE svg PUBLIC "-//W3C//DTD SVG 1.1//EN"
 "http://www.w3.org/Graphics/SVG/1.1/DTD/svg11.dtd">
<!-- Generated by graphviz version 2.50.0 (20211204.2007)
 -->
<!-- Title: UI.MainMenu.OnEnable Pages: 1 -->
<svg width="713pt" height="279pt"
 viewBox="0.00 0.00 713.00 279.00" xmlns="http://www.w3.org/2000/svg" xmlns:xlink="http://www.w3.org/1999/xlink">
<g id="graph0" class="graph" transform="scale(1 1) rotate(0) translate(4 275)">
<title>UI.MainMenu.OnEnable</title>
<polygon fill="white" stroke="transparent" points="-4,4 -4,-275 709,-275 709,4 -4,4"/>
<!-- Node1 -->
<g id="node1" class="node">
<title>Node1</title>
<g id="a_node1"><a xlink:title=" ">
<polygon fill="#bfbfbf" stroke="black" points="0,-137.5 0,-156.5 119,-156.5 119,-137.5 0,-137.5"/>
<text text-anchor="middle" x="59.5" y="-144.5" font-family="Helvetica,sans-Serif" font-size="10.00">UI.MainMenu.OnEnable</text>
</a>
</g>
</g>
<!-- Node2 -->
<g id="node2" class="node">
<title>Node2</title>
<g id="a_node2"><a xlink:href="class_u_i_1_1_main_menu.html#a24979c94634d2ec6c0e96a614cb97116" target="_top" xlink:title="Exit the game.">
<polygon fill="white" stroke="black" points="172.5,-251.5 172.5,-270.5 292.5,-270.5 292.5,-251.5 172.5,-251.5"/>
<text text-anchor="middle" x="232.5" y="-258.5" font-family="Helvetica,sans-Serif" font-size="10.00">UI.MainMenu.ExitGame</text>
</a>
</g>
</g>
<!-- Node1&#45;&gt;Node2 -->
<g id="edge1" class="edge">
<title>Node1&#45;&gt;Node2</title>
<path fill="none" stroke="midnightblue" d="M67.1,-156.5C81.01,-175.77 115.33,-219.51 155,-242 158.92,-244.22 163.1,-246.19 167.41,-247.93"/>
<polygon fill="midnightblue" stroke="midnightblue" points="166.4,-251.28 176.99,-251.38 168.77,-244.7 166.4,-251.28"/>
</g>
<!-- Node3 -->
<g id="node3" class="node">
<title>Node3</title>
<g id="a_node3"><a xlink:href="class_u_i_1_1_main_menu.html#a2e6f2bc3e62de3fb1211439dc126132b" target="_top" xlink:title=" ">
<polygon fill="white" stroke="black" points="172.5,-213.5 172.5,-232.5 292.5,-232.5 292.5,-213.5 172.5,-213.5"/>
<text text-anchor="middle" x="232.5" y="-220.5" font-family="Helvetica,sans-Serif" font-size="10.00">UI.MainMenu.LoadShop</text>
</a>
</g>
</g>
<!-- Node1&#45;&gt;Node3 -->
<g id="edge2" class="edge">
<title>Node1&#45;&gt;Node3</title>
<path fill="none" stroke="midnightblue" d="M73.59,-156.65C91.24,-169.24 124.03,-191.16 155,-204 160.89,-206.44 167.17,-208.63 173.5,-210.56"/>
<polygon fill="midnightblue" stroke="midnightblue" points="172.87,-214.02 183.45,-213.4 174.8,-207.29 172.87,-214.02"/>
</g>
<!-- Node4 -->
<g id="node4" class="node">
<title>Node4</title>
<g id="a_node4"><a xlink:href="class_u_i_1_1_main_menu.html#a9b20635bc387077e72c198ad95346989" target="_top" xlink:title="Select next available level.">
<polygon fill="white" stroke="black" points="159.5,-175.5 159.5,-194.5 305.5,-194.5 305.5,-175.5 159.5,-175.5"/>
<text text-anchor="middle" x="232.5" y="-182.5" font-family="Helvetica,sans-Serif" font-size="10.00">UI.MainMenu.SelectNextLevel</text>
</a>
</g>
</g>
<!-- Node1&#45;&gt;Node4 -->
<g id="edge3" class="edge">
<title>Node1&#45;&gt;Node4</title>
<path fill="none" stroke="midnightblue" d="M103.65,-156.59C126.42,-161.65 154.55,-167.9 178.62,-173.25"/>
<polygon fill="midnightblue" stroke="midnightblue" points="178.14,-176.73 188.66,-175.48 179.66,-169.89 178.14,-176.73"/>
</g>
<!-- Node5 -->
<g id="node5" class="node">
<title>Node5</title>
<g id="a_node5"><a xlink:href="class_u_i_1_1_main_menu.html#a50f7b825e00d9deb58342c47dbe45bcc" target="_top" xlink:title="Update the level preview according to the selected Level.">
<polygon fill="white" stroke="black" points="346,-137.5 346,-156.5 508,-156.5 508,-137.5 346,-137.5"/>
<text text-anchor="middle" x="427" y="-144.5" font-family="Helvetica,sans-Serif" font-size="10.00">UI.MainMenu.UpdateLevelPreview</text>
</a>
</g>
</g>
<!-- Node1&#45;&gt;Node5 -->
<g id="edge10" class="edge">
<title>Node1&#45;&gt;Node5</title>
<path fill="none" stroke="midnightblue" d="M119.22,-147C177.67,-147 268.16,-147 335.74,-147"/>
<polygon fill="midnightblue" stroke="midnightblue" points="335.96,-150.5 345.96,-147 335.96,-143.5 335.96,-150.5"/>
</g>
<!-- Node7 -->
<g id="node7" class="node">
<title>Node7</title>
<g id="a_node7"><a xlink:href="class_u_i_1_1_main_menu.html#a9f761bb577ecbb3b7fd51b4f5260b5c5" target="_top" xlink:title="Select previous available level.">
<polygon fill="white" stroke="black" points="162,-88 162,-118 303,-118 303,-88 162,-88"/>
<text text-anchor="start" x="170" y="-106" font-family="Helvetica,sans-Serif" font-size="10.00">UI.MainMenu.SelectPrevious</text>
<text text-anchor="middle" x="232.5" y="-95" font-family="Helvetica,sans-Serif" font-size="10.00">Level</text>
</a>
</g>
</g>
<!-- Node1&#45;&gt;Node7 -->
<g id="edge6" class="edge">
<title>Node1&#45;&gt;Node7</title>
<path fill="none" stroke="midnightblue" d="M97.6,-137.45C116.77,-132.52 140.78,-126.34 163.15,-120.59"/>
<polygon fill="midnightblue" stroke="midnightblue" points="164.14,-123.95 172.95,-118.07 162.39,-117.17 164.14,-123.95"/>
</g>
<!-- Node8 -->
<g id="node8" class="node">
<title>Node8</title>
<g id="a_node8"><a xlink:href="class_u_i_1_1_main_menu.html#a5a8ad3f3e1826abba43332875824d4e7" target="_top" xlink:title="Run the selected level.">
<polygon fill="white" stroke="black" points="164.5,-39 164.5,-69 300.5,-69 300.5,-39 164.5,-39"/>
<text text-anchor="start" x="172.5" y="-57" font-family="Helvetica,sans-Serif" font-size="10.00">UI.MainMenu.StartSelected</text>
<text text-anchor="middle" x="232.5" y="-46" font-family="Helvetica,sans-Serif" font-size="10.00">Level</text>
</a>
</g>
</g>
<!-- Node1&#45;&gt;Node8 -->
<g id="edge8" class="edge">
<title>Node1&#45;&gt;Node8</title>
<path fill="none" stroke="midnightblue" d="M71.4,-137.41C88.27,-123 122.2,-95.65 155,-79 159.29,-76.82 163.81,-74.78 168.42,-72.87"/>
<polygon fill="midnightblue" stroke="midnightblue" points="169.92,-76.04 177.97,-69.15 167.38,-69.52 169.92,-76.04"/>
</g>
<!-- Node9 -->
<g id="node9" class="node">
<title>Node9</title>
<g id="a_node9"><a xlink:href="class_u_i_1_1_main_menu.html#a8d2f06ecccfeeea33645d1420c2f402e" target="_top" xlink:title="Toggle the about panel.">
<polygon fill="white" stroke="black" points="155,-0.5 155,-19.5 310,-19.5 310,-0.5 155,-0.5"/>
<text text-anchor="middle" x="232.5" y="-7.5" font-family="Helvetica,sans-Serif" font-size="10.00">UI.MainMenu.ToggleAboutPanel</text>
</a>
</g>
</g>
<!-- Node1&#45;&gt;Node9 -->
<g id="edge9" class="edge">
<title>Node1&#45;&gt;Node9</title>
<path fill="none" stroke="midnightblue" d="M65.43,-137.4C77.47,-114.92 110.7,-58.62 155,-30 158.87,-27.5 163.03,-25.32 167.35,-23.4"/>
<polygon fill="midnightblue" stroke="midnightblue" points="168.96,-26.53 177,-19.63 166.42,-20.01 168.96,-26.53"/>
</g>
<!-- Node4&#45;&gt;Node5 -->
<g id="edge4" class="edge">
<title>Node4&#45;&gt;Node5</title>
<path fill="none" stroke="midnightblue" d="M282.08,-175.41C308.16,-170.26 340.51,-163.88 367.92,-158.47"/>
<polygon fill="midnightblue" stroke="midnightblue" points="368.64,-161.89 377.77,-156.52 367.28,-155.02 368.64,-161.89"/>
</g>
<!-- Node6 -->
<g id="node6" class="node">
<title>Node6</title>
<g id="a_node6"><a xlink:href="class_u_i_1_1_main_menu.html#aa3edc69981c19a68572c0c8323f02c7c" target="_top" xlink:title="Update the selected bar according to the selected Level.">
<polygon fill="white" stroke="black" points="544,-137.5 544,-156.5 705,-156.5 705,-137.5 544,-137.5"/>
<text text-anchor="middle" x="624.5" y="-144.5" font-family="Helvetica,sans-Serif" font-size="10.00">UI.MainMenu.UpdateProgressBar</text>
</a>
</g>
</g>
<!-- Node5&#45;&gt;Node6 -->
<g id="edge5" class="edge">
<title>Node5&#45;&gt;Node6</title>
<path fill="none" stroke="midnightblue" d="M508.08,-147C516.57,-147 525.24,-147 533.83,-147"/>
<polygon fill="midnightblue" stroke="midnightblue" points="533.86,-150.5 543.86,-147 533.86,-143.5 533.86,-150.5"/>
</g>
<!-- Node7&#45;&gt;Node5 -->
<g id="edge7" class="edge">
<title>Node7&#45;&gt;Node5</title>
<path fill="none" stroke="midnightblue" d="M299.21,-118.02C323.78,-123.64 351.32,-129.93 374.44,-135.21"/>
<polygon fill="midnightblue" stroke="midnightblue" points="373.85,-138.67 384.38,-137.49 375.41,-131.85 373.85,-138.67"/>
</g>
</g>
</svg>
