<?xml version="1.0" encoding="UTF-8" standalone="no"?>
<!DOCTYPE svg PUBLIC "-//W3C//DTD SVG 1.1//EN"
 "http://www.w3.org/Graphics/SVG/1.1/DTD/svg11.dtd">
<!-- Generated by graphviz version 2.50.0 (20211204.2007)
 -->
<!-- Title: Framework.Managers.LevelManager.UpdateDatas Pages: 1 -->
<svg width="325pt" height="116pt"
 viewBox="0.00 0.00 325.00 116.00" xmlns="http://www.w3.org/2000/svg" xmlns:xlink="http://www.w3.org/1999/xlink">
<g id="graph0" class="graph" transform="scale(1 1) rotate(0) translate(4 112)">
<title>Framework.Managers.LevelManager.UpdateDatas</title>
<polygon fill="white" stroke="transparent" points="-4,4 -4,-112 321,-112 321,4 -4,4"/>
<!-- Node1 -->
<g id="node1" class="node">
<title>Node1</title>
<g id="a_node1"><a xlink:title="Update and save the data to the persistant data file.">
<polygon fill="#bfbfbf" stroke="black" points="182,-39 182,-69 317,-69 317,-39 182,-39"/>
<text text-anchor="start" x="190" y="-57" font-family="Helvetica,sans-Serif" font-size="10.00">Framework.Managers.Level</text>
<text text-anchor="middle" x="249.5" y="-46" font-family="Helvetica,sans-Serif" font-size="10.00">Manager.UpdateDatas</text>
</a>
</g>
</g>
<!-- Node2 -->
<g id="node2" class="node">
<title>Node2</title>
<g id="a_node2"><a xlink:href="class_gameplay_1_1_levels_1_1_level.html#afdfd79658a96904e4ac51969e1cd8e2f" target="_top" xlink:title="Action triggered when the player die.">
<polygon fill="white" stroke="black" points="0,-88.5 0,-107.5 146,-107.5 146,-88.5 0,-88.5"/>
<text text-anchor="middle" x="73" y="-95.5" font-family="Helvetica,sans-Serif" font-size="10.00">Gameplay.Levels.Level.OnDie</text>
</a>
</g>
</g>
<!-- Node1&#45;&gt;Node2 -->
<g id="edge1" class="edge">
<title>Node1&#45;&gt;Node2</title>
<path fill="none" stroke="midnightblue" d="M179.2,-71.47C156.19,-77.28 131.44,-83.52 111.73,-88.49"/>
<polygon fill="midnightblue" stroke="midnightblue" points="180.09,-74.86 188.94,-69.02 178.38,-68.07 180.09,-74.86"/>
</g>
<!-- Node3 -->
<g id="node3" class="node">
<title>Node3</title>
<g id="a_node3"><a xlink:href="class_gameplay_1_1_levels_1_1_level.html#a0ea08bce8eb30e31ade55ea694f6dc69" target="_top" xlink:title="Action triggered when the player reaches the end of the level.">
<polygon fill="white" stroke="black" points="7.5,-39 7.5,-69 138.5,-69 138.5,-39 7.5,-39"/>
<text text-anchor="start" x="15.5" y="-57" font-family="Helvetica,sans-Serif" font-size="10.00">Gameplay.Levels.Level.On</text>
<text text-anchor="middle" x="73" y="-46" font-family="Helvetica,sans-Serif" font-size="10.00">Finish</text>
</a>
</g>
</g>
<!-- Node1&#45;&gt;Node3 -->
<g id="edge2" class="edge">
<title>Node1&#45;&gt;Node3</title>
<path fill="none" stroke="midnightblue" d="M171.23,-54C160.39,-54 149.35,-54 138.78,-54"/>
<polygon fill="midnightblue" stroke="midnightblue" points="171.53,-57.5 181.53,-54 171.53,-50.5 171.53,-57.5"/>
</g>
<!-- Node4 -->
<g id="node4" class="node">
<title>Node4</title>
<g id="a_node4"><a xlink:href="class_gameplay_1_1_levels_1_1_level.html#a1beeeb3389e74a65f987b8fbe920adaa" target="_top" xlink:title=" ">
<polygon fill="white" stroke="black" points="3,-0.5 3,-19.5 143,-19.5 143,-0.5 3,-0.5"/>
<text text-anchor="middle" x="73" y="-7.5" font-family="Helvetica,sans-Serif" font-size="10.00">Gameplay.Levels.Level.Start</text>
</a>
</g>
</g>
<!-- Node1&#45;&gt;Node4 -->
<g id="edge3" class="edge">
<title>Node1&#45;&gt;Node4</title>
<path fill="none" stroke="midnightblue" d="M179.2,-36.53C156.19,-30.72 131.44,-24.48 111.73,-19.51"/>
<polygon fill="midnightblue" stroke="midnightblue" points="178.38,-39.93 188.94,-38.98 180.09,-33.14 178.38,-39.93"/>
</g>
</g>
</svg>
