<?xml version="1.0" encoding="UTF-8" standalone="no"?>
<!DOCTYPE svg PUBLIC "-//W3C//DTD SVG 1.1//EN"
 "http://www.w3.org/Graphics/SVG/1.1/DTD/svg11.dtd">
<!-- Generated by graphviz version 2.50.0 (20211204.2007)
 -->
<!-- Title: Gameplay.Levels.Level Pages: 1 -->
<svg width="295pt" height="162pt"
 viewBox="0.00 0.00 295.00 162.00" xmlns="http://www.w3.org/2000/svg" xmlns:xlink="http://www.w3.org/1999/xlink">
<g id="graph0" class="graph" transform="scale(1 1) rotate(0) translate(4 158)">
<title>Gameplay.Levels.Level</title>
<polygon fill="white" stroke="transparent" points="-4,4 -4,-158 291,-158 291,4 -4,4"/>
<!-- Node1 -->
<g id="node1" class="node">
<title>Node1</title>
<g id="a_node1"><a xlink:title="This class is the core of the played level, it retransmit the data to the player and perform action w...">
<polygon fill="#bfbfbf" stroke="black" points="168,-0.5 168,-19.5 284,-19.5 284,-0.5 168,-0.5"/>
<text text-anchor="middle" x="226" y="-7.5" font-family="Helvetica,sans-Serif" font-size="10.00">Gameplay.Levels.Level</text>
</a>
</g>
</g>
<!-- Node2 -->
<g id="node2" class="node">
<title>Node2</title>
<g id="a_node2"><a xlink:title=" ">
<polygon fill="white" stroke="black" points="188.5,-134.5 188.5,-153.5 271.5,-153.5 271.5,-134.5 188.5,-134.5"/>
<text text-anchor="middle" x="230" y="-141.5" font-family="Helvetica,sans-Serif" font-size="10.00">MonoBehaviour</text>
</a>
</g>
</g>
<!-- Node2&#45;&gt;Node1 -->
<g id="edge1" class="edge">
<title>Node2&#45;&gt;Node1</title>
<path fill="none" stroke="midnightblue" d="M247.55,-127.32C268.88,-106.31 299.8,-68.18 281,-38 275.71,-29.51 266.89,-23.62 257.85,-19.56"/>
<polygon fill="midnightblue" stroke="midnightblue" points="245.1,-124.82 240.24,-134.24 249.91,-129.91 245.1,-124.82"/>
</g>
<!-- Node3 -->
<g id="node3" class="node">
<title>Node3</title>
<g id="a_node3"><a xlink:href="class_gameplay_1_1_actors_1_1_player_controller.html" target="_top" xlink:title="This class is used by the player game object to control it (like physics)">
<polygon fill="white" stroke="black" points="5,-67.5 5,-86.5 169,-86.5 169,-67.5 5,-67.5"/>
<text text-anchor="middle" x="87" y="-74.5" font-family="Helvetica,sans-Serif" font-size="10.00">Gameplay.Actors.PlayerController</text>
</a>
</g>
</g>
<!-- Node2&#45;&gt;Node3 -->
<g id="edge3" class="edge">
<title>Node2&#45;&gt;Node3</title>
<path fill="none" stroke="midnightblue" d="M201.65,-130.11C173.33,-117.24 130.57,-97.81 106.07,-86.67"/>
<polygon fill="midnightblue" stroke="midnightblue" points="200.46,-133.42 211.01,-134.37 203.36,-127.04 200.46,-133.42"/>
</g>
<!-- Node5 -->
<g id="node5" class="node">
<title>Node5</title>
<g id="a_node5"><a xlink:href="class_u_i_1_1_pause_menu.html" target="_top" xlink:title="Class for the In Game pause menu">
<polygon fill="white" stroke="black" points="187,-67.5 187,-86.5 267,-86.5 267,-67.5 187,-67.5"/>
<text text-anchor="middle" x="227" y="-74.5" font-family="Helvetica,sans-Serif" font-size="10.00">UI.PauseMenu</text>
</a>
</g>
</g>
<!-- Node2&#45;&gt;Node5 -->
<g id="edge6" class="edge">
<title>Node2&#45;&gt;Node5</title>
<path fill="none" stroke="midnightblue" d="M229.12,-124.04C228.55,-111.67 227.84,-96.12 227.4,-86.63"/>
<polygon fill="midnightblue" stroke="midnightblue" points="225.64,-124.41 229.6,-134.23 232.63,-124.08 225.64,-124.41"/>
</g>
<!-- Node3&#45;&gt;Node1 -->
<g id="edge2" class="edge">
<title>Node3&#45;&gt;Node1</title>
<path fill="none" stroke="#9a32cd" stroke-dasharray="5,2" d="M114.56,-63.11C142.09,-50.24 183.65,-30.81 207.47,-19.67"/>
<polygon fill="#9a32cd" stroke="#9a32cd" points="113.03,-59.96 105.46,-67.37 116,-66.3 113.03,-59.96"/>
<text text-anchor="middle" x="180" y="-41" font-family="Helvetica,sans-Serif" font-size="10.00"> player</text>
</g>
<!-- Node4 -->
<g id="node4" class="node">
<title>Node4</title>
<g id="a_node4"><a xlink:href="class_framework_1_1_data_1_1_modifier_effect_data.html" target="_top" xlink:title="This class is the data of a modifier (contains only data, no modifier behavior).">
<polygon fill="white" stroke="black" points="0,-134.5 0,-153.5 170,-153.5 170,-134.5 0,-134.5"/>
<text text-anchor="middle" x="85" y="-141.5" font-family="Helvetica,sans-Serif" font-size="10.00">Framework.Data.ModifierEffectData</text>
</a>
</g>
</g>
<!-- Node4&#45;&gt;Node3 -->
<g id="edge4" class="edge">
<title>Node4&#45;&gt;Node3</title>
<path fill="none" stroke="#9a32cd" stroke-dasharray="5,2" d="M85.58,-124.04C85.96,-111.67 86.44,-96.12 86.73,-86.63"/>
<polygon fill="#9a32cd" stroke="#9a32cd" points="82.08,-124.13 85.27,-134.23 89.08,-124.35 82.08,-124.13"/>
<text text-anchor="middle" x="113.5" y="-108" font-family="Helvetica,sans-Serif" font-size="10.00"> activeEffect</text>
</g>
<!-- Node5&#45;&gt;Node1 -->
<g id="edge5" class="edge">
<title>Node5&#45;&gt;Node1</title>
<path fill="none" stroke="#9a32cd" stroke-dasharray="5,2" d="M226.71,-57.04C226.52,-44.67 226.28,-29.12 226.13,-19.63"/>
<polygon fill="#9a32cd" stroke="#9a32cd" points="223.21,-57.29 226.87,-67.23 230.21,-57.18 223.21,-57.29"/>
<text text-anchor="middle" x="254" y="-41" font-family="Helvetica,sans-Serif" font-size="10.00"> pauseMenu</text>
</g>
</g>
</svg>
