<?xml version="1.0" encoding="UTF-8" standalone="no"?>
<!DOCTYPE svg PUBLIC "-//W3C//DTD SVG 1.1//EN"
 "http://www.w3.org/Graphics/SVG/1.1/DTD/svg11.dtd">
<!-- Generated by graphviz version 2.50.0 (20211204.2007)
 -->
<!-- Title: Gameplay.Levels.Level.OnFinish Pages: 1 -->
<svg width="553pt" height="137pt"
 viewBox="0.00 0.00 553.00 137.00" xmlns="http://www.w3.org/2000/svg" xmlns:xlink="http://www.w3.org/1999/xlink">
<g id="graph0" class="graph" transform="scale(1 1) rotate(0) translate(4 133)">
<title>Gameplay.Levels.Level.OnFinish</title>
<polygon fill="white" stroke="transparent" points="-4,4 -4,-133 549,-133 549,4 -4,4"/>
<!-- Node1 -->
<g id="node1" class="node">
<title>Node1</title>
<g id="a_node1"><a xlink:title="Action triggered when the player reaches the end of the level.">
<polygon fill="#bfbfbf" stroke="black" points="0,-49.5 0,-79.5 131,-79.5 131,-49.5 0,-49.5"/>
<text text-anchor="start" x="8" y="-67.5" font-family="Helvetica,sans-Serif" font-size="10.00">Gameplay.Levels.Level.On</text>
<text text-anchor="middle" x="65.5" y="-56.5" font-family="Helvetica,sans-Serif" font-size="10.00">Finish</text>
</a>
</g>
</g>
<!-- Node2 -->
<g id="node2" class="node">
<title>Node2</title>
<g id="a_node2"><a xlink:href="class_gameplay_1_1_levels_1_1_level.html#af3474cff257e36bf0b01c711e928024e" target="_top" xlink:title="Async wait some times before calling the next step of the finished level action">
<polygon fill="white" stroke="black" points="185,-98.5 185,-128.5 316,-128.5 316,-98.5 185,-98.5"/>
<text text-anchor="start" x="193" y="-116.5" font-family="Helvetica,sans-Serif" font-size="10.00">Gameplay.Levels.Level.On</text>
<text text-anchor="middle" x="250.5" y="-105.5" font-family="Helvetica,sans-Serif" font-size="10.00">FinishCoroutine</text>
</a>
</g>
</g>
<!-- Node1&#45;&gt;Node2 -->
<g id="edge1" class="edge">
<title>Node1&#45;&gt;Node2</title>
<path fill="none" stroke="midnightblue" d="M122.9,-79.6C142.04,-84.73 163.59,-90.5 183.41,-95.8"/>
<polygon fill="midnightblue" stroke="midnightblue" points="182.72,-99.24 193.29,-98.45 184.53,-92.48 182.72,-99.24"/>
</g>
<!-- Node3 -->
<g id="node3" class="node">
<title>Node3</title>
<g id="a_node3"><a xlink:href="class_gameplay_1_1_actors_1_1_player_controller.html#abfbd2ad3cfa37fb771b08002d077efb8" target="_top" xlink:title="Called by the level script when it&#39;s the end of a level">
<polygon fill="white" stroke="black" points="167,-49.5 167,-79.5 334,-79.5 334,-49.5 167,-49.5"/>
<text text-anchor="start" x="175" y="-67.5" font-family="Helvetica,sans-Serif" font-size="10.00">Gameplay.Actors.PlayerController.</text>
<text text-anchor="middle" x="250.5" y="-56.5" font-family="Helvetica,sans-Serif" font-size="10.00">OnLevelFinished</text>
</a>
</g>
</g>
<!-- Node1&#45;&gt;Node3 -->
<g id="edge2" class="edge">
<title>Node1&#45;&gt;Node3</title>
<path fill="none" stroke="midnightblue" d="M131.02,-64.5C139.38,-64.5 148.06,-64.5 156.77,-64.5"/>
<polygon fill="midnightblue" stroke="midnightblue" points="156.97,-68 166.97,-64.5 156.97,-61 156.97,-68"/>
</g>
<!-- Node4 -->
<g id="node4" class="node">
<title>Node4</title>
<g id="a_node4"><a xlink:href="class_framework_1_1_managers_1_1_level_manager.html#a5f4b6de0cbfad1592b3612c75bd23179" target="_top" xlink:title="Update and save the data to the persistant data file.">
<polygon fill="white" stroke="black" points="183,-0.5 183,-30.5 318,-30.5 318,-0.5 183,-0.5"/>
<text text-anchor="start" x="191" y="-18.5" font-family="Helvetica,sans-Serif" font-size="10.00">Framework.Managers.Level</text>
<text text-anchor="middle" x="250.5" y="-7.5" font-family="Helvetica,sans-Serif" font-size="10.00">Manager.UpdateDatas</text>
</a>
</g>
</g>
<!-- Node1&#45;&gt;Node4 -->
<g id="edge3" class="edge">
<title>Node1&#45;&gt;Node4</title>
<path fill="none" stroke="midnightblue" d="M122.9,-49.4C142.04,-44.27 163.59,-38.5 183.41,-33.2"/>
<polygon fill="midnightblue" stroke="midnightblue" points="184.53,-36.52 193.29,-30.55 182.72,-29.76 184.53,-36.52"/>
</g>
<!-- Node5 -->
<g id="node5" class="node">
<title>Node5</title>
<g id="a_node5"><a xlink:href="class_framework_1_1_managers_1_1_save_manager.html#aa6a2ce7caf04e2f52410bd37e0b764ee" target="_top" xlink:title="Save game datas to file system.">
<polygon fill="white" stroke="black" points="370,-0.5 370,-30.5 545,-30.5 545,-0.5 370,-0.5"/>
<text text-anchor="start" x="378" y="-18.5" font-family="Helvetica,sans-Serif" font-size="10.00">Framework.Managers.SaveManager.</text>
<text text-anchor="middle" x="457.5" y="-7.5" font-family="Helvetica,sans-Serif" font-size="10.00">SaveGameDatas</text>
</a>
</g>
</g>
<!-- Node4&#45;&gt;Node5 -->
<g id="edge4" class="edge">
<title>Node4&#45;&gt;Node5</title>
<path fill="none" stroke="midnightblue" d="M318.06,-15.5C331.32,-15.5 345.51,-15.5 359.55,-15.5"/>
<polygon fill="midnightblue" stroke="midnightblue" points="359.74,-19 369.74,-15.5 359.74,-12 359.74,-19"/>
</g>
</g>
</svg>
