<?xml version="1.0" encoding="UTF-8" standalone="no"?>
<!DOCTYPE svg PUBLIC "-//W3C//DTD SVG 1.1//EN"
 "http://www.w3.org/Graphics/SVG/1.1/DTD/svg11.dtd">
<!-- Generated by graphviz version 2.50.0 (20211204.2007)
 -->
<!-- Title: Gameplay.Levels.Level.UpdateHudProgression Pages: 1 -->
<svg width="512pt" height="78pt"
 viewBox="0.00 0.00 512.00 77.50" xmlns="http://www.w3.org/2000/svg" xmlns:xlink="http://www.w3.org/1999/xlink">
<g id="graph0" class="graph" transform="scale(1 1) rotate(0) translate(4 73.5)">
<title>Gameplay.Levels.Level.UpdateHudProgression</title>
<polygon fill="white" stroke="transparent" points="-4,4 -4,-73.5 508,-73.5 508,4 -4,4"/>
<!-- Node1 -->
<g id="node1" class="node">
<title>Node1</title>
<g id="a_node1"><a xlink:title="Update the progression HUD content.">
<polygon fill="#bfbfbf" stroke="black" points="355,-17 355,-47 504,-47 504,-17 355,-17"/>
<text text-anchor="start" x="363" y="-35" font-family="Helvetica,sans-Serif" font-size="10.00">Gameplay.Levels.Level.Update</text>
<text text-anchor="middle" x="429.5" y="-24" font-family="Helvetica,sans-Serif" font-size="10.00">HudProgression</text>
</a>
</g>
</g>
<!-- Node2 -->
<g id="node2" class="node">
<title>Node2</title>
<g id="a_node2"><a xlink:href="class_gameplay_1_1_levels_1_1_level.html#aa4750ab2e95dfe67b97bd6701ff1c44e" target="_top" xlink:title=" ">
<polygon fill="white" stroke="black" points="176,-39 176,-69 319,-69 319,-39 176,-39"/>
<text text-anchor="start" x="184" y="-57" font-family="Helvetica,sans-Serif" font-size="10.00">Gameplay.Levels.Level.Fixed</text>
<text text-anchor="middle" x="247.5" y="-46" font-family="Helvetica,sans-Serif" font-size="10.00">Update</text>
</a>
</g>
</g>
<!-- Node1&#45;&gt;Node2 -->
<g id="edge1" class="edge">
<title>Node1&#45;&gt;Node2</title>
<path fill="none" stroke="midnightblue" d="M344.78,-42.23C336.23,-43.28 327.61,-44.33 319.21,-45.36"/>
<polygon fill="midnightblue" stroke="midnightblue" points="345.27,-45.7 354.77,-41.01 344.42,-38.75 345.27,-45.7"/>
</g>
<!-- Node3 -->
<g id="node3" class="node">
<title>Node3</title>
<g id="a_node3"><a xlink:href="class_gameplay_1_1_levels_1_1_level.html#aa20e112e1769f3b7e67d69b519aa276e" target="_top" xlink:title="Initialize the objects of the level + update HUD.">
<polygon fill="white" stroke="black" points="182,-0.5 182,-19.5 313,-19.5 313,-0.5 182,-0.5"/>
<text text-anchor="middle" x="247.5" y="-7.5" font-family="Helvetica,sans-Serif" font-size="10.00">Gameplay.Levels.Level.Init</text>
</a>
</g>
</g>
<!-- Node1&#45;&gt;Node3 -->
<g id="edge2" class="edge">
<title>Node1&#45;&gt;Node3</title>
<path fill="none" stroke="midnightblue" d="M344.68,-21.76C334.1,-20.46 323.4,-19.15 313.18,-17.91"/>
<polygon fill="midnightblue" stroke="midnightblue" points="344.42,-25.25 354.77,-22.99 345.27,-18.3 344.42,-25.25"/>
</g>
<!-- Node4 -->
<g id="node4" class="node">
<title>Node4</title>
<g id="a_node4"><a xlink:href="class_gameplay_1_1_levels_1_1_level.html#a1beeeb3389e74a65f987b8fbe920adaa" target="_top" xlink:title=" ">
<polygon fill="white" stroke="black" points="0,-0.5 0,-19.5 140,-19.5 140,-0.5 0,-0.5"/>
<text text-anchor="middle" x="70" y="-7.5" font-family="Helvetica,sans-Serif" font-size="10.00">Gameplay.Levels.Level.Start</text>
</a>
</g>
</g>
<!-- Node3&#45;&gt;Node4 -->
<g id="edge3" class="edge">
<title>Node3&#45;&gt;Node4</title>
<path fill="none" stroke="midnightblue" d="M171.34,-10C160.94,-10 150.29,-10 140,-10"/>
<polygon fill="midnightblue" stroke="midnightblue" points="171.65,-13.5 181.65,-10 171.65,-6.5 171.65,-13.5"/>
</g>
</g>
</svg>
