<?xml version="1.0" encoding="UTF-8" standalone="no"?>
<!DOCTYPE svg PUBLIC "-//W3C//DTD SVG 1.1//EN"
 "http://www.w3.org/Graphics/SVG/1.1/DTD/svg11.dtd">
<!-- Generated by graphviz version 2.50.0 (20211204.2007)
 -->
<!-- Title: Assets/Scripts/Framework Pages: 1 -->
<svg width="344pt" height="111pt"
 viewBox="0.00 0.00 344.00 111.00" xmlns="http://www.w3.org/2000/svg" xmlns:xlink="http://www.w3.org/1999/xlink">
<g id="graph0" class="graph" transform="scale(1 1) rotate(0) translate(4 107)">
<title>Assets/Scripts/Framework</title>
<polygon fill="white" stroke="transparent" points="-4,4 -4,-107 340,-107 340,4 -4,4"/>
<g id="clust1" class="cluster">
<title>clusterdir_f13b41af88cf68434578284aaf699e39</title>
<g id="a_clust1"><a xlink:href="dir_f13b41af88cf68434578284aaf699e39.html" target="_top" xlink:title="Scripts">
<polygon fill="#edf0f7" stroke="#7f7f7f" stroke-dasharray="5,2" points="8,-8 8,-95 328,-95 328,-8 8,-8"/>
<text text-anchor="middle" x="168" y="-83" font-family="Helvetica,sans-Serif" font-size="10.00">Scripts</text>
</a>
</g>
</g>
<g id="clust2" class="cluster">
<title>clusterdir_bdb207e6555c1a38fd44542fb623bcc3</title>
<g id="a_clust2"><a xlink:href="dir_bdb207e6555c1a38fd44542fb623bcc3.html" target="_top">
<polygon fill="#edf0f7" stroke="#404040" stroke-width="2" points="16,-16 16,-68 320,-68 320,-16 16,-16"/>
</a>
</g>
</g>
<!-- dir_bdb207e6555c1a38fd44542fb623bcc3 -->
<g id="node1" class="node">
<title>dir_bdb207e6555c1a38fd44542fb623bcc3</title>
<text text-anchor="middle" x="279" y="-39.5" font-family="Helvetica,sans-Serif" font-size="10.00">Framework</text>
</g>
<!-- dir_1717356e61ca3b791e427668f2010163 -->
<g id="node2" class="node">
<title>dir_1717356e61ca3b791e427668f2010163</title>
<g id="a_node2"><a xlink:href="dir_1717356e61ca3b791e427668f2010163.html" target="_top" xlink:title="Data">
<polygon fill="#a2b4d6" stroke="#404040" points="228,-60 174,-60 174,-24 228,-24 228,-60"/>
<text text-anchor="middle" x="201" y="-39.5" font-family="Helvetica,sans-Serif" font-size="10.00">Data</text>
</a>
</g>
</g>
<!-- dir_09e7f0181a142d351cad7b15066b4e5f -->
<g id="node3" class="node">
<title>dir_09e7f0181a142d351cad7b15066b4e5f</title>
<g id="a_node3"><a xlink:href="dir_09e7f0181a142d351cad7b15066b4e5f.html" target="_top" xlink:title="Managers">
<polygon fill="#a2b4d6" stroke="#404040" points="155.5,-60 96.5,-60 96.5,-24 155.5,-24 155.5,-60"/>
<text text-anchor="middle" x="126" y="-39.5" font-family="Helvetica,sans-Serif" font-size="10.00">Managers</text>
</a>
</g>
</g>
<!-- dir_8dbec1bd4af4b3144115def021ae5145 -->
<g id="node4" class="node">
<title>dir_8dbec1bd4af4b3144115def021ae5145</title>
<g id="a_node4"><a xlink:href="dir_8dbec1bd4af4b3144115def021ae5145.html" target="_top" xlink:title="Utils">
<polygon fill="#a2b4d6" stroke="#404040" points="78,-60 24,-60 24,-24 78,-24 78,-60"/>
<text text-anchor="middle" x="51" y="-39.5" font-family="Helvetica,sans-Serif" font-size="10.00">Utils</text>
</a>
</g>
</g>
</g>
</svg>
