<?xml version="1.0" encoding="UTF-8" standalone="no"?>
<!DOCTYPE svg PUBLIC "-//W3C//DTD SVG 1.1//EN"
 "http://www.w3.org/Graphics/SVG/1.1/DTD/svg11.dtd">
<!-- Generated by graphviz version 2.50.0 (20211204.2007)
 -->
<!-- Title: Assets/Scripts Pages: 1 -->
<svg width="345pt" height="111pt"
 viewBox="0.00 0.00 345.00 111.00" xmlns="http://www.w3.org/2000/svg" xmlns:xlink="http://www.w3.org/1999/xlink">
<g id="graph0" class="graph" transform="scale(1 1) rotate(0) translate(4 107)">
<title>Assets/Scripts</title>
<polygon fill="white" stroke="transparent" points="-4,4 -4,-107 341,-107 341,4 -4,4"/>
<g id="clust1" class="cluster">
<title>clusterdir_84bbf7b3c7f28a5a18725745e1505219</title>
<g id="a_clust1"><a xlink:href="dir_84bbf7b3c7f28a5a18725745e1505219.html" target="_top" xlink:title="Assets">
<polygon fill="#edf0f7" stroke="#404040" stroke-dasharray="5,2" points="8,-8 8,-95 329,-95 329,-8 8,-8"/>
<text text-anchor="middle" x="168.5" y="-83" font-family="Helvetica,sans-Serif" font-size="10.00">Assets</text>
</a>
</g>
</g>
<g id="clust2" class="cluster">
<title>clusterdir_f13b41af88cf68434578284aaf699e39</title>
<g id="a_clust2"><a xlink:href="dir_f13b41af88cf68434578284aaf699e39.html" target="_top">
<polygon fill="#edf0f7" stroke="#404040" stroke-width="2" points="16,-16 16,-68 321,-68 321,-16 16,-16"/>
</a>
</g>
</g>
<!-- dir_f13b41af88cf68434578284aaf699e39 -->
<g id="node1" class="node">
<title>dir_f13b41af88cf68434578284aaf699e39</title>
<text text-anchor="middle" x="286" y="-39.5" font-family="Helvetica,sans-Serif" font-size="10.00">Scripts</text>
</g>
<!-- dir_bdb207e6555c1a38fd44542fb623bcc3 -->
<g id="node2" class="node">
<title>dir_bdb207e6555c1a38fd44542fb623bcc3</title>
<g id="a_node2"><a xlink:href="dir_bdb207e6555c1a38fd44542fb623bcc3.html" target="_top" xlink:title="Framework">
<polygon fill="#a2b4d6" stroke="#404040" points="240.5,-60 175.5,-60 175.5,-24 240.5,-24 240.5,-60"/>
<text text-anchor="middle" x="208" y="-39.5" font-family="Helvetica,sans-Serif" font-size="10.00">Framework</text>
</a>
</g>
</g>
<!-- dir_cef372f8bbddab5569d1e893868c5dc3 -->
<g id="node3" class="node">
<title>dir_cef372f8bbddab5569d1e893868c5dc3</title>
<g id="a_node3"><a xlink:href="dir_cef372f8bbddab5569d1e893868c5dc3.html" target="_top" xlink:title="Gameplay">
<polygon fill="#a2b4d6" stroke="#404040" points="157.5,-60 96.5,-60 96.5,-24 157.5,-24 157.5,-60"/>
<text text-anchor="middle" x="127" y="-39.5" font-family="Helvetica,sans-Serif" font-size="10.00">Gameplay</text>
</a>
</g>
</g>
<!-- dir_4ae35e2d0d203079e26c83ccaec95743 -->
<g id="node4" class="node">
<title>dir_4ae35e2d0d203079e26c83ccaec95743</title>
<g id="a_node4"><a xlink:href="dir_4ae35e2d0d203079e26c83ccaec95743.html" target="_top" xlink:title="UI">
<polygon fill="#a2b4d6" stroke="#404040" points="78,-60 24,-60 24,-24 78,-24 78,-60"/>
<text text-anchor="middle" x="51" y="-39.5" font-family="Helvetica,sans-Serif" font-size="10.00">UI</text>
</a>
</g>
</g>
</g>
</svg>
