<?xml version="1.0" encoding="UTF-8" standalone="no"?>
<!DOCTYPE svg PUBLIC "-//W3C//DTD SVG 1.1//EN"
 "http://www.w3.org/Graphics/SVG/1.1/DTD/svg11.dtd">
<!-- Generated by graphviz version 2.50.0 (20211204.2007)
 -->
<!-- Title: Assets/Scripts/Gameplay Pages: 1 -->
<svg width="340pt" height="111pt"
 viewBox="0.00 0.00 340.00 111.00" xmlns="http://www.w3.org/2000/svg" xmlns:xlink="http://www.w3.org/1999/xlink">
<g id="graph0" class="graph" transform="scale(1 1) rotate(0) translate(4 107)">
<title>Assets/Scripts/Gameplay</title>
<polygon fill="white" stroke="transparent" points="-4,4 -4,-107 336,-107 336,4 -4,4"/>
<g id="clust1" class="cluster">
<title>clusterdir_f13b41af88cf68434578284aaf699e39</title>
<g id="a_clust1"><a xlink:href="dir_f13b41af88cf68434578284aaf699e39.html" target="_top" xlink:title="Scripts">
<polygon fill="#edf0f7" stroke="#7f7f7f" stroke-dasharray="5,2" points="8,-8 8,-95 324,-95 324,-8 8,-8"/>
<text text-anchor="middle" x="166" y="-83" font-family="Helvetica,sans-Serif" font-size="10.00">Scripts</text>
</a>
</g>
</g>
<g id="clust2" class="cluster">
<title>clusterdir_cef372f8bbddab5569d1e893868c5dc3</title>
<g id="a_clust2"><a xlink:href="dir_cef372f8bbddab5569d1e893868c5dc3.html" target="_top">
<polygon fill="#edf0f7" stroke="#404040" stroke-width="2" points="16,-16 16,-68 316,-68 316,-16 16,-16"/>
</a>
</g>
</g>
<!-- dir_cef372f8bbddab5569d1e893868c5dc3 -->
<g id="node1" class="node">
<title>dir_cef372f8bbddab5569d1e893868c5dc3</title>
<text text-anchor="middle" x="277" y="-39.5" font-family="Helvetica,sans-Serif" font-size="10.00">Gameplay</text>
</g>
<!-- dir_b4f3035eaacb6051516cd33b82b40816 -->
<g id="node2" class="node">
<title>dir_b4f3035eaacb6051516cd33b82b40816</title>
<g id="a_node2"><a xlink:href="dir_b4f3035eaacb6051516cd33b82b40816.html" target="_top" xlink:title="Actors">
<polygon fill="#a2b4d6" stroke="#404040" points="228,-60 174,-60 174,-24 228,-24 228,-60"/>
<text text-anchor="middle" x="201" y="-39.5" font-family="Helvetica,sans-Serif" font-size="10.00">Actors</text>
</a>
</g>
</g>
<!-- dir_677fe9ee922a7433cedd8a5d03842a72 -->
<g id="node3" class="node">
<title>dir_677fe9ee922a7433cedd8a5d03842a72</title>
<g id="a_node3"><a xlink:href="dir_677fe9ee922a7433cedd8a5d03842a72.html" target="_top" xlink:title="Collisions">
<polygon fill="#a2b4d6" stroke="#404040" points="155.5,-60 96.5,-60 96.5,-24 155.5,-24 155.5,-60"/>
<text text-anchor="middle" x="126" y="-39.5" font-family="Helvetica,sans-Serif" font-size="10.00">Collisions</text>
</a>
</g>
</g>
<!-- dir_9a78b10eb25d39219b898008b3684b39 -->
<g id="node4" class="node">
<title>dir_9a78b10eb25d39219b898008b3684b39</title>
<g id="a_node4"><a xlink:href="dir_9a78b10eb25d39219b898008b3684b39.html" target="_top" xlink:title="Levels">
<polygon fill="#a2b4d6" stroke="#404040" points="78,-60 24,-60 24,-24 78,-24 78,-60"/>
<text text-anchor="middle" x="51" y="-39.5" font-family="Helvetica,sans-Serif" font-size="10.00">Levels</text>
</a>
</g>
</g>
</g>
</svg>
