<?xml version="1.0" encoding="UTF-8" standalone="no"?>
<!DOCTYPE svg PUBLIC "-//W3C//DTD SVG 1.1//EN"
 "http://www.w3.org/Graphics/SVG/1.1/DTD/svg11.dtd">
<!-- Generated by graphviz version 2.50.0 (20211204.2007)
 -->
<!-- Title: Graphical Class Hierarchy Pages: 1 -->
<svg width="478pt" height="596pt"
 viewBox="0.00 0.00 478.00 595.50" xmlns="http://www.w3.org/2000/svg" xmlns:xlink="http://www.w3.org/1999/xlink">
<g id="graph0" class="graph" transform="scale(1 1) rotate(0) translate(4 591.5)">
<title>Graphical Class Hierarchy</title>
<polygon fill="white" stroke="transparent" points="-4,4 -4,-591.5 474,-591.5 474,4 -4,4"/>
<!-- Node0 -->
<g id="node1" class="node">
<title>Node0</title>
<g id="a_node1"><a xlink:title=" ">
<polygon fill="white" stroke="#bfbfbf" points="0,-278.5 0,-297.5 83,-297.5 83,-278.5 0,-278.5"/>
<text text-anchor="middle" x="41.5" y="-285.5" font-family="Helvetica,sans-Serif" font-size="10.00">MonoBehaviour</text>
</a>
</g>
</g>
<!-- Node1 -->
<g id="node2" class="node">
<title>Node1</title>
<g id="a_node2"><a xlink:href="class_framework_1_1_managers_1_1_level_manager.html" target="_top" xlink:title="This class is a manager for the level, it is used for storing the level data when a level is running....">
<polygon fill="white" stroke="black" points="137.5,-557 137.5,-587 272.5,-587 272.5,-557 137.5,-557"/>
<text text-anchor="start" x="145.5" y="-575" font-family="Helvetica,sans-Serif" font-size="10.00">Framework.Managers.Level</text>
<text text-anchor="middle" x="205" y="-564" font-family="Helvetica,sans-Serif" font-size="10.00">Manager</text>
</a>
</g>
</g>
<!-- Node0&#45;&gt;Node1 -->
<g id="edge1" class="edge">
<title>Node0&#45;&gt;Node1</title>
<path fill="none" stroke="midnightblue" d="M42.32,-307.89C42.99,-356 51.58,-479.66 119,-547 124.22,-552.22 130.48,-556.36 137.19,-559.64"/>
<polygon fill="midnightblue" stroke="midnightblue" points="45.82,-307.59 42.28,-297.6 38.82,-307.61 45.82,-307.59"/>
</g>
<!-- Node2 -->
<g id="node3" class="node">
<title>Node2</title>
<g id="a_node3"><a xlink:href="class_framework_1_1_managers_1_1_save_manager.html" target="_top" xlink:title="This class is used to manage the saving and the loading of the player&#39;s progression.">
<polygon fill="white" stroke="black" points="119,-518.5 119,-537.5 291,-537.5 291,-518.5 119,-518.5"/>
<text text-anchor="middle" x="205" y="-525.5" font-family="Helvetica,sans-Serif" font-size="10.00">Framework.Managers.SaveManager</text>
</a>
</g>
</g>
<!-- Node0&#45;&gt;Node2 -->
<g id="edge2" class="edge">
<title>Node0&#45;&gt;Node2</title>
<path fill="none" stroke="midnightblue" d="M43.22,-307.86C45.91,-351.29 58.66,-455.14 119,-509 123.29,-512.83 128.17,-515.94 133.39,-518.46"/>
<polygon fill="midnightblue" stroke="midnightblue" points="46.71,-307.55 42.71,-297.74 39.71,-307.9 46.71,-307.55"/>
</g>
<!-- Node3 -->
<g id="node4" class="node">
<title>Node3</title>
<g id="a_node4"><a xlink:href="class_framework_1_1_managers_1_1_skin_manager.html" target="_top" xlink:title="This class is a manager for the skin, it regroups each sprites, animations, etc. per skin....">
<polygon fill="white" stroke="black" points="120,-480.5 120,-499.5 290,-499.5 290,-480.5 120,-480.5"/>
<text text-anchor="middle" x="205" y="-487.5" font-family="Helvetica,sans-Serif" font-size="10.00">Framework.Managers.SkinManager</text>
</a>
</g>
</g>
<!-- Node0&#45;&gt;Node3 -->
<g id="edge3" class="edge">
<title>Node0&#45;&gt;Node3</title>
<path fill="none" stroke="midnightblue" d="M44.86,-308.02C50.44,-345.95 68.05,-428.31 119,-471 123.52,-474.79 128.64,-477.86 134.06,-480.35"/>
<polygon fill="midnightblue" stroke="midnightblue" points="48.28,-307.22 43.49,-297.77 41.35,-308.14 48.28,-307.22"/>
</g>
<!-- Node4 -->
<g id="node5" class="node">
<title>Node4</title>
<g id="a_node5"><a xlink:href="class_framework_1_1_u_i_1_1_skin_in_shop.html" target="_top" xlink:title=" ">
<polygon fill="white" stroke="black" points="140.5,-442.5 140.5,-461.5 269.5,-461.5 269.5,-442.5 140.5,-442.5"/>
<text text-anchor="middle" x="205" y="-449.5" font-family="Helvetica,sans-Serif" font-size="10.00">Framework.UI.SkinInShop</text>
</a>
</g>
</g>
<!-- Node0&#45;&gt;Node4 -->
<g id="edge4" class="edge">
<title>Node0&#45;&gt;Node4</title>
<path fill="none" stroke="midnightblue" d="M47.09,-307.35C55.6,-338.83 76.93,-400.84 119,-433 125.37,-437.87 132.74,-441.53 140.43,-444.29"/>
<polygon fill="midnightblue" stroke="midnightblue" points="50.46,-306.41 44.6,-297.59 43.68,-308.14 50.46,-306.41"/>
</g>
<!-- Node5 -->
<g id="node6" class="node">
<title>Node5</title>
<g id="a_node6"><a xlink:href="class_framework_1_1_utils_1_1_dont_destroy_on_load.html" target="_top" xlink:title="Ensure that the current game object will remains until manually destroyed. Used to keep alive long&#45;te...">
<polygon fill="white" stroke="black" points="133,-393 133,-423 277,-423 277,-393 133,-393"/>
<text text-anchor="start" x="141" y="-411" font-family="Helvetica,sans-Serif" font-size="10.00">Framework.Utils.DontDestroy</text>
<text text-anchor="middle" x="205" y="-400" font-family="Helvetica,sans-Serif" font-size="10.00">OnLoad</text>
</a>
</g>
</g>
<!-- Node0&#45;&gt;Node5 -->
<g id="edge5" class="edge">
<title>Node0&#45;&gt;Node5</title>
<path fill="none" stroke="midnightblue" d="M52.67,-306.53C65.41,-328.03 89.23,-363.09 119,-383 124.75,-386.85 131.11,-390.12 137.68,-392.89"/>
<polygon fill="midnightblue" stroke="midnightblue" points="55.62,-304.64 47.61,-297.7 49.55,-308.12 55.62,-304.64"/>
</g>
<!-- Node6 -->
<g id="node7" class="node">
<title>Node6</title>
<g id="a_node7"><a xlink:href="class_framework_1_1_utils_1_1_ensure_preloaded.html" target="_top" xlink:title="When added to a scene, ensure that the scene contains all preloaded dependencies.">
<polygon fill="white" stroke="black" points="123,-354.5 123,-373.5 287,-373.5 287,-354.5 123,-354.5"/>
<text text-anchor="middle" x="205" y="-361.5" font-family="Helvetica,sans-Serif" font-size="10.00">Framework.Utils.EnsurePreloaded</text>
</a>
</g>
</g>
<!-- Node0&#45;&gt;Node6 -->
<g id="edge6" class="edge">
<title>Node0&#45;&gt;Node6</title>
<path fill="none" stroke="midnightblue" d="M60.22,-304.65C74.89,-317.53 96.85,-334.84 119,-345 127.38,-348.85 136.6,-351.94 145.77,-354.42"/>
<polygon fill="midnightblue" stroke="midnightblue" points="62.25,-301.76 52.48,-297.66 57.56,-306.96 62.25,-301.76"/>
</g>
<!-- Node7 -->
<g id="node8" class="node">
<title>Node7</title>
<g id="a_node8"><a xlink:href="class_framework_1_1_utils_1_1_load_main_menu.html" target="_top" xlink:title="Load main menu. Mainly used to load the main menu after preload.">
<polygon fill="white" stroke="black" points="127,-316.5 127,-335.5 283,-335.5 283,-316.5 127,-316.5"/>
<text text-anchor="middle" x="205" y="-323.5" font-family="Helvetica,sans-Serif" font-size="10.00">Framework.Utils.LoadMainMenu</text>
</a>
</g>
</g>
<!-- Node0&#45;&gt;Node7 -->
<g id="edge7" class="edge">
<title>Node0&#45;&gt;Node7</title>
<path fill="none" stroke="midnightblue" d="M90,-299.98C99.59,-302.35 109.61,-304.78 119,-307 132.39,-310.16 147,-313.47 160.28,-316.43"/>
<polygon fill="midnightblue" stroke="midnightblue" points="90.75,-296.56 80.2,-297.55 89.06,-303.36 90.75,-296.56"/>
</g>
<!-- Node8 -->
<g id="node9" class="node">
<title>Node8</title>
<g id="a_node9"><a xlink:href="class_gameplay_1_1_actors_1_1_player_controller.html" target="_top" xlink:title="This class is used by the player game object to control it (like physics)">
<polygon fill="white" stroke="black" points="123,-278.5 123,-297.5 287,-297.5 287,-278.5 123,-278.5"/>
<text text-anchor="middle" x="205" y="-285.5" font-family="Helvetica,sans-Serif" font-size="10.00">Gameplay.Actors.PlayerController</text>
</a>
</g>
</g>
<!-- Node0&#45;&gt;Node8 -->
<g id="edge8" class="edge">
<title>Node0&#45;&gt;Node8</title>
<path fill="none" stroke="midnightblue" d="M93.55,-288C102.93,-288 112.93,-288 122.94,-288"/>
<polygon fill="midnightblue" stroke="midnightblue" points="93.25,-284.5 83.25,-288 93.25,-291.5 93.25,-284.5"/>
</g>
<!-- Node9 -->
<g id="node10" class="node">
<title>Node9</title>
<g id="a_node10"><a xlink:href="class_gameplay_1_1_collisions_1_1_base_collider_controller.html" target="_top" xlink:title="Base class for controlling the comportement a collision occurs between two objects.">
<polygon fill="white" stroke="black" points="139.5,-229 139.5,-259 270.5,-259 270.5,-229 139.5,-229"/>
<text text-anchor="start" x="147.5" y="-247" font-family="Helvetica,sans-Serif" font-size="10.00">Gameplay.Collisions.Base</text>
<text text-anchor="middle" x="205" y="-236" font-family="Helvetica,sans-Serif" font-size="10.00">ColliderController</text>
</a>
</g>
</g>
<!-- Node0&#45;&gt;Node9 -->
<g id="edge9" class="edge">
<title>Node0&#45;&gt;Node9</title>
<path fill="none" stroke="midnightblue" d="M87.43,-275.76C106.42,-270.59 128.72,-264.51 148.7,-259.07"/>
<polygon fill="midnightblue" stroke="midnightblue" points="86.27,-272.45 77.54,-278.45 88.11,-279.2 86.27,-272.45"/>
</g>
<!-- Node16 -->
<g id="node17" class="node">
<title>Node16</title>
<g id="a_node17"><a xlink:href="class_gameplay_1_1_levels_1_1_level.html" target="_top" xlink:title="This class is the core of the played level, it retransmit the data to the player and perform action w...">
<polygon fill="white" stroke="black" points="147,-190.5 147,-209.5 263,-209.5 263,-190.5 147,-190.5"/>
<text text-anchor="middle" x="205" y="-197.5" font-family="Helvetica,sans-Serif" font-size="10.00">Gameplay.Levels.Level</text>
</a>
</g>
</g>
<!-- Node0&#45;&gt;Node16 -->
<g id="edge16" class="edge">
<title>Node0&#45;&gt;Node16</title>
<path fill="none" stroke="midnightblue" d="M57.34,-270.6C71.59,-255.01 94.52,-232.71 119,-220 127.61,-215.53 137.23,-212.04 146.81,-209.33"/>
<polygon fill="midnightblue" stroke="midnightblue" points="54.38,-268.66 50.36,-278.46 59.62,-273.31 54.38,-268.66"/>
</g>
<!-- Node17 -->
<g id="node18" class="node">
<title>Node17</title>
<g id="a_node18"><a xlink:href="class_u_i_1_1_button_content_adjust.html" target="_top" xlink:title="Adjust content in a button when clicking on it.">
<polygon fill="white" stroke="black" points="145.5,-152.5 145.5,-171.5 264.5,-171.5 264.5,-152.5 145.5,-152.5"/>
<text text-anchor="middle" x="205" y="-159.5" font-family="Helvetica,sans-Serif" font-size="10.00">UI.ButtonContentAdjust</text>
</a>
</g>
</g>
<!-- Node0&#45;&gt;Node17 -->
<g id="edge17" class="edge">
<title>Node0&#45;&gt;Node17</title>
<path fill="none" stroke="midnightblue" d="M50.8,-268.9C62.4,-244.55 85.85,-202.96 119,-181 126.94,-175.74 136.12,-171.92 145.45,-169.14"/>
<polygon fill="midnightblue" stroke="midnightblue" points="47.53,-267.63 46.55,-278.18 53.9,-270.54 47.53,-267.63"/>
</g>
<!-- Node18 -->
<g id="node19" class="node">
<title>Node18</title>
<g id="a_node19"><a xlink:href="class_u_i_1_1_load_scene_on_press.html" target="_top" xlink:title="Load given scene on button press.">
<polygon fill="white" stroke="black" points="147,-114.5 147,-133.5 263,-133.5 263,-114.5 147,-114.5"/>
<text text-anchor="middle" x="205" y="-121.5" font-family="Helvetica,sans-Serif" font-size="10.00">UI.LoadSceneOnPress</text>
</a>
</g>
</g>
<!-- Node0&#45;&gt;Node18 -->
<g id="edge18" class="edge">
<title>Node0&#45;&gt;Node18</title>
<path fill="none" stroke="midnightblue" d="M47.09,-268.65C55.6,-237.17 76.93,-175.16 119,-143 127.05,-136.85 136.71,-132.61 146.58,-129.72"/>
<polygon fill="midnightblue" stroke="midnightblue" points="43.68,-267.86 44.6,-278.41 50.46,-269.59 43.68,-267.86"/>
</g>
<!-- Node19 -->
<g id="node20" class="node">
<title>Node19</title>
<g id="a_node20"><a xlink:href="class_u_i_1_1_main_menu.html" target="_top" xlink:title="Main menu management class.">
<polygon fill="white" stroke="black" points="168,-76.5 168,-95.5 242,-95.5 242,-76.5 168,-76.5"/>
<text text-anchor="middle" x="205" y="-83.5" font-family="Helvetica,sans-Serif" font-size="10.00">UI.MainMenu</text>
</a>
</g>
</g>
<!-- Node0&#45;&gt;Node19 -->
<g id="edge19" class="edge">
<title>Node0&#45;&gt;Node19</title>
<path fill="none" stroke="midnightblue" d="M44.86,-267.98C50.44,-230.05 68.05,-147.69 119,-105 132.45,-93.74 151.16,-88.78 167.6,-86.73"/>
<polygon fill="midnightblue" stroke="midnightblue" points="41.35,-267.86 43.49,-278.23 48.28,-268.78 41.35,-267.86"/>
</g>
<!-- Node20 -->
<g id="node21" class="node">
<title>Node20</title>
<g id="a_node21"><a xlink:href="class_u_i_1_1_parallax_background.html" target="_top" xlink:title="This class purpose is to manage the parallax effect.">
<polygon fill="white" stroke="black" points="147,-38.5 147,-57.5 263,-57.5 263,-38.5 147,-38.5"/>
<text text-anchor="middle" x="205" y="-45.5" font-family="Helvetica,sans-Serif" font-size="10.00">UI.ParallaxBackground</text>
</a>
</g>
</g>
<!-- Node0&#45;&gt;Node20 -->
<g id="edge20" class="edge">
<title>Node0&#45;&gt;Node20</title>
<path fill="none" stroke="midnightblue" d="M43.22,-268.14C45.91,-224.71 58.66,-120.86 119,-67 126.78,-60.05 136.55,-55.47 146.66,-52.48"/>
<polygon fill="midnightblue" stroke="midnightblue" points="39.71,-268.1 42.71,-278.26 46.71,-268.45 39.71,-268.1"/>
</g>
<!-- Node21 -->
<g id="node22" class="node">
<title>Node21</title>
<g id="a_node22"><a xlink:href="class_u_i_1_1_pause_menu.html" target="_top" xlink:title="Class for the In Game pause menu">
<polygon fill="white" stroke="black" points="165,-0.5 165,-19.5 245,-19.5 245,-0.5 165,-0.5"/>
<text text-anchor="middle" x="205" y="-7.5" font-family="Helvetica,sans-Serif" font-size="10.00">UI.PauseMenu</text>
</a>
</g>
</g>
<!-- Node0&#45;&gt;Node21 -->
<g id="edge21" class="edge">
<title>Node0&#45;&gt;Node21</title>
<path fill="none" stroke="midnightblue" d="M42.04,-268.13C42.06,-219.6 49.24,-94.21 119,-29 131.26,-17.54 148.87,-12.44 164.88,-10.35"/>
<polygon fill="midnightblue" stroke="midnightblue" points="38.54,-268.29 42.14,-278.25 45.54,-268.22 38.54,-268.29"/>
</g>
<!-- Node10 -->
<g id="node11" class="node">
<title>Node10</title>
<g id="a_node11"><a xlink:href="class_gameplay_1_1_collisions_1_1_coin_collider_controller.html" target="_top" xlink:title="Class for controlling the comportement of a coin object and the player during their collision.">
<polygon fill="white" stroke="black" points="334.5,-352 334.5,-382 462.5,-382 462.5,-352 334.5,-352"/>
<text text-anchor="start" x="342.5" y="-370" font-family="Helvetica,sans-Serif" font-size="10.00">Gameplay.Collisions.Coin</text>
<text text-anchor="middle" x="398.5" y="-359" font-family="Helvetica,sans-Serif" font-size="10.00">ColliderController</text>
</a>
</g>
</g>
<!-- Node9&#45;&gt;Node10 -->
<g id="edge10" class="edge">
<title>Node9&#45;&gt;Node10</title>
<path fill="none" stroke="midnightblue" d="M279.74,-261.2C283.74,-263.49 287.54,-266.07 291,-269 318.93,-292.62 299.58,-318.8 327,-343 330.88,-346.42 335.26,-349.36 339.91,-351.88"/>
<polygon fill="midnightblue" stroke="midnightblue" points="281.21,-258.02 270.7,-256.67 278.07,-264.28 281.21,-258.02"/>
</g>
<!-- Node11 -->
<g id="node12" class="node">
<title>Node11</title>
<g id="a_node12"><a xlink:href="class_gameplay_1_1_collisions_1_1_death_area_collider_controller.html" target="_top" xlink:title="Class for controlling the comportement of the death area object and the player during their collision...">
<polygon fill="white" stroke="black" points="331.5,-303 331.5,-333 465.5,-333 465.5,-303 331.5,-303"/>
<text text-anchor="start" x="339.5" y="-321" font-family="Helvetica,sans-Serif" font-size="10.00">Gameplay.Collisions.Death</text>
<text text-anchor="middle" x="398.5" y="-310" font-family="Helvetica,sans-Serif" font-size="10.00">AreaColliderController</text>
</a>
</g>
</g>
<!-- Node9&#45;&gt;Node11 -->
<g id="edge11" class="edge">
<title>Node9&#45;&gt;Node11</title>
<path fill="none" stroke="midnightblue" d="M275.81,-262.53C281.03,-264.52 286.14,-266.68 291,-269 308.57,-277.41 309.61,-285.22 327,-294 333.46,-297.26 340.47,-300.25 347.48,-302.92"/>
<polygon fill="midnightblue" stroke="midnightblue" points="276.95,-259.22 266.35,-259.12 274.58,-265.8 276.95,-259.22"/>
</g>
<!-- Node12 -->
<g id="node13" class="node">
<title>Node12</title>
<g id="a_node13"><a xlink:href="class_gameplay_1_1_collisions_1_1_modifier_collider_controller.html" target="_top" xlink:title="Class for controlling the comportement of a modifier object and the player during their collision.">
<polygon fill="white" stroke="black" points="327,-254 327,-284 470,-284 470,-254 327,-254"/>
<text text-anchor="start" x="335" y="-272" font-family="Helvetica,sans-Serif" font-size="10.00">Gameplay.Collisions.Modifier</text>
<text text-anchor="middle" x="398.5" y="-261" font-family="Helvetica,sans-Serif" font-size="10.00">ColliderController</text>
</a>
</g>
</g>
<!-- Node9&#45;&gt;Node12 -->
<g id="edge12" class="edge">
<title>Node9&#45;&gt;Node12</title>
<path fill="none" stroke="midnightblue" d="M280.49,-253.72C295.77,-255.72 311.83,-257.82 326.97,-259.79"/>
<polygon fill="midnightblue" stroke="midnightblue" points="280.94,-250.25 270.57,-252.43 280.03,-257.19 280.94,-250.25"/>
</g>
<!-- Node13 -->
<g id="node14" class="node">
<title>Node13</title>
<g id="a_node14"><a xlink:href="class_gameplay_1_1_collisions_1_1_nocive_plateform_collider_controller.html" target="_top" xlink:title="Class for controlling the comportement of a nocive plateform element object and the player during the...">
<polygon fill="white" stroke="black" points="330,-205 330,-235 467,-235 467,-205 330,-205"/>
<text text-anchor="start" x="338" y="-223" font-family="Helvetica,sans-Serif" font-size="10.00">Gameplay.Collisions.Nocive</text>
<text text-anchor="middle" x="398.5" y="-212" font-family="Helvetica,sans-Serif" font-size="10.00">PlateformColliderController</text>
</a>
</g>
</g>
<!-- Node9&#45;&gt;Node13 -->
<g id="edge13" class="edge">
<title>Node9&#45;&gt;Node13</title>
<path fill="none" stroke="midnightblue" d="M280.57,-234.65C296.84,-232.62 313.96,-230.47 329.94,-228.47"/>
<polygon fill="midnightblue" stroke="midnightblue" points="280.05,-231.19 270.57,-235.91 280.92,-238.14 280.05,-231.19"/>
</g>
<!-- Node14 -->
<g id="node15" class="node">
<title>Node14</title>
<g id="a_node15"><a xlink:href="class_gameplay_1_1_collisions_1_1_normal_plateform_collider_controller.html" target="_top" xlink:title="Class for controlling the comportement of a normal plateform element object and the player during the...">
<polygon fill="white" stroke="black" points="328.5,-156 328.5,-186 468.5,-186 468.5,-156 328.5,-156"/>
<text text-anchor="start" x="336.5" y="-174" font-family="Helvetica,sans-Serif" font-size="10.00">Gameplay.Collisions.Normal</text>
<text text-anchor="middle" x="398.5" y="-163" font-family="Helvetica,sans-Serif" font-size="10.00">PlateformColliderController</text>
</a>
</g>
</g>
<!-- Node9&#45;&gt;Node14 -->
<g id="edge14" class="edge">
<title>Node9&#45;&gt;Node14</title>
<path fill="none" stroke="midnightblue" d="M275.15,-225.47C280.58,-223.47 285.93,-221.31 291,-219 308.28,-211.13 309.94,-204.34 327,-196 334.35,-192.41 342.35,-189.07 350.24,-186.08"/>
<polygon fill="midnightblue" stroke="midnightblue" points="273.6,-222.3 265.32,-228.9 275.91,-228.91 273.6,-222.3"/>
</g>
<!-- Node15 -->
<g id="node16" class="node">
<title>Node15</title>
<g id="a_node16"><a xlink:href="class_gameplay_1_1_collisions_1_1_victory_area_collider_controller.html" target="_top" xlink:title="Class for controlling the comportement of the death area object and the player during their collision...">
<polygon fill="white" stroke="black" points="328.5,-107 328.5,-137 468.5,-137 468.5,-107 328.5,-107"/>
<text text-anchor="start" x="336.5" y="-125" font-family="Helvetica,sans-Serif" font-size="10.00">Gameplay.Collisions.Victory</text>
<text text-anchor="middle" x="398.5" y="-114" font-family="Helvetica,sans-Serif" font-size="10.00">AreaColliderController</text>
</a>
</g>
</g>
<!-- Node9&#45;&gt;Node15 -->
<g id="edge15" class="edge">
<title>Node9&#45;&gt;Node15</title>
<path fill="none" stroke="midnightblue" d="M279.73,-226.78C283.73,-224.5 287.53,-221.92 291,-219 318.68,-195.71 299.81,-169.86 327,-146 330.89,-142.59 335.28,-139.66 339.93,-137.14"/>
<polygon fill="midnightblue" stroke="midnightblue" points="278.06,-223.7 270.67,-231.3 281.18,-229.96 278.06,-223.7"/>
</g>
</g>
</svg>
